<?xml version="1.0" encoding="UTF-8"?>
<svg xmlns="http://www.w3.org/2000/svg" xml:space="preserve" version="1.1" viewBox="0 0 15000 3000">
 <g>
  <polygon fill="#FFFFFF" points="3133.88,2707.07 343.18,2707.07 765.03,1981.49 2712.03,1981.49 "/>
  <polygon fill="#FFFFFF" points="2647.12,1869.86 829.93,1869.86 1251.78,1144.28 2225.28,1144.28 "/>
  <polygon fill="#FFFFFF" points="2160.38,1032.65 1316.68,1032.65 1738.53,307.07 "/>
  <path fill="#FFFFFF" d="M3892 1750.99c23.07,-11.29 49.59,-29.91 79.59,-55.88 29.98,-25.96 60.83,-56.44 92.55,-91.44 31.72,-34.99 63.16,-72.53 94.3,-112.6 31.14,-40.08 59.97,-79.87 86.5,-119.38 16.15,14.67 33.73,29.63 52.77,44.87 19.02,15.24 40.08,30.2 63.14,44.87 -12.68,79.03 -30.56,148.45 -53.63,208.28 -23.07,59.83 -59.4,119.1 -109,177.8l-486.15 0c-81.89,-55.31 -147.64,-132.36 -197.23,-231.14 -49.6,-98.77 -74.4,-214.77 -74.4,-347.98 0,-66.6 12.12,-132.92 36.33,-198.96 24.23,-66.04 56.52,-127.85 96.89,-185.42 40.37,-57.57 86.8,-108.66 139.27,-153.25 52.49,-44.59 106.98,-78.74 163.49,-102.44l295.85 0c24.23,46.28 63.44,86.36 117.65,120.22 -49.59,57.58 -88.82,125.59 -117.65,204.05 -28.83,78.46 -47.87,157.2 -57.09,236.22 -95.74,-35 -177.63,-98.22 -245.67,-189.65 18.45,-42.9 44.12,-83.26 76.98,-121.08 32.88,-37.82 67.19,-70.84 102.95,-99.06l-41.52 -35.56c-77.28,55.32 -141.29,114.87 -192.04,178.65 -50.76,63.78 -76.13,140.26 -76.13,229.44 0,55.32 6.35,107.53 19.03,156.64 12.68,49.1 29.41,93.7 50.17,133.77 20.76,40.08 44.12,75.35 70.07,105.83 25.95,30.48 52.77,54.19 80.45,71.12 -12.69,16.94 -28.55,33.87 -47.57,50.8 -19.04,16.94 -39.51,32.74 -61.43,47.42l41.53 33.86z"/>
  <path fill="#FFFFFF" d="M4782.99 628.32l306.23 0c57.67,22.57 111.87,53.62 162.62,93.13 50.76,39.51 95.16,85.79 133.22,138.85 38.06,53.06 68.06,112.61 89.96,178.65 21.92,66.04 32.88,136.88 32.88,212.51 0,66.61 -11.25,130.39 -33.73,191.35 -22.5,60.96 -52.78,117.12 -90.83,168.48 -38.07,51.37 -82.48,97.37 -133.23,138.01 -50.74,40.64 -104.96,73.38 -162.62,98.21l-295.85 0c-54.21,-23.7 -104.39,-57.85 -150.52,-102.44 -46.14,-44.59 -85.64,-95.68 -118.5,-153.25 -32.88,-57.57 -58.54,-119.66 -77,-186.27 -18.45,-66.6 -27.68,-132.64 -27.68,-198.12 0,-74.5 9.51,-141.67 28.55,-201.5 19.03,-59.83 44.98,-113.45 77.85,-160.87 32.87,-47.41 71.51,-89.18 115.92,-125.3 44.4,-36.13 91.98,-66.61 142.73,-91.44zm133.22 96.52l-44.99 33.86c19.61,14.68 38.07,30.48 55.37,47.42 17.3,16.93 32.3,33.86 44.99,50.8 -28.85,16.93 -58.83,40.64 -89.98,71.12 -31.14,30.48 -59.68,66.04 -85.64,106.67 -25.95,40.64 -47.28,85.24 -64.01,133.78 -16.72,48.54 -25.08,99.9 -25.08,154.09 0,90.31 19.89,167.36 59.69,231.14 39.78,63.78 95.44,123.33 166.95,178.65l44.98 -35.56c-15,-11.29 -29.41,-23.43 -43.25,-36.41 -13.84,-12.98 -27.1,-25.68 -39.79,-38.1 32.29,-19.19 67.47,-42.62 105.53,-70.27 38.07,-27.66 73.53,-60.68 106.4,-99.06 32.88,-38.38 60.56,-82.69 83.05,-132.93 22.49,-50.23 33.73,-108.09 33.73,-173.57 0,-46.28 -9.51,-91.15 -28.54,-134.61 -19.03,-43.47 -43.25,-83.26 -72.67,-119.38 -29.4,-36.13 -62.57,-68.58 -99.47,-97.37 -36.92,-28.79 -72.67,-52.21 -107.27,-70.27z"/>
  <path fill="#FFFFFF" d="M6033.85 1750.99c23.07,-11.29 49.59,-29.91 79.59,-55.88 29.99,-25.96 60.83,-56.44 92.56,-91.44 31.71,-34.99 63.15,-72.53 94.29,-112.6 31.14,-40.08 59.98,-79.87 86.5,-119.38 16.15,14.67 33.74,29.63 52.77,44.87 19.02,15.24 40.08,30.2 63.14,44.87 -12.68,79.03 -30.56,148.45 -53.63,208.28 -23.07,59.83 -59.4,119.1 -108.99,177.8l-486.15 0c-81.89,-55.31 -147.64,-132.36 -197.24,-231.14 -49.6,-98.77 -74.4,-214.77 -74.4,-347.98 0,-66.6 12.12,-132.92 36.34,-198.96 24.22,-66.04 56.52,-127.85 96.88,-185.42 40.37,-57.57 86.8,-108.66 139.27,-153.25 52.49,-44.59 106.99,-78.74 163.5,-102.44l295.84 0c24.23,46.28 63.44,86.36 117.65,120.22 -49.59,57.58 -88.81,125.59 -117.65,204.05 -28.83,78.46 -47.86,157.2 -57.09,236.22 -95.73,-35 -177.62,-98.22 -245.67,-189.65 18.45,-42.9 44.12,-83.26 76.99,-121.08 32.88,-37.82 67.18,-70.84 102.94,-99.06l-41.52 -35.56c-77.28,55.32 -141.29,114.87 -192.04,178.65 -50.76,63.78 -76.13,140.26 -76.13,229.44 0,55.32 6.35,107.53 19.04,156.64 12.68,49.1 29.4,93.7 50.16,133.77 20.77,40.08 44.12,75.35 70.07,105.83 25.95,30.48 52.77,54.19 80.45,71.12 -12.69,16.94 -28.54,33.87 -47.57,50.8 -19.03,16.94 -39.51,32.74 -61.42,47.42l41.52 33.86z"/>
  <path fill="#FFFFFF" d="M6577.09 645.25l0 1185.33 318.35 0 0 -494.45c-18.46,-9.03 -37.49,-16.94 -57.1,-23.71 -19.61,-6.77 -39.22,-12.98 -58.83,-18.63l6.93 -57.57c63.43,0 117.07,5.36 160.9,16.09 43.82,10.72 77.27,23.42 100.34,38.1 35.75,-14.68 73.82,-27.38 114.19,-38.1 40.37,-10.73 84.77,-16.09 133.22,-16.09l15.57 57.57c-20.76,5.65 -41.52,12.42 -62.28,20.32 -20.76,7.91 -41.53,15.81 -62.29,23.71l0 492.76 318.34 0 0 -1185.33 -318.34 0 0 348.83c41.53,16.93 83.05,28.22 124.57,33.86l-15.57 60.96c-54.21,0 -100.92,-3.95 -140.14,-11.85 -39.22,-7.9 -74.97,-20.89 -107.27,-38.95 -48.44,33.87 -135.53,50.8 -261.24,50.8l-6.93 -60.96c23.07,-2.26 44.41,-6.21 64.02,-11.85 19.61,-5.65 36.91,-11.85 51.91,-18.63l0 -352.21 -318.35 0z"/>
  <path fill="#FFFFFF" d="M7938.68 628.32l306.22 0c57.68,22.57 111.88,53.62 162.63,93.13 50.76,39.51 95.16,85.79 133.22,138.85 38.06,53.06 68.06,112.61 89.96,178.65 21.92,66.04 32.88,136.88 32.88,212.51 0,66.61 -11.25,130.39 -33.74,191.35 -22.49,60.96 -52.77,117.12 -90.83,168.48 -38.07,51.37 -82.47,97.37 -133.22,138.01 -50.75,40.64 -104.96,73.38 -162.62,98.21l-295.85 0c-54.21,-23.7 -104.39,-57.85 -150.52,-102.44 -46.14,-44.59 -85.64,-95.68 -118.51,-153.25 -32.88,-57.57 -58.53,-119.66 -76.99,-186.27 -18.46,-66.6 -27.68,-132.64 -27.68,-198.12 0,-74.5 9.51,-141.67 28.55,-201.5 19.03,-59.83 44.98,-113.45 77.85,-160.87 32.87,-47.41 71.51,-89.18 115.91,-125.3 44.41,-36.13 91.99,-66.61 142.74,-91.44zm133.22 96.52l-44.99 33.86c19.61,14.68 38.07,30.48 55.37,47.42 17.29,16.93 32.29,33.86 44.98,50.8 -28.84,16.93 -58.83,40.64 -89.97,71.12 -31.14,30.48 -59.69,66.04 -85.64,106.67 -25.95,40.64 -47.28,85.24 -64.01,133.78 -16.72,48.54 -25.08,99.9 -25.08,154.09 0,90.31 19.89,167.36 59.69,231.14 39.78,63.78 95.43,123.33 166.94,178.65l44.99 -35.56c-15,-11.29 -29.41,-23.43 -43.25,-36.41 -13.84,-12.98 -27.1,-25.68 -39.79,-38.1 32.29,-19.19 67.47,-42.62 105.53,-70.27 38.07,-27.66 73.53,-60.68 106.4,-99.06 32.88,-38.38 60.56,-82.69 83.04,-132.93 22.5,-50.23 33.74,-108.09 33.74,-173.57 0,-46.28 -9.51,-91.15 -28.55,-134.61 -19.02,-43.47 -43.24,-83.26 -72.66,-119.38 -29.4,-36.13 -62.57,-68.58 -99.47,-97.37 -36.92,-28.79 -72.67,-52.21 -107.27,-70.27z"/>
  <path fill="#FFFFFF" d="M8744.91 834.9c0,-15.8 -3.18,-29.91 -9.52,-42.33 -6.35,-12.42 -14.13,-24.84 -23.36,-37.25l57.09 -110.07 693.78 0c35.74,30.48 61.99,64.63 78.71,102.45 16.72,37.81 25.09,76.48 25.09,115.99 0,56.44 -17.59,113.17 -52.77,170.18 -35.18,57.01 -86.21,107.52 -153.11,151.55l32.87 45.72c19.61,-10.16 36.62,-19.47 51.04,-27.94 14.42,-8.47 30.27,-18.34 47.58,-29.63 33.44,30.48 61.99,71.12 85.63,121.92 23.65,50.8 35.47,110.63 35.47,179.49 0,27.09 -2.59,56.45 -7.78,88.05 -5.19,31.61 -12.69,63.5 -22.5,95.68 -9.8,32.17 -21.05,63.21 -33.74,93.13 -12.68,29.92 -26.52,56.16 -41.52,78.74l-738.75 0 -57.09 -110.07c21.92,-30.48 32.88,-62.65 32.88,-96.52l0 -789.09zm209.34 377.61c39.21,-16.93 77.85,-36.68 115.91,-59.26 38.07,-22.58 71.81,-46.57 101.21,-71.97 29.42,-25.4 53.06,-52.21 70.94,-80.43 17.88,-28.22 26.82,-57.57 26.82,-88.05 0,-39.52 -15.57,-73.38 -46.72,-101.6 -31.14,-28.23 -77.28,-42.34 -138.41,-42.34 -20.76,0 -42.96,1.98 -66.6,5.93 -23.65,3.95 -48.74,9.88 -75.26,17.78l12.11 49.11c36.9,-10.16 73.23,-13.55 108.99,-10.16l0 223.51c-15,21.45 -34.6,41.77 -58.82,60.96 -24.22,19.2 -48.45,36.69 -72.66,52.5l22.49 44.02zm108.99 443.66c-18.45,3.38 -36.62,5.64 -54.5,6.77 -17.88,1.13 -36.04,0.56 -54.49,-1.69l0 50.8c17.29,2.25 34.02,3.95 50.17,5.08 16.15,1.13 31.72,1.69 46.72,1.69 53.04,0 98.9,-8.47 137.54,-25.4 38.63,-16.93 70.35,-38.66 95.15,-65.19 24.8,-26.53 42.96,-55.32 54.5,-86.36 11.53,-31.05 17.3,-60.68 17.3,-88.9 0,-24.84 -4.61,-48.83 -13.84,-71.97 -9.23,-23.14 -22.5,-43.46 -39.79,-60.96 -17.3,-17.5 -38.65,-31.61 -64.01,-42.33 -25.38,-10.73 -53.64,-16.09 -84.79,-16.09 -34.59,0 -71.79,9.31 -111.59,27.94 -39.78,18.63 -78.14,41.49 -115.04,68.58l27.68 37.25c17.29,-11.28 34.89,-20.6 52.77,-27.94 17.87,-7.33 36.62,-13.26 56.22,-17.78l0 306.5z"/>
  <path fill="#FFFFFF" d="M10154.93 1750.99c23.07,-11.29 49.59,-29.91 79.59,-55.88 29.99,-25.96 60.83,-56.44 92.56,-91.44 31.71,-34.99 63.15,-72.53 94.29,-112.6 31.14,-40.08 59.98,-79.87 86.5,-119.38 16.15,14.67 33.74,29.63 52.77,44.87 19.03,15.24 40.08,30.2 63.14,44.87 -12.68,79.03 -30.56,148.45 -53.63,208.28 -23.07,59.83 -59.4,119.1 -108.99,177.8l-486.15 0c-81.89,-55.31 -147.64,-132.36 -197.23,-231.14 -49.61,-98.77 -74.4,-214.77 -74.4,-347.98 0,-66.6 12.11,-132.92 36.33,-198.96 24.22,-66.04 56.52,-127.85 96.89,-185.42 40.36,-57.57 86.79,-108.66 139.27,-153.25 52.48,-44.59 106.98,-78.74 163.49,-102.44l295.85 0c24.22,46.28 63.43,86.36 117.65,120.22 -49.6,57.58 -88.82,125.59 -117.65,204.05 -28.84,78.46 -47.87,157.2 -57.1,236.22 -95.73,-35 -177.62,-98.22 -245.67,-189.65 18.45,-42.9 44.12,-83.26 76.99,-121.08 32.88,-37.82 67.19,-70.84 102.95,-99.06l-41.53 -35.56c-77.28,55.32 -141.29,114.87 -192.04,178.65 -50.76,63.78 -76.12,140.26 -76.12,229.44 0,55.32 6.34,107.53 19.03,156.64 12.68,49.1 29.4,93.7 50.17,133.77 20.76,40.08 44.11,75.35 70.06,105.83 25.96,30.48 52.78,54.19 80.45,71.12 -12.69,16.94 -28.54,33.87 -47.57,50.8 -19.03,16.94 -39.51,32.74 -61.42,47.42l41.52 33.86z"/>
  <path fill="#FFFFFF" d="M10698.17 645.25l0 1185.33 762.98 0c29.98,-45.16 55.08,-100.75 75.26,-166.79 20.19,-66.04 30.27,-148.73 30.27,-248.08 0,-55.31 -7.2,-105.83 -21.62,-151.55 -14.42,-45.72 -36.05,-85.23 -64.88,-118.53 -28.83,-33.3 -65.16,-58.99 -108.99,-77.05 -43.84,-18.06 -94.58,-27.09 -152.25,-27.09 -43.83,0 -91.7,9.03 -143.6,27.09 -51.9,18.06 -107.84,46.29 -167.82,84.67l-22.5 -44.03c20.77,-15.8 42.11,-30.48 64.03,-44.03 21.9,-13.54 44.4,-25.4 67.47,-35.56l0 -384.38 -318.35 0zm318.35 1010.92l0 -347.14c-19.62,5.65 -35.76,12.14 -48.45,19.48 -12.69,7.34 -27.68,16.65 -44.98,27.94l-27.68 -37.26c35.76,-27.09 73.81,-49.95 114.18,-68.58 40.37,-18.62 77.86,-27.94 112.46,-27.94 63.44,0 113.03,19.48 148.79,58.42 35.75,38.95 53.63,83.26 53.63,132.93 0,38.38 -6.63,75.92 -19.89,112.61 -13.27,36.69 -33.45,69.14 -60.56,97.36 -27.1,28.23 -60.55,51.09 -100.34,68.58 -39.79,17.5 -86.22,26.25 -139.28,26.25 -14.99,0 -30.56,-0.56 -46.71,-1.69 -16.14,-1.13 -32.87,-2.83 -50.17,-5.08l0 -50.8c18.45,2.25 36.62,2.82 54.5,1.69 17.87,-1.13 36.04,-3.39 54.5,-6.77z"/>
  <path fill="#FFFFFF" d="M12466.33 645.25l51.9 296.33c-31.14,-14.67 -67.47,-22.01 -108.99,-22.01 -56.52,0 -112.46,18.06 -167.82,54.19 -55.36,36.12 -98.62,93.69 -129.76,172.71 6.93,1.13 15.29,3.39 25.09,6.78 9.8,3.38 18.17,6.77 25.09,10.16 9.22,-18.06 19.03,-34.15 29.41,-48.26 10.38,-14.11 20.76,-26.81 31.14,-38.1 61.13,18.06 112.45,44.31 153.98,78.74 41.52,34.43 75.25,73.94 101.21,118.53 25.95,44.59 44.7,93.42 56.22,146.47 11.54,53.06 17.31,107.25 17.31,162.56 0,42.9 -2.6,85.23 -7.79,127 -5.19,41.77 -12.4,81.85 -21.63,120.23l-316.6 0c13.84,-48.54 23.64,-94.54 29.41,-138.01 5.76,-43.46 8.65,-83.82 8.65,-121.07 0,-95.95 -16.72,-171.03 -50.17,-225.21 -33.45,-54.19 -72.67,-81.28 -117.65,-81.28 -23.07,0 -46.71,3.1 -70.93,9.31 -24.22,6.21 -47.29,13.55 -69.21,22.01 -21.92,8.47 -41.52,17.22 -58.82,26.25 -17.3,9.03 -31.14,16.93 -41.52,23.71l22.49 55.88c18.45,-10.16 36.61,-19.19 54.49,-27.1 17.88,-7.9 36.05,-14.11 54.5,-18.62l0 474.13 -318.33 0 0 -1185.33 318.33 0 0 394.54c-14.99,18.07 -35.18,35.28 -60.54,51.65 -25.38,16.37 -49.03,29.07 -70.94,38.1l22.49 49.11c50.74,-15.81 94.86,-42.05 132.35,-78.74 37.49,-36.69 68.34,-81 92.57,-132.93 24.21,-51.93 42.09,-110.06 53.63,-174.41 11.53,-64.35 17.29,-130.95 17.29,-199.81l313.15 52.49z"/>
  <path fill="#FFFFFF" d="M12651.45 645.25l0 1185.33 318.35 0 0 -321.73c-19.62,7.9 -38.65,18.06 -57.1,30.48 -18.46,12.42 -35.76,25.4 -51.9,38.94l-27.69 -44.02c40.37,-39.51 85.07,-73.38 134.09,-101.6 49.01,-28.22 97.75,-49.67 146.19,-64.35 26.53,-53.06 62.28,-104.14 107.27,-153.25 44.98,-49.1 94.58,-92.85 148.79,-131.23l29.4 42.33c-26.52,18.07 -50.75,38.39 -72.66,60.96 -21.92,22.58 -43.83,49.68 -65.74,81.28l0 562.19 318.34 0 0 -1185.33 -318.34 0 0 264.16c18.45,-6.77 37.19,-15.81 56.23,-27.09 19.03,-11.29 37.77,-23.71 56.22,-37.26l29.42 42.34c-40.37,30.48 -82.48,56.44 -126.3,77.89 -43.83,21.45 -88.23,36.69 -133.22,45.72 -29.99,72.25 -70.94,138.85 -122.84,199.81 -51.9,60.96 -104.96,107.81 -159.16,140.55l-32.88 -38.95c26.53,-21.45 52.49,-44.31 77.85,-68.58 25.38,-24.27 46.72,-51.65 64.03,-82.13l0 -516.46 -318.35 0z"/>
  <path fill="#FFFFFF" d="M13665.28 645.25l0 1185.33 318.35 0 0 -321.73c-38.07,14.67 -73.25,36.12 -105.54,64.34l-36.34 -37.25c40.37,-38.38 85.93,-72.25 136.69,-101.6 50.75,-29.35 100.34,-51.36 148.78,-66.04 26.53,-53.06 62.28,-104.14 107.27,-153.25 44.99,-49.1 94.58,-92.85 148.79,-131.23l29.41 42.33c-26.53,18.07 -50.75,38.39 -72.67,60.96 -21.91,22.58 -43.83,49.68 -65.73,81.28l0 562.19 318.33 0 0 -1185.33 -223.18 -49.11 -95.15 66.04 0 247.23c18.45,-6.77 37.19,-16.09 56.22,-27.94 19.03,-11.85 37.77,-24.55 56.22,-38.1l29.42 44.03c-40.37,30.48 -82.47,56.44 -126.29,77.89 -43.84,21.45 -88.24,36.69 -133.22,45.72 -29.99,72.25 -70.94,138.85 -122.85,199.81 -51.9,60.96 -104.96,107.81 -159.16,140.55l-31.14 -38.95c26.52,-21.45 52.19,-44.31 76.99,-68.58 24.79,-24.27 45.84,-51.65 63.15,-82.13l0 -499.53 -110.73 -67.73 -207.62 50.8zm806.23 -182.88l-29.41 -247.23 -280.27 0 0 193.04c16.14,-11.29 33.73,-21.73 52.77,-31.32 19.02,-9.6 38.92,-17.78 59.69,-24.56l22.48 57.58c-61.13,23.7 -117.06,54.18 -167.81,91.44 -19.62,-16.94 -44.7,-34.72 -75.26,-53.34 -30.57,-18.63 -60.27,-33.59 -89.11,-44.88l19.04 -54.18c19.61,7.9 38.93,16.37 57.95,25.4 19.03,9.03 37.2,19.19 54.5,30.48l0 -189.66 -280.28 0 -31.14 247.23c64.59,16.93 124.57,45.15 179.93,84.67 55.37,39.51 109.57,82.4 162.63,128.69 56.52,-48.54 113.61,-92.57 171.28,-132.08 57.68,-39.51 115.34,-66.61 173.01,-81.28z"/>
  <path fill="#FFFFFF" d="M3822.61 2282.87l41.69 246.38 -81.32 0 -18.16 -215.9 9.49 -42.33 -16.1 -4.23 -33.43 143.08c-4.4,18.06 -7.08,37.54 -8.05,58.42 -0.96,20.88 -1.17,41.2 -0.62,60.96l-102.78 0 -53.67 -262.46 -16.1 4.23 7.43 46.14 -14.86 212.09 -82.55 0 41.69 -246.38c1.37,-8.46 0.13,-16.93 -3.72,-25.4l17.76 -24.55 99.48 0 63.16 225.63 16.5 -5.08 -15.69 -63.07 51.61 -157.48 84.21 0 17.74 24.55c-3.85,8.47 -5.09,16.94 -3.71,25.4z"/>
  <path fill="#FFFFFF" d="M4056.25 2232.92l19.81 22.44c-0.82,3.66 -1.51,7.33 -2.06,11 -0.55,3.67 -0.27,7.2 0.82,10.59l94.95 252.3 -81.33 0 -11.96 -52.07c7.43,-1.98 15.4,-3.67 23.94,-5.08l-4.13 -16.09c-14.86,0 -29.04,1.2 -42.51,3.6 -13.49,2.4 -25.87,5.86 -37.15,10.37 -11.3,-4.51 -23.68,-7.83 -37.16,-9.94 -13.48,-2.12 -27.39,-3.18 -41.69,-3.18l-4.95 16.09c5.22,0.28 10.18,0.84 14.86,1.69 4.68,0.85 8.94,1.69 12.79,2.54l-15.68 52.07 -79.26 0 88.34 -252.73c1.1,-3.1 1.44,-6.63 1.03,-10.58 -0.42,-3.95 -1.17,-7.48 -2.27,-10.58l19.81 -22.44 83.8 0zm-30.96 38.95l-17.75 0 0 46.98 -29.3 88.06c-8.54,1.13 -17.76,1.97 -27.67,2.54l1.24 15.24c14.59,0 26.49,-1.2 35.71,-3.6 9.22,-2.4 18.92,-5.29 29.11,-8.68 9.62,3.39 19.73,6.35 30.33,8.89 10.6,2.54 21.53,3.67 32.81,3.39l1.24 -15.24c-3.85,0 -8.04,-0.28 -12.59,-0.85 -4.53,-0.56 -9.14,-1.13 -13.82,-1.69l-29.31 -88.06 0 -46.98z"/>
  <path fill="#FFFFFF" d="M4187.93 2232.92l191.12 0 7.02 103.29c-15.13,1.13 -29.1,3.67 -41.9,7.62 -12.79,3.95 -25.38,8.75 -37.76,14.39l-8.67 -55.03c4.4,-4.51 10.11,-8.46 17.12,-11.85 7.02,-3.39 14.66,-6.63 22.92,-9.74l-5.37 -9.73c-7.71,0 -15.89,1.41 -24.56,4.23 -8.67,2.82 -16.86,6.49 -24.56,11.01 -6.33,-3.39 -14.1,-6.78 -23.33,-10.16 -9.21,-3.39 -18.5,-5.08 -27.86,-5.08l-3.3 11.43c5.5,1.69 9.97,3.45 13.42,5.29 3.44,1.83 7.08,4.16 10.94,6.98l10.72 233.68 -81.73 0 0 -244.68c0,-8.47 -2.61,-16.51 -7.84,-24.13l13.62 -27.52z"/>
  <path fill="#FFFFFF" d="M4579.67 2232.92l19.81 22.44c-0.82,3.66 -1.52,7.33 -2.06,11 -0.56,3.67 -0.27,7.2 0.82,10.59l94.94 252.3 -81.32 0 -11.96 -52.07c7.43,-1.98 15.4,-3.67 23.93,-5.08l-4.12 -16.09c-14.86,0 -29.04,1.2 -42.51,3.6 -13.49,2.4 -25.87,5.86 -37.16,10.37 -11.29,-4.51 -23.67,-7.83 -37.15,-9.94 -13.48,-2.12 -27.39,-3.18 -41.69,-3.18l-4.96 16.09c5.23,0.28 10.18,0.84 14.86,1.69 4.68,0.85 8.95,1.69 12.8,2.54l-15.68 52.07 -79.26 0 88.34 -252.73c1.1,-3.1 1.44,-6.63 1.03,-10.58 -0.42,-3.95 -1.17,-7.48 -2.27,-10.58l19.81 -22.44 83.8 0zm-30.96 38.95l-17.75 0 0 46.98 -29.31 88.06c-8.53,1.13 -17.75,1.97 -27.66,2.54l1.24 15.24c14.59,0 26.49,-1.2 35.71,-3.6 9.22,-2.4 18.91,-5.29 29.1,-8.68 9.63,3.39 19.74,6.35 30.34,8.89 10.6,2.54 21.53,3.67 32.81,3.39l1.24 -15.24c-3.85,0 -8.04,-0.28 -12.59,-0.85 -4.53,-0.56 -9.15,-1.13 -13.83,-1.69l-29.3 -88.06 0 -46.98z"/>
  <path fill="#FFFFFF" d="M4804.23 2509.78l6.6 -10.59c-4.4,-1.69 -8.25,-3.74 -11.55,-6.13 -3.31,-2.4 -6.75,-5.44 -10.32,-9.11 9.62,-6.21 17.4,-13.9 23.31,-23.07 5.92,-9.17 8.89,-19.26 8.89,-30.27 0,-10.72 -3.65,-21.8 -10.94,-33.23 -7.3,-11.43 -20.85,-21.09 -40.67,-29 11.56,-16.93 19.13,-34.29 22.7,-52.06 3.58,-17.78 5.38,-36.55 5.38,-56.31l-13.62 0c0,35.28 -10.47,66.89 -31.38,94.83 -9.91,-4.8 -19.13,-11.08 -27.66,-18.84 -8.53,-7.76 -15.4,-16.86 -20.64,-27.3 7.43,-10.45 14.59,-23.15 21.47,-38.1 6.88,-14.96 11.97,-28.93 15.27,-41.91l93.71 0c7.98,19.19 13.76,36.97 17.34,53.34 3.57,16.36 5.22,33.72 4.95,52.06 0,7.62 -0.42,15.95 -1.24,24.98 -9.36,-3.39 -18.72,-5.78 -28.07,-7.2l-3.31 11.43c11.57,4.24 21.26,9.67 29.11,16.3 7.84,6.64 14.03,13.97 18.58,22.02 4.53,8.04 7.77,16.58 9.7,25.61 1.92,9.03 2.88,18.2 2.88,27.51 0,15.24 -2.54,29.92 -7.63,44.03 -5.09,14.11 -11.5,25.68 -19.2,34.71l-146.54 0c-3.31,-10.72 -5.78,-20.74 -7.43,-30.05 -1.65,-9.32 -2.48,-18.91 -2.48,-28.79 0,-7.34 0.28,-14.89 0.83,-22.65 0.55,-7.76 1.51,-16.01 2.89,-24.76l39.63 -10.59c0,6.5 0.54,13.9 1.64,22.23 1.11,8.32 3.72,16.79 7.85,25.4 4.13,8.61 10.12,16.86 17.96,24.76 7.84,7.91 18.5,14.82 31.99,20.75z"/>
  <path fill="#FFFFFF" d="M4903.71 2232.92l0 296.33 75.96 0 0 -80.43c-4.68,1.97 -9.22,4.51 -13.62,7.62 -4.41,3.1 -8.53,6.35 -12.39,9.73l-6.61 -11c9.64,-9.88 20.3,-18.35 32,-25.4 11.7,-7.06 23.32,-12.42 34.88,-16.09 6.32,-13.26 14.86,-26.03 25.59,-38.31 10.74,-12.28 22.57,-23.21 35.51,-32.81l7.01 10.58c-6.33,4.52 -12.11,9.6 -17.34,15.24 -5.23,5.65 -10.45,12.42 -15.68,20.32l0 140.55 75.95 0 0 -296.33 -75.95 0 0 66.04c4.4,-1.69 8.87,-3.95 13.41,-6.77 4.54,-2.83 9.02,-5.93 13.41,-9.32l7.03 10.59c-9.64,7.62 -19.68,14.11 -30.14,19.47 -10.46,5.36 -21.05,9.17 -31.78,11.43 -7.16,18.06 -16.93,34.71 -29.32,49.95 -12.38,15.24 -25.04,26.95 -37.97,35.14l-7.85 -9.74c6.33,-5.36 12.52,-11.08 18.58,-17.14 6.06,-6.07 11.15,-12.92 15.28,-20.54l0 -129.11 -75.96 0z"/>
  <path fill="#FFFFFF" d="M5145.6 2232.92l0 296.33 75.96 0 0 -123.61c-4.4,-2.26 -8.95,-4.24 -13.62,-5.93 -4.68,-1.69 -9.36,-3.24 -14.04,-4.66l1.66 -14.39c15.13,0 27.93,1.34 38.39,4.02 10.45,2.68 18.43,5.86 23.94,9.53 8.53,-3.67 17.61,-6.85 27.24,-9.53 9.64,-2.68 20.23,-4.02 31.79,-4.02l3.72 14.39c-4.96,1.42 -9.91,3.11 -14.86,5.08 -4.96,1.98 -9.91,3.96 -14.87,5.93l0 123.19 75.96 0 0 -296.33 -75.96 0 0 87.2c9.91,4.24 19.82,7.06 29.73,8.47l-3.72 15.24c-12.94,0 -24.08,-0.99 -33.44,-2.96 -9.36,-1.98 -17.89,-5.22 -25.59,-9.74 -11.56,8.47 -32.34,12.7 -62.33,12.7l-1.66 -15.24c5.51,-0.56 10.6,-1.55 15.28,-2.96 4.67,-1.41 8.81,-2.97 12.38,-4.66l0 -88.05 -75.96 0z"/>
  <path fill="#FFFFFF" d="M5552.62 2280.33c0,-3.95 -0.76,-7.48 -2.27,-10.58 -1.51,-3.11 -3.37,-6.21 -5.58,-9.31l13.63 -27.52 165.53 0c8.53,7.62 14.79,16.16 18.78,25.61 3.99,9.45 5.99,19.12 5.99,29 0,14.11 -4.21,28.29 -12.59,42.54 -8.4,14.26 -20.58,26.88 -36.54,37.89l7.85 11.43c4.67,-2.54 8.74,-4.87 12.17,-6.98 3.44,-2.12 7.23,-4.59 11.36,-7.41 7.98,7.62 14.78,17.78 20.43,30.48 5.64,12.7 8.46,27.66 8.46,44.87 0,6.77 -0.62,14.11 -1.86,22.01 -1.24,7.91 -3.02,15.88 -5.36,23.92 -2.34,8.05 -5.02,15.81 -8.06,23.29 -3.02,7.47 -6.33,14.04 -9.89,19.68l-176.27 0 -13.63 -27.52c5.24,-7.62 7.85,-15.66 7.85,-24.13l0 -197.27zm49.95 94.4c9.35,-4.23 18.57,-9.17 27.65,-14.81 9.09,-5.65 17.13,-11.64 24.16,-17.99 7.01,-6.35 12.65,-13.06 16.91,-20.11 4.27,-7.06 6.41,-14.39 6.41,-22.01 0,-9.88 -3.72,-18.35 -11.15,-25.4 -7.43,-7.06 -18.43,-10.59 -33.02,-10.59 -4.96,0 -10.25,0.5 -15.9,1.48 -5.63,0.99 -11.62,2.47 -17.95,4.45l2.89 12.28c8.8,-2.54 17.47,-3.39 26,-2.54l0 55.87c-3.57,5.37 -8.25,10.45 -14.03,15.24 -5.78,4.8 -11.56,9.18 -17.33,13.13l5.36 11zm26 110.92c-4.4,0.84 -8.73,1.41 -13,1.69 -4.26,0.28 -8.6,0.14 -13,-0.42l0 12.7c4.12,0.56 8.11,0.98 11.97,1.27 3.85,0.28 7.57,0.42 11.15,0.42 12.65,0 23.6,-2.12 32.81,-6.35 9.22,-4.23 16.79,-9.67 22.7,-16.3 5.92,-6.63 10.26,-13.83 13.01,-21.59 2.75,-7.76 4.12,-15.17 4.12,-22.22 0,-6.21 -1.1,-12.21 -3.29,-17.99 -2.21,-5.79 -5.38,-10.87 -9.5,-15.24 -4.12,-4.38 -9.22,-7.91 -15.27,-10.59 -6.06,-2.68 -12.8,-4.02 -20.23,-4.02 -8.25,0 -17.14,2.33 -26.62,6.99 -9.5,4.65 -18.65,10.37 -27.45,17.14l6.6 9.31c4.12,-2.82 8.33,-5.15 12.59,-6.98 4.27,-1.84 8.73,-3.32 13.41,-4.45l0 76.63z"/>
  <path fill="#FFFFFF" d="M5778.83 2232.92l0 296.33 75.96 0 0 -80.43c-4.68,1.97 -9.23,4.51 -13.62,7.62 -4.41,3.1 -8.54,6.35 -12.39,9.73l-6.61 -11c9.64,-9.88 20.3,-18.35 32,-25.4 11.7,-7.06 23.32,-12.42 34.87,-16.09 6.33,-13.26 14.87,-26.03 25.6,-38.31 10.74,-12.28 22.57,-23.21 35.5,-32.81l7.02 10.58c-6.33,4.52 -12.11,9.6 -17.34,15.24 -5.23,5.65 -10.45,12.42 -15.68,20.32l0 140.55 75.95 0 0 -296.33 -75.95 0 0 66.04c4.4,-1.69 8.87,-3.95 13.41,-6.77 4.54,-2.83 9.02,-5.93 13.41,-9.32l7.02 10.59c-9.63,7.62 -19.67,14.11 -30.13,19.47 -10.46,5.36 -21.05,9.17 -31.78,11.43 -7.16,18.06 -16.93,34.71 -29.32,49.95 -12.38,15.24 -25.04,26.95 -37.97,35.14l-7.85 -9.74c6.33,-5.36 12.52,-11.08 18.58,-17.14 6.05,-6.07 11.14,-12.92 15.28,-20.54l0 -129.11 -75.96 0z"/>
  <path fill="#FFFFFF" d="M6130.94 2509.35c5.51,-2.82 11.84,-7.48 18.99,-13.97 7.15,-6.49 14.51,-14.11 22.08,-22.86 7.57,-8.75 15.08,-18.13 22.51,-28.15 7.43,-10.02 14.3,-19.96 20.63,-29.84 3.85,3.67 8.05,7.41 12.59,11.22 4.54,3.81 9.56,7.55 15.06,11.21 -3.02,19.76 -7.28,37.12 -12.79,52.07 -5.5,14.96 -14.17,29.78 -26.01,44.45l-115.98 0c-19.55,-13.83 -35.24,-33.09 -47.06,-57.78 -11.84,-24.7 -17.76,-53.69 -17.76,-87 0,-16.65 2.9,-33.23 8.67,-49.74 5.78,-16.51 13.48,-31.96 23.12,-46.35 9.63,-14.39 20.71,-27.17 33.23,-38.31 12.52,-11.15 25.52,-19.69 39,-25.61l70.59 0c5.78,11.57 15.14,21.59 28.08,30.05 -11.84,14.4 -21.19,31.4 -28.08,51.01 -6.87,19.62 -11.42,39.3 -13.62,59.06 -22.84,-8.75 -42.38,-24.56 -58.61,-47.42 4.39,-10.72 10.52,-20.81 18.37,-30.26 7.84,-9.46 16.03,-17.71 24.56,-24.77l-9.91 -8.89c-18.44,13.83 -33.72,28.72 -45.82,44.66 -12.11,15.95 -18.16,35.07 -18.16,57.36 0,13.83 1.51,26.89 4.54,39.16 3.02,12.28 7.01,23.43 11.97,33.45 4.95,10.01 10.53,18.83 16.72,26.45 6.19,7.62 12.59,13.55 19.19,17.78 -3.02,4.24 -6.81,8.47 -11.35,12.7 -4.55,4.24 -9.43,8.19 -14.66,11.86l9.91 8.46z"/>
  <path fill="#FFFFFF" d="M6343.52 2228.69l73.07 0c13.76,5.64 26.7,13.4 38.8,23.28 12.11,9.88 22.71,21.45 31.78,34.71 9.08,13.27 16.24,28.15 21.47,44.66 5.23,16.51 7.85,34.22 7.85,53.13 0,16.65 -2.68,32.6 -8.06,47.84 -5.36,15.24 -12.59,29.28 -21.66,42.12 -9.09,12.84 -19.68,24.34 -31.79,34.5 -12.11,10.16 -25.04,18.34 -38.8,24.55l-70.59 0c-12.94,-5.92 -24.9,-14.46 -35.91,-25.61 -11.01,-11.15 -20.44,-23.92 -28.28,-38.31 -7.84,-14.39 -13.97,-29.91 -18.37,-46.57 -4.4,-16.65 -6.6,-33.16 -6.6,-49.53 0,-18.62 2.27,-35.41 6.8,-50.37 4.55,-14.96 10.74,-28.36 18.58,-40.22 7.85,-11.85 17.06,-22.29 27.66,-31.32 10.59,-9.04 21.94,-16.66 34.05,-22.86zm31.79 24.13l-10.74 8.46c4.69,3.67 9.09,7.62 13.22,11.86 4.12,4.23 7.7,8.46 10.73,12.7 -6.88,4.23 -14.04,10.16 -21.47,17.78 -7.43,7.62 -14.24,16.5 -20.43,26.66 -6.19,10.16 -11.28,21.31 -15.28,33.45 -3.99,12.13 -5.97,24.97 -5.97,38.52 0,22.58 4.73,41.84 14.23,57.79 9.5,15.94 22.77,30.83 39.84,44.66l10.73 -8.89c-3.58,-2.83 -7.02,-5.86 -10.32,-9.1 -3.3,-3.25 -6.47,-6.43 -9.49,-9.53 7.7,-4.8 16.1,-10.65 25.17,-17.57 9.09,-6.91 17.55,-15.17 25.4,-24.76 7.84,-9.6 14.44,-20.68 19.81,-33.23 5.36,-12.56 8.04,-27.03 8.04,-43.4 0,-11.57 -2.27,-22.78 -6.8,-33.65 -4.55,-10.87 -10.33,-20.81 -17.34,-29.84 -7.02,-9.04 -14.93,-17.15 -23.73,-24.35 -8.82,-7.19 -17.34,-13.05 -25.6,-17.56z"/>
  <path fill="#FFFFFF" d="M6730.31 2232.92l12.38 74.08c-7.43,-3.67 -16.1,-5.5 -25.99,-5.5 -13.49,0 -26.84,4.51 -40.05,13.55 -13.21,9.03 -23.53,23.42 -30.96,43.17 1.66,0.29 3.65,0.85 5.99,1.7 2.34,0.84 4.33,1.69 5.98,2.54 2.21,-4.52 4.55,-8.54 7.02,-12.07 2.48,-3.52 4.96,-6.7 7.43,-9.52 14.58,4.51 26.83,11.08 36.74,19.68 9.9,8.61 17.96,18.49 24.15,29.64 6.19,11.14 10.66,23.35 13.41,36.61 2.76,13.27 4.13,26.82 4.13,40.64 0,10.73 -0.62,21.31 -1.86,31.75 -1.24,10.45 -2.96,20.46 -5.16,30.06l-75.54 0c3.3,-12.14 5.64,-23.64 7.02,-34.5 1.37,-10.87 2.07,-20.96 2.07,-30.27 0,-23.99 -4,-42.76 -11.98,-56.3 -7.98,-13.55 -17.33,-20.32 -28.07,-20.32 -5.5,0 -11.15,0.77 -16.92,2.33 -5.78,1.55 -11.29,3.38 -16.52,5.5 -5.22,2.12 -9.9,4.3 -14.03,6.56 -4.12,2.26 -7.43,4.23 -9.91,5.93l5.37 13.97c4.4,-2.54 8.73,-4.8 13.01,-6.78 4.26,-1.97 8.6,-3.52 12.99,-4.65l0 118.53 -75.95 0 0 -296.33 75.95 0 0 98.63c-3.58,4.52 -8.39,8.82 -14.44,12.92 -6.05,4.09 -11.7,7.26 -16.93,9.52l5.37 12.28c12.11,-3.95 22.64,-10.51 31.58,-19.69 8.94,-9.17 16.3,-20.25 22.09,-33.23 5.77,-12.98 10.04,-27.51 12.79,-43.6 2.75,-16.09 4.13,-32.74 4.13,-49.95l74.71 13.12z"/>
  <path fill="#FFFFFF" d="M6857.45 2228.69l73.07 0c13.76,5.64 26.7,13.4 38.8,23.28 12.11,9.88 22.71,21.45 31.78,34.71 9.08,13.27 16.24,28.15 21.47,44.66 5.23,16.51 7.85,34.22 7.85,53.13 0,16.65 -2.69,32.6 -8.06,47.84 -5.36,15.24 -12.59,29.28 -21.66,42.12 -9.09,12.84 -19.68,24.34 -31.79,34.5 -12.11,10.16 -25.04,18.34 -38.8,24.55l-70.59 0c-12.94,-5.92 -24.9,-14.46 -35.91,-25.61 -11.01,-11.15 -20.44,-23.92 -28.28,-38.31 -7.84,-14.39 -13.97,-29.91 -18.37,-46.57 -4.4,-16.65 -6.6,-33.16 -6.6,-49.53 0,-18.62 2.27,-35.41 6.8,-50.37 4.55,-14.96 10.74,-28.36 18.58,-40.22 7.85,-11.85 17.06,-22.29 27.66,-31.32 10.59,-9.04 21.94,-16.66 34.05,-22.86zm31.79 24.13l-10.74 8.46c4.69,3.67 9.09,7.62 13.22,11.86 4.12,4.23 7.7,8.46 10.73,12.7 -6.88,4.23 -14.04,10.16 -21.47,17.78 -7.43,7.62 -14.24,16.5 -20.43,26.66 -6.19,10.16 -11.28,21.31 -15.28,33.45 -3.99,12.13 -5.97,24.97 -5.97,38.52 0,22.58 4.73,41.84 14.23,57.79 9.5,15.94 22.77,30.83 39.84,44.66l10.73 -8.89c-3.58,-2.83 -7.02,-5.86 -10.32,-9.1 -3.3,-3.25 -6.47,-6.43 -9.49,-9.53 7.7,-4.8 16.1,-10.65 25.17,-17.57 9.09,-6.91 17.55,-15.17 25.4,-24.76 7.84,-9.6 14.44,-20.68 19.81,-33.23 5.36,-12.56 8.04,-27.03 8.04,-43.4 0,-11.57 -2.27,-22.78 -6.8,-33.65 -4.55,-10.87 -10.33,-20.81 -17.34,-29.84 -7.02,-9.04 -14.93,-17.15 -23.73,-24.35 -8.82,-7.19 -17.34,-13.05 -25.6,-17.56z"/>
  <path fill="#FFFFFF" d="M7263.64 2529.25l-75.95 0 0 -98.64c9.08,0 16.93,0.99 23.53,2.97l4.13 -12.7c-10.73,-5.08 -20.36,-7.62 -28.9,-7.62 -10.18,0 -19.13,2.89 -26.83,8.68 -7.71,5.78 -14.1,13.33 -19.19,22.64 -5.09,9.32 -8.88,19.69 -11.35,31.12 -2.48,11.43 -3.72,22.65 -3.72,33.65 0,3.39 0.21,8.47 0.62,15.24 0.41,6.78 0.89,12.7 1.44,17.78l-78.84 -13.12 -15.69 -60.96c1.93,0.56 3.79,0.85 5.57,0.85 1.8,0 3.65,0 5.58,0 10.18,0 19.68,-2.26 28.48,-6.78 8.81,-4.51 16.86,-10.23 24.15,-17.14 7.29,-6.92 13.9,-14.39 19.81,-22.44 5.92,-8.04 11.21,-15.45 15.89,-22.22l-11.14 -8.47 -18.58 19.05c-14.03,-9.31 -25.8,-22.37 -35.29,-39.16 -9.49,-16.79 -14.24,-33.65 -14.24,-50.59 -0.28,-20.6 2.61,-37.67 8.67,-51.22 6.05,-13.54 12.66,-25.96 19.81,-37.25l176.68 0 13.2 27.94c-5.22,7.62 -7.84,15.66 -7.84,24.06l0 244.33zm-75.95 -252.3c4.4,-0.85 8.74,-1.42 13,-1.7 4.27,-0.28 8.6,-0.14 13.01,0.43l0 -12.7c-9.08,-1.42 -17.75,-2.12 -26.01,-2.12 -22.02,0 -38.53,4.44 -49.53,13.33 -11.01,8.89 -16.51,22.93 -16.51,42.13 0,17.49 7.56,32.73 22.7,45.71 15.13,12.99 36.32,21.45 63.56,25.4l4.96 -12.27 -25.18 -9.74 0 -88.47z"/>
  <path fill="#FFFFFF" d="M7486.96 2232.92l12.39 74.08c-7.44,-3.67 -16.1,-5.5 -26,-5.5 -13.49,0 -26.84,4.51 -40.05,13.55 -13.2,9.03 -23.53,23.42 -30.96,43.17 1.66,0.29 3.65,0.85 5.99,1.7 2.34,0.84 4.34,1.69 5.99,2.54 2.2,-4.52 4.54,-8.54 7.02,-12.07 2.47,-3.52 4.95,-6.7 7.43,-9.52 14.57,4.51 26.82,11.08 36.73,19.68 9.91,8.61 17.96,18.49 24.15,29.64 6.19,11.14 10.66,23.35 13.41,36.61 2.76,13.27 4.13,26.82 4.13,40.64 0,10.73 -0.62,21.31 -1.86,31.75 -1.24,10.45 -2.95,20.46 -5.16,30.06l-75.54 0c3.31,-12.14 5.65,-23.64 7.02,-34.5 1.38,-10.87 2.07,-20.96 2.07,-30.27 0,-23.99 -4,-42.76 -11.97,-56.3 -7.99,-13.55 -17.34,-20.32 -28.08,-20.32 -5.5,0 -11.14,0.77 -16.92,2.33 -5.78,1.55 -11.29,3.38 -16.51,5.5 -5.23,2.12 -9.91,4.3 -14.04,6.56 -4.12,2.26 -7.43,4.23 -9.9,5.93l5.36 13.97c4.41,-2.54 8.74,-4.8 13.01,-6.78 4.26,-1.97 8.6,-3.52 13,-4.65l0 118.53 -75.95 0 0 -296.33 75.95 0 0 98.63c-3.58,4.52 -8.4,8.82 -14.44,12.92 -6.06,4.09 -11.71,7.26 -16.93,9.52l5.36 12.28c12.11,-3.95 22.64,-10.51 31.58,-19.69 8.95,-9.17 16.31,-20.25 22.09,-33.23 5.77,-12.98 10.04,-27.51 12.79,-43.6 2.75,-16.09 4.13,-32.74 4.13,-49.95l74.71 13.12z"/>
  <path fill="#FFFFFF" d="M7756.04 2509.35c5.51,-2.82 11.84,-7.48 19,-13.97 7.14,-6.49 14.51,-14.11 22.07,-22.86 7.57,-8.75 15.08,-18.13 22.51,-28.15 7.43,-10.02 14.3,-19.96 20.63,-29.84 3.85,3.67 8.06,7.41 12.59,11.22 4.54,3.81 9.57,7.55 15.07,11.21 -3.03,19.76 -7.29,37.12 -12.8,52.07 -5.5,14.96 -14.17,29.78 -26,44.45l-115.99 0c-19.54,-13.83 -35.23,-33.09 -47.06,-57.78 -11.84,-24.7 -17.76,-53.69 -17.76,-87 0,-16.65 2.9,-33.23 8.67,-49.74 5.78,-16.51 13.49,-31.96 23.12,-46.35 9.63,-14.39 20.71,-27.17 33.23,-38.31 12.52,-11.15 25.52,-19.69 39.01,-25.61l70.58 0c5.79,11.57 15.14,21.59 28.08,30.05 -11.84,14.4 -21.19,31.4 -28.08,51.01 -6.87,19.62 -11.41,39.3 -13.62,59.06 -22.83,-8.75 -42.38,-24.56 -58.61,-47.42 4.4,-10.72 10.52,-20.81 18.37,-30.26 7.84,-9.46 16.03,-17.71 24.56,-24.77l-9.9 -8.89c-18.44,13.83 -33.72,28.72 -45.82,44.66 -12.12,15.95 -18.17,35.07 -18.17,57.36 0,13.83 1.51,26.89 4.54,39.16 3.03,12.28 7.01,23.43 11.97,33.45 4.95,10.01 10.53,18.83 16.72,26.45 6.19,7.62 12.59,13.55 19.19,17.78 -3.02,4.24 -6.81,8.47 -11.35,12.7 -4.54,4.24 -9.43,8.19 -14.66,11.86l9.91 8.46z"/>
  <path fill="#FFFFFF" d="M7885.65 2232.92l0 296.33 75.96 0 0 -123.61c-4.4,-2.26 -8.95,-4.24 -13.62,-5.93 -4.68,-1.69 -9.36,-3.24 -14.04,-4.66l1.66 -14.39c15.13,0 27.92,1.34 38.39,4.02 10.45,2.68 18.43,5.86 23.94,9.53 8.53,-3.67 17.61,-6.85 27.24,-9.53 9.63,-2.68 20.22,-4.02 31.79,-4.02l3.71 14.39c-4.95,1.42 -9.9,3.11 -14.86,5.08 -4.95,1.98 -9.9,3.96 -14.86,5.93l0 123.19 75.95 0 0 -296.33 -75.95 0 0 87.2c9.91,4.24 19.82,7.06 29.72,8.47l-3.71 15.24c-12.94,0 -24.09,-0.99 -33.44,-2.96 -9.36,-1.98 -17.89,-5.22 -25.59,-9.74 -11.56,8.47 -32.34,12.7 -62.33,12.7l-1.66 -15.24c5.51,-0.56 10.6,-1.55 15.28,-2.96 4.67,-1.41 8.81,-2.97 12.38,-4.66l0 -88.05 -75.96 0z"/>
  <path fill="#FFFFFF" d="M8127.55 2232.92l0 296.33 75.96 0 0 -80.43c-4.68,1.97 -9.23,4.51 -13.62,7.62 -4.41,3.1 -8.54,6.35 -12.39,9.73l-6.61 -11c9.64,-9.88 20.3,-18.35 31.99,-25.4 11.71,-7.06 23.33,-12.42 34.88,-16.09 6.33,-13.26 14.86,-26.03 25.6,-38.31 10.74,-12.28 22.56,-23.21 35.5,-32.81l7.02 10.58c-6.33,4.52 -12.12,9.6 -17.34,15.24 -5.23,5.65 -10.46,12.42 -15.68,20.32l0 140.55 75.95 0 0 -296.33 -75.95 0 0 66.04c4.4,-1.69 8.87,-3.95 13.41,-6.77 4.54,-2.83 9.02,-5.93 13.41,-9.32l7.02 10.59c-9.63,7.62 -19.67,14.11 -30.13,19.47 -10.46,5.36 -21.05,9.17 -31.79,11.43 -7.15,18.06 -16.92,34.71 -29.31,49.95 -12.38,15.24 -25.04,26.95 -37.97,35.14l-7.85 -9.74c6.33,-5.36 12.52,-11.08 18.58,-17.14 6.05,-6.07 11.14,-12.92 15.28,-20.54l0 -129.11 -75.96 0z"/>
  <polygon fill="#FFFFFF" points="8364.49,2232.92 8448.7,2232.92 8470.99,2282.45 8461.08,2311.66 8470.58,2327.74 8519.29,2232.92 8603.5,2232.92 8532.5,2352.3 8515.57,2326.05 8506.08,2342.98 8602.67,2529.25 8536.21,2529.25 8494.94,2457.71 8508.97,2431.46 8499.06,2414.95 8431.78,2529.25 8365.32,2529.25 8436.73,2392.51 8454.07,2417.07 8462.74,2403.52 "/>
  <path fill="#FFFFFF" d="M8777.7 2232.92l250.97 0 13.22 27.52c-5.23,7.62 -7.85,15.66 -7.85,24.13l0 77.04c-9.91,-4.23 -21.4,-7.2 -34.46,-8.89 -13.08,-1.69 -26.91,-2.68 -41.5,-2.96l0 -46.99c10.18,-8.47 19.68,-14.54 28.49,-18.2l-3.31 -12.7c-5.22,0 -10.79,1.41 -16.71,4.23 -5.92,2.82 -11.76,6.49 -17.54,11.01 -4.96,-3.96 -9.98,-7.48 -15.07,-10.59 -5.09,-3.1 -9.97,-4.65 -14.65,-4.65l-2.07 12.7c9.09,4.23 17.06,10.44 23.95,18.62l0 226.06 -75.96 0 0 -226.48c4.4,-4.8 8.73,-8.61 13,-11.43 4.26,-2.82 8.6,-5.22 13,-7.2l-3.29 -12.27c-4.41,0 -8.96,1.27 -13.63,3.81 -4.68,2.54 -10.6,6.35 -17.75,11.43 -4.68,-3.67 -10.25,-7.13 -16.72,-10.38 -6.46,-3.24 -12.04,-4.86 -16.72,-4.86l-2.89 12.27c4.68,1.98 9.43,4.52 14.24,7.62 4.82,3.11 9.43,6.49 13.84,10.16l0 47.84c-14.04,0.28 -27.38,1.41 -40.05,3.38 -12.66,1.98 -24.63,4.52 -35.91,7.62l0 -76.19c0,-8.47 -2.62,-16.51 -7.84,-24.13l13.21 -27.52z"/>
  <path fill="#FFFFFF" d="M9228.05 2232.92l19.81 22.44c-0.82,3.66 -1.51,7.33 -2.06,11 -0.56,3.67 -0.27,7.2 0.82,10.59l94.94 252.3 -81.32 0 -11.96 -52.07c7.43,-1.98 15.4,-3.67 23.94,-5.08l-4.13 -16.09c-14.86,0 -29.04,1.2 -42.51,3.6 -13.49,2.4 -25.87,5.86 -37.16,10.37 -11.29,-4.51 -23.67,-7.83 -37.15,-9.94 -13.48,-2.12 -27.39,-3.18 -41.69,-3.18l-4.96 16.09c5.23,0.28 10.18,0.84 14.86,1.69 4.68,0.85 8.95,1.69 12.8,2.54l-15.68 52.07 -79.26 0 88.34 -252.73c1.1,-3.1 1.44,-6.63 1.03,-10.58 -0.42,-3.95 -1.17,-7.48 -2.27,-10.58l19.81 -22.44 83.8 0zm-30.96 38.95l-17.75 0 0 46.98 -29.31 88.06c-8.53,1.13 -17.75,1.97 -27.66,2.54l1.24 15.24c14.59,0 26.49,-1.2 35.71,-3.6 9.22,-2.4 18.91,-5.29 29.1,-8.68 9.63,3.39 19.74,6.35 30.34,8.89 10.6,2.54 21.53,3.67 32.81,3.39l1.24 -15.24c-3.85,0 -8.04,-0.28 -12.59,-0.85 -4.53,-0.56 -9.14,-1.13 -13.83,-1.69l-29.3 -88.06 0 -46.98z"/>
  <path fill="#FFFFFF" d="M9514.94 2232.92l0 296.33 75.96 0 0 -123.61c-4.41,-2.26 -8.95,-4.24 -13.62,-5.93 -4.68,-1.69 -9.36,-3.24 -14.04,-4.66l1.65 -14.39c15.14,0 27.93,1.34 38.39,4.02 10.46,2.68 18.43,5.86 23.94,9.53 8.53,-3.67 17.61,-6.85 27.25,-9.53 9.63,-2.68 20.22,-4.02 31.79,-4.02l3.71 14.39c-4.95,1.42 -9.91,3.11 -14.86,5.08 -4.95,1.98 -9.91,3.96 -14.86,5.93l0 123.19 75.95 0 0 -296.33 -75.95 0 0 87.2c9.91,4.24 19.81,7.06 29.72,8.47l-3.71 15.24c-12.94,0 -24.09,-0.99 -33.44,-2.96 -9.36,-1.98 -17.89,-5.22 -25.6,-9.74 -11.55,8.47 -32.33,12.7 -62.33,12.7l-1.65 -15.24c5.51,-0.56 10.6,-1.55 15.28,-2.96 4.67,-1.41 8.8,-2.97 12.38,-4.66l0 -88.05 -75.96 0z"/>
  <path fill="#FFFFFF" d="M9935.58 2232.92l19.8 22.44c-0.81,3.66 -1.51,7.33 -2.05,11 -0.56,3.67 -0.28,7.2 0.82,10.59l94.94 252.3 -81.32 0 -11.97 -52.07c7.43,-1.98 15.41,-3.67 23.94,-5.08l-4.12 -16.09c-14.86,0 -29.04,1.2 -42.52,3.6 -13.48,2.4 -25.87,5.86 -37.15,10.37 -11.29,-4.51 -23.67,-7.83 -37.15,-9.94 -13.49,-2.12 -27.39,-3.18 -41.7,-3.18l-4.95 16.09c5.23,0.28 10.18,0.84 14.86,1.69 4.68,0.85 8.94,1.69 12.8,2.54l-15.68 52.07 -79.26 0 88.33 -252.73c1.11,-3.1 1.45,-6.63 1.04,-10.58 -0.42,-3.95 -1.17,-7.48 -2.27,-10.58l19.81 -22.44 83.8 0zm-30.96 38.95l-17.76 0 0 46.98 -29.3 88.06c-8.53,1.13 -17.75,1.97 -27.66,2.54l1.24 15.24c14.58,0 26.49,-1.2 35.7,-3.6 9.23,-2.4 18.92,-5.29 29.11,-8.68 9.63,3.39 19.74,6.35 30.34,8.89 10.6,2.54 21.53,3.67 32.81,3.39l1.24 -15.24c-3.85,0 -8.05,-0.28 -12.59,-0.85 -4.53,-0.56 -9.15,-1.13 -13.83,-1.69l-29.3 -88.06 0 -46.98z"/>
  <path fill="#FFFFFF" d="M10061.9 2232.92l250.97 0 13.21 27.52c-5.23,7.62 -7.85,15.66 -7.85,24.13l0 77.04c-9.91,-4.23 -21.39,-7.2 -34.46,-8.89 -13.08,-1.69 -26.9,-2.68 -41.49,-2.96l0 -46.99c10.18,-8.47 19.68,-14.54 28.48,-18.2l-3.3 -12.7c-5.23,0 -10.8,1.41 -16.72,4.23 -5.91,2.82 -11.76,6.49 -17.54,11.01 -4.95,-3.96 -9.97,-7.48 -15.06,-10.59 -5.09,-3.1 -9.98,-4.65 -14.66,-4.65l-2.07 12.7c9.09,4.23 17.07,10.44 23.95,18.62l0 226.06 -75.96 0 0 -226.48c4.41,-4.8 8.74,-8.61 13.01,-11.43 4.26,-2.82 8.6,-5.22 13,-7.2l-3.3 -12.27c-4.41,0 -8.95,1.27 -13.62,3.81 -4.68,2.54 -10.6,6.35 -17.76,11.43 -4.68,-3.67 -10.25,-7.13 -16.71,-10.38 -6.47,-3.24 -12.04,-4.86 -16.72,-4.86l-2.89 12.27c4.68,1.98 9.43,4.52 14.24,7.62 4.81,3.11 9.43,6.49 13.83,10.16l0 47.84c-14.04,0.28 -27.38,1.41 -40.04,3.38 -12.66,1.98 -24.64,4.52 -35.92,7.62l0 -76.19c0,-8.47 -2.61,-16.51 -7.84,-24.13l13.22 -27.52z"/>
  <path fill="#FFFFFF" d="M10511.42 2491.57c-0.83,4.52 -0.9,8.82 -0.21,12.92 0.69,4.09 1.86,8.11 3.51,12.06l-17.75 25.4 -93.7 -12.7 -7.85 -36.83c21.47,-10.16 45.27,-15.24 71.42,-15.24l2.88 -16.09c-17.61,0 -32.67,0.99 -45.19,2.97 -12.52,1.97 -24.7,4.94 -36.54,8.89 -20.92,-25.68 -35.98,-58.28 -45.2,-97.79 -9.22,-39.51 -13.82,-86.93 -13.82,-142.24l66.45 0c0,32.45 1.1,61.17 3.31,86.15 2.2,24.97 6.26,46 12.18,63.07 5.91,17.08 14.16,30.06 24.76,38.95 10.59,8.89 24.28,13.33 41.07,13.33l2.89 -15.24c-4.68,0 -9.35,-0.28 -14.03,-0.84 -4.68,-0.57 -8.4,-1.55 -11.15,-2.97l39.22 -182.45 59.03 0 -41.28 258.65z"/>
  <path fill="#FFFFFF" d="M10576.22 2232.92l187.41 0c4.68,10.72 8.4,21.87 11.15,33.44 2.76,11.57 4.13,22.16 4.13,31.75 0,22.58 -3.51,44.31 -10.53,65.19 -7.01,20.89 -18.23,37.82 -33.64,50.8 -6.88,-1.41 -13.35,-2.11 -19.4,-2.11 -6.88,0 -14.58,0.63 -23.12,1.9 -8.53,1.27 -17.2,3.04 -26,5.29 -8.81,2.26 -17.41,4.94 -25.8,8.05 -8.4,3.1 -16.03,6.49 -22.91,10.16l3.3 13.12c4.4,-1.97 8.73,-3.74 13,-5.29 4.27,-1.55 8.61,-2.89 13,-4.02l0 88.05 -75.95 0 0 -244.68c0,-8.47 -2.61,-16.51 -7.84,-24.13l13.2 -27.52zm39.63 159.17l4.96 12.7c12.38,-5.36 23.95,-11.08 34.67,-17.14 10.74,-6.07 20.09,-12.7 28.07,-19.9 7.98,-7.2 14.24,-15.17 18.79,-23.92 4.54,-8.75 6.81,-18.34 6.81,-28.78 0,-6.21 -0.83,-12.56 -2.48,-19.05 -1.65,-6.5 -4.68,-12.35 -9.08,-17.57 -4.4,-5.22 -10.32,-9.46 -17.75,-12.7 -7.43,-3.25 -16.79,-4.87 -28.07,-4.87 -3.03,0 -7.98,0.14 -14.86,0.42 -6.88,0.28 -12.25,0.71 -16.1,1.27l0 14.82c4.68,-0.28 9.08,-0.5 13.21,-0.64 4.12,-0.14 8.4,-0.21 12.79,-0.21l0 90.17c-5.5,6.21 -10.31,10.94 -14.44,14.18 -4.13,3.25 -9.63,6.99 -16.52,11.22z"/>
  <path fill="#FFFFFF" d="M10975.4 2232.92l19.81 22.44c-0.82,3.66 -1.51,7.33 -2.06,11 -0.55,3.67 -0.27,7.2 0.82,10.59l94.95 252.3 -81.33 0 -11.96 -52.07c7.43,-1.98 15.4,-3.67 23.94,-5.08l-4.13 -16.09c-14.86,0 -29.04,1.2 -42.51,3.6 -13.49,2.4 -25.87,5.86 -37.15,10.37 -11.3,-4.51 -23.68,-7.83 -37.16,-9.94 -13.48,-2.12 -27.39,-3.18 -41.69,-3.18l-4.95 16.09c5.22,0.28 10.18,0.84 14.86,1.69 4.68,0.85 8.94,1.69 12.79,2.54l-15.68 52.07 -79.26 0 88.34 -252.73c1.1,-3.1 1.44,-6.63 1.03,-10.58 -0.42,-3.95 -1.17,-7.48 -2.27,-10.58l19.81 -22.44 83.8 0zm-30.96 38.95l-17.75 0 0 46.98 -29.3 88.06c-8.54,1.13 -17.76,1.97 -27.67,2.54l1.24 15.24c14.59,0 26.49,-1.2 35.71,-3.6 9.22,-2.4 18.92,-5.29 29.11,-8.68 9.62,3.39 19.73,6.35 30.33,8.89 10.6,2.54 21.53,3.67 32.81,3.39l1.24 -15.24c-3.85,0 -8.04,-0.28 -12.59,-0.85 -4.53,-0.56 -9.14,-1.13 -13.82,-1.69l-29.31 -88.06 0 -46.98z"/>
  <path fill="#FFFFFF" d="M11327.1 2529.25l-75.96 0 0 -230.71c4.96,-3.11 9.91,-5.79 14.87,-8.05 4.95,-2.26 9.63,-4.09 14.04,-5.5l-2.9 -13.12c-10.18,0 -20.09,1.41 -29.72,4.23 -9.63,2.82 -18.71,6.49 -27.24,11.01 -6.61,-4.52 -14.93,-8.19 -24.98,-11.01 -10.04,-2.82 -19.88,-4.23 -29.51,-4.23l-2.89 13.12c7.16,1.69 13.55,4.02 19.19,6.98 5.65,2.97 10.67,5.86 15.08,8.68 -5.24,17.22 -8.74,34.01 -10.54,50.38 -1.78,16.37 -2.68,32.59 -2.68,48.68 0,22.3 1.86,44.03 5.57,65.19 3.72,21.17 7.92,44.03 12.6,68.58l-104.85 9.32 0 -81.71 20.22 -4.23 15.69 36.83 15.27 -4.66c-9.91,-24.27 -19.12,-50.87 -27.66,-79.79 -8.53,-28.93 -12.79,-58.78 -12.79,-89.54 0,-14.11 1.03,-28.43 3.09,-42.97 2.07,-14.53 5.72,-29.14 10.94,-43.81l199.79 0 13.22 27.52c-5.23,7.62 -7.85,15.66 -7.85,24.13l0 244.68z"/>
  <path fill="#FFFFFF" d="M11351.03 2232.92l0 296.33 182.05 0c7.15,-11.29 13.14,-25.19 17.96,-41.7 4.82,-16.51 7.21,-37.18 7.21,-62.02 0,-13.82 -1.71,-26.45 -5.15,-37.88 -3.44,-11.43 -8.6,-21.31 -15.48,-29.64 -6.88,-8.32 -15.55,-14.74 -26,-19.26 -10.47,-4.51 -22.57,-6.77 -36.33,-6.77 -10.46,0 -21.88,2.26 -34.26,6.77 -12.39,4.52 -25.74,11.57 -40.04,21.17l-5.37 -11.01c4.95,-3.95 10.04,-7.62 15.28,-11.01 5.22,-3.38 10.59,-6.35 16.1,-8.89l0 -96.09 -75.97 0zm75.97 252.73l0 -86.79c-4.69,1.42 -8.54,3.04 -11.57,4.87 -3.02,1.84 -6.6,4.17 -10.73,6.99l-6.61 -9.32c8.54,-6.77 17.61,-12.48 27.25,-17.14 9.63,-4.66 18.57,-6.99 26.83,-6.99 15.14,0 26.97,4.87 35.51,14.61 8.52,9.74 12.79,20.81 12.79,33.23 0,9.6 -1.58,18.98 -4.75,28.15 -3.17,9.17 -7.98,17.29 -14.45,24.34 -6.47,7.06 -14.44,12.77 -23.94,17.15 -9.5,4.37 -20.57,6.56 -33.23,6.56 -3.58,0 -7.29,-0.14 -11.15,-0.42 -3.85,-0.29 -7.84,-0.71 -11.96,-1.27l0 -12.7c4.4,0.56 8.74,0.7 13,0.42 4.27,-0.28 8.6,-0.85 13.01,-1.69z"/>
  <path fill="#FFFFFF" d="M11574.35 2232.92l0 296.33 75.96 0 0 -123.61c-4.4,-2.26 -8.95,-4.24 -13.62,-5.93 -4.68,-1.69 -9.36,-3.24 -14.04,-4.66l1.66 -14.39c15.13,0 27.93,1.34 38.39,4.02 10.45,2.68 18.43,5.86 23.94,9.53 8.53,-3.67 17.61,-6.85 27.24,-9.53 9.64,-2.68 20.23,-4.02 31.79,-4.02l3.72 14.39c-4.96,1.42 -9.91,3.11 -14.87,5.08 -4.95,1.98 -9.9,3.96 -14.86,5.93l0 123.19 75.95 0 0 -296.33 -75.95 0 0 87.2c9.91,4.24 19.82,7.06 29.73,8.47l-3.72 15.24c-12.94,0 -24.09,-0.99 -33.44,-2.96 -9.36,-1.98 -17.89,-5.22 -25.59,-9.74 -11.56,8.47 -32.34,12.7 -62.33,12.7l-1.66 -15.24c5.51,-0.56 10.6,-1.55 15.28,-2.96 4.67,-1.41 8.81,-2.97 12.38,-4.66l0 -88.05 -75.96 0z"/>
  <path fill="#FFFFFF" d="M11816.25 2232.92l0 296.33 75.96 0 0 -80.43c-4.68,1.97 -9.23,4.51 -13.62,7.62 -4.41,3.1 -8.54,6.35 -12.39,9.73l-6.61 -11c9.64,-9.88 20.3,-18.35 31.99,-25.4 11.71,-7.06 23.33,-12.42 34.88,-16.09 6.33,-13.26 14.87,-26.03 25.6,-38.31 10.74,-12.28 22.56,-23.21 35.5,-32.81l7.02 10.58c-6.33,4.52 -12.12,9.6 -17.34,15.24 -5.23,5.65 -10.45,12.42 -15.68,20.32l0 140.55 75.95 0 0 -296.33 -75.95 0 0 66.04c4.4,-1.69 8.87,-3.95 13.41,-6.77 4.54,-2.83 9.02,-5.93 13.41,-9.32l7.02 10.59c-9.63,7.62 -19.67,14.11 -30.13,19.47 -10.46,5.36 -21.05,9.17 -31.78,11.43 -7.16,18.06 -16.93,34.71 -29.32,49.95 -12.38,15.24 -25.04,26.95 -37.97,35.14l-7.85 -9.74c6.33,-5.36 12.52,-11.08 18.58,-17.14 6.05,-6.07 11.14,-12.92 15.28,-20.54l0 -129.11 -75.96 0z"/>
  <polygon fill="#FFFFFF" points="12053.19,2232.92 12137.4,2232.92 12159.69,2282.45 12149.78,2311.66 12159.28,2327.74 12207.99,2232.92 12292.2,2232.92 12221.2,2352.3 12204.27,2326.05 12194.78,2342.98 12291.37,2529.25 12224.92,2529.25 12183.64,2457.71 12197.67,2431.46 12187.76,2414.95 12120.48,2529.25 12054.02,2529.25 12125.43,2392.51 12142.77,2417.07 12151.44,2403.52 "/>
  <path fill="#FFFFFF" d="M12545.66 2529.25l-75.96 0 0 -244.68c0,-8.47 -2.62,-16.51 -7.84,-24.13l13.21 -27.52 200.2 0 13.21 27.52c-5.23,7.62 -7.85,15.66 -7.85,24.13l0 244.68 -75.95 0 0 -234.52c7.99,-4.8 17.76,-8.61 29.31,-11.43l-3.3 -11.43c-8.25,0 -16.79,0.98 -25.59,2.96 -8.82,1.97 -18.17,6.07 -28.07,12.28 -20.09,-10.16 -39.22,-15.24 -57.38,-15.24l-2.9 11.43c11.84,2.54 21.48,6.77 28.91,12.7l0 233.25z"/>
  <path fill="#FFFFFF" d="M12714.48 2232.92l187.4 0c4.68,10.72 8.4,21.87 11.15,33.44 2.76,11.57 4.13,22.16 4.13,31.75 0,22.58 -3.51,44.31 -10.53,65.19 -7.01,20.89 -18.22,37.82 -33.64,50.8 -6.87,-1.41 -13.35,-2.11 -19.39,-2.11 -6.89,0 -14.59,0.63 -23.12,1.9 -8.54,1.27 -17.21,3.04 -26.01,5.29 -8.81,2.26 -17.41,4.94 -25.8,8.05 -8.4,3.1 -16.03,6.49 -22.91,10.16l3.3 13.12c4.41,-1.97 8.74,-3.74 13.01,-5.29 4.26,-1.55 8.6,-2.89 13,-4.02l0 88.05 -75.96 0 0 -244.68c0,-8.47 -2.61,-16.51 -7.84,-24.13l13.21 -27.52zm39.63 159.17l4.95 12.7c12.38,-5.36 23.95,-11.08 34.67,-17.14 10.74,-6.07 20.09,-12.7 28.08,-19.9 7.97,-7.2 14.23,-15.17 18.78,-23.92 4.54,-8.75 6.81,-18.34 6.81,-28.78 0,-6.21 -0.83,-12.56 -2.47,-19.05 -1.66,-6.5 -4.68,-12.35 -9.09,-17.57 -4.4,-5.22 -10.32,-9.46 -17.75,-12.7 -7.43,-3.25 -16.79,-4.87 -28.07,-4.87 -3.02,0 -7.98,0.14 -14.86,0.42 -6.88,0.28 -12.25,0.71 -16.1,1.27l0 14.82c4.68,-0.28 9.09,-0.5 13.21,-0.64 4.13,-0.14 8.4,-0.21 12.8,-0.21l0 90.17c-5.5,6.21 -10.32,10.94 -14.45,14.18 -4.13,3.25 -9.63,6.99 -16.51,11.22z"/>
  <path fill="#FFFFFF" d="M13017.88 2228.69l73.07 0c13.75,5.64 26.69,13.4 38.8,23.28 12.11,9.88 22.71,21.45 31.78,34.71 9.08,13.27 16.24,28.15 21.47,44.66 5.23,16.51 7.85,34.22 7.85,53.13 0,16.65 -2.69,32.6 -8.06,47.84 -5.36,15.24 -12.59,29.28 -21.67,42.12 -9.08,12.84 -19.67,24.34 -31.78,34.5 -12.11,10.16 -25.04,18.34 -38.8,24.55l-70.59 0c-12.94,-5.92 -24.91,-14.46 -35.91,-25.61 -11.01,-11.15 -20.44,-23.92 -28.28,-38.31 -7.84,-14.39 -13.97,-29.91 -18.37,-46.57 -4.4,-16.65 -6.61,-33.16 -6.61,-49.53 0,-18.62 2.28,-35.41 6.81,-50.37 4.55,-14.96 10.74,-28.36 18.58,-40.22 7.85,-11.85 17.06,-22.29 27.66,-31.32 10.59,-9.04 21.94,-16.66 34.05,-22.86zm31.79 24.13l-10.74 8.46c4.68,3.67 9.09,7.62 13.22,11.86 4.12,4.23 7.7,8.46 10.73,12.7 -6.88,4.23 -14.04,10.16 -21.47,17.78 -7.43,7.62 -14.24,16.5 -20.43,26.66 -6.19,10.16 -11.28,21.31 -15.28,33.45 -3.99,12.13 -5.98,24.97 -5.98,38.52 0,22.58 4.74,41.84 14.24,57.79 9.5,15.94 22.77,30.83 39.83,44.66l10.74 -8.89c-3.58,-2.83 -7.02,-5.86 -10.32,-9.1 -3.3,-3.25 -6.47,-6.43 -9.49,-9.53 7.7,-4.8 16.1,-10.65 25.17,-17.57 9.09,-6.91 17.55,-15.17 25.4,-24.76 7.84,-9.6 14.44,-20.68 19.81,-33.23 5.36,-12.56 8.04,-27.03 8.04,-43.4 0,-11.57 -2.27,-22.78 -6.8,-33.65 -4.55,-10.87 -10.33,-20.81 -17.34,-29.84 -7.02,-9.04 -14.93,-17.15 -23.73,-24.35 -8.82,-7.19 -17.34,-13.05 -25.6,-17.56z"/>
  <path fill="#FFFFFF" d="M13463.7 2490.3l30.55 0c2.2,11.86 3.99,23.99 5.36,36.41 1.38,12.42 2.07,25.26 2.07,38.52 0,4.52 -0.07,9.1 -0.2,13.76 -0.15,4.66 -0.36,9.24 -0.63,13.76l-73.06 16.09c-1.38,-11.57 -2.89,-20.96 -4.55,-28.16 -1.65,-7.19 -4.8,-16.43 -9.48,-27.72l25.58 -8.47 -2.06 -15.24c-14.58,0 -29.17,1.76 -43.75,5.29 -14.59,3.53 -29.04,7.55 -43.34,12.07 -12.67,-3.95 -25.6,-7.84 -38.81,-11.65 -13.2,-3.81 -27.79,-5.71 -43.75,-5.71l-2.07 15.24 28.9 5.93c-4.68,11.29 -8.4,20.95 -11.14,28.99 -2.76,8.05 -4.82,17.86 -6.2,29.43l-73.06 -16.09c-0.28,-4.52 -0.49,-9.1 -0.63,-13.76 -0.13,-4.66 -0.2,-9.24 -0.2,-13.76 0,-13.26 0.69,-26.1 2.07,-38.52 1.37,-12.42 3.16,-24.55 5.36,-36.41l30.55 0c7.15,-20.32 12.73,-39.93 16.71,-58.84 3.99,-18.91 5.99,-36.41 5.99,-52.49 0,-18.35 -2.54,-34.5 -7.63,-48.47 -5.09,-13.97 -13.15,-25.19 -24.16,-33.66l17.76 -63.92 208.04 0 13.62 27.52c-2.19,3.1 -4.06,6.2 -5.57,9.31 -1.51,3.1 -2.27,6.63 -2.27,10.58l0 209.97zm-113.51 -203.19c-9.64,-3.96 -19.47,-7.48 -29.52,-10.59 -10.04,-3.1 -19.88,-4.65 -29.51,-4.65l-3.31 13.54c6.61,1.98 12.32,3.67 17.13,5.08 4.82,1.41 8.88,3.25 12.18,5.51 3.58,15.8 6.12,30.12 7.64,42.96 1.51,12.84 2.27,27.17 2.27,42.97 0,15.52 -0.63,30.69 -1.86,45.51 -1.24,14.82 -3.5,29.99 -6.81,45.51 -4.41,2.82 -9.57,4.94 -15.49,6.35 -5.9,1.41 -12.03,2.82 -18.36,4.23l3.3 13.97c10.18,0 20.02,-1.41 29.52,-4.23 9.49,-2.83 20.43,-6.64 32.82,-11.43 10.72,3.95 21.26,7.55 31.57,10.79 10.32,3.25 20.99,4.87 32,4.87l3.29 -12.7c-5.23,-1.41 -10.25,-2.82 -15.06,-4.23 -4.82,-1.41 -9.56,-3.81 -14.24,-7.2l0 -177.37c9.63,-5.37 19.81,-8.89 30.54,-10.59l-4.53 -13.54c-11.01,0 -21.68,1.62 -32,4.86 -10.31,3.25 -20.85,6.71 -31.57,10.38z"/>
  <path fill="#FFFFFF" d="M13695.69 2491.57c-0.83,4.52 -0.9,8.82 -0.21,12.92 0.69,4.09 1.86,8.11 3.51,12.06l-17.75 25.4 -93.7 -12.7 -7.85 -36.83c21.47,-10.16 45.27,-15.24 71.42,-15.24l2.88 -16.09c-17.61,0 -32.67,0.99 -45.19,2.97 -12.52,1.97 -24.7,4.94 -36.54,8.89 -20.92,-25.68 -35.98,-58.28 -45.2,-97.79 -9.22,-39.51 -13.82,-86.93 -13.82,-142.24l66.45 0c0,32.45 1.1,61.17 3.3,86.15 2.21,24.97 6.26,46 12.18,63.07 5.92,17.08 14.17,30.06 24.77,38.95 10.59,8.89 24.28,13.33 41.07,13.33l2.89 -15.24c-4.68,0 -9.35,-0.28 -14.03,-0.84 -4.68,-0.57 -8.4,-1.55 -11.15,-2.97l39.22 -182.45 59.02 0 -41.27 258.65z"/>
  <path fill="#FFFFFF" d="M13950.38 2232.92l12.38 74.08c-7.43,-3.67 -16.1,-5.5 -26,-5.5 -13.48,0 -26.83,4.51 -40.04,13.55 -13.21,9.03 -23.53,23.42 -30.96,43.17 1.65,0.29 3.64,0.85 5.98,1.7 2.34,0.84 4.34,1.69 5.99,2.54 2.2,-4.52 4.54,-8.54 7.02,-12.07 2.48,-3.52 4.95,-6.7 7.43,-9.52 14.58,4.51 26.83,11.08 36.73,19.68 9.91,8.61 17.97,18.49 24.16,29.64 6.19,11.14 10.65,23.35 13.4,36.61 2.76,13.27 4.14,26.82 4.14,40.64 0,10.73 -0.62,21.31 -1.86,31.75 -1.24,10.45 -2.96,20.46 -5.16,30.06l-75.54 0c3.3,-12.14 5.64,-23.64 7.02,-34.5 1.37,-10.87 2.06,-20.96 2.06,-30.27 0,-23.99 -3.99,-42.76 -11.97,-56.3 -7.99,-13.55 -17.34,-20.32 -28.07,-20.32 -5.5,0 -11.15,0.77 -16.92,2.33 -5.78,1.55 -11.29,3.38 -16.52,5.5 -5.23,2.12 -9.91,4.3 -14.03,6.56 -4.13,2.26 -7.43,4.23 -9.91,5.93l5.37 13.97c4.4,-2.54 8.73,-4.8 13,-6.78 4.26,-1.97 8.6,-3.52 13,-4.65l0 118.53 -75.95 0 0 -296.33 75.95 0 0 98.63c-3.58,4.52 -8.39,8.82 -14.44,12.92 -6.06,4.09 -11.7,7.26 -16.93,9.52l5.37 12.28c12.11,-3.95 22.64,-10.51 31.58,-19.69 8.94,-9.17 16.3,-20.25 22.08,-33.23 5.78,-12.98 10.05,-27.51 12.8,-43.6 2.75,-16.09 4.12,-32.74 4.12,-49.95l74.72 13.12z"/>
  <path fill="#FFFFFF" d="M13994.97 2232.92l250.97 0 13.21 27.52c-5.22,7.62 -7.85,15.66 -7.85,24.13l0 77.04c-9.9,-4.23 -21.39,-7.2 -34.46,-8.89 -13.07,-1.69 -26.9,-2.68 -41.49,-2.96l0 -46.99c10.18,-8.47 19.68,-14.54 28.49,-18.2l-3.31 -12.7c-5.23,0 -10.79,1.41 -16.71,4.23 -5.92,2.82 -11.76,6.49 -17.55,11.01 -4.95,-3.96 -9.97,-7.48 -15.06,-10.59 -5.09,-3.1 -9.98,-4.65 -14.66,-4.65l-2.06 12.7c9.08,4.23 17.06,10.44 23.94,18.62l0 226.06 -75.96 0 0 -226.48c4.41,-4.8 8.74,-8.61 13.01,-11.43 4.26,-2.82 8.6,-5.22 13,-7.2l-3.3 -12.27c-4.4,0 -8.95,1.27 -13.62,3.81 -4.68,2.54 -10.6,6.35 -17.76,11.43 -4.68,-3.67 -10.24,-7.13 -16.71,-10.38 -6.46,-3.24 -12.04,-4.86 -16.72,-4.86l-2.89 12.27c4.68,1.98 9.43,4.52 14.24,7.62 4.82,3.11 9.43,6.49 13.84,10.16l0 47.84c-14.05,0.28 -27.39,1.41 -40.05,3.38 -12.66,1.98 -24.63,4.52 -35.92,7.62l0 -76.19c0,-8.47 -2.61,-16.51 -7.84,-24.13l13.22 -27.52z"/>
  <path fill="#FFFFFF" d="M14385.4 2280.33c0,-3.95 -0.76,-7.48 -2.27,-10.58 -1.51,-3.11 -3.38,-6.21 -5.58,-9.31l13.62 -27.52 165.54 0c8.53,7.62 14.79,16.16 18.78,25.61 3.99,9.45 5.98,19.12 5.98,29 0,14.11 -4.2,28.29 -12.58,42.54 -8.4,14.26 -20.58,26.88 -36.54,37.89l7.85 11.43c4.67,-2.54 8.73,-4.87 12.17,-6.98 3.44,-2.12 7.22,-4.59 11.36,-7.41 7.97,7.62 14.78,17.78 20.43,30.48 5.64,12.7 8.46,27.66 8.46,44.87 0,6.77 -0.62,14.11 -1.86,22.01 -1.24,7.91 -3.03,15.88 -5.37,23.92 -2.34,8.05 -5.02,15.81 -8.05,23.29 -3.02,7.47 -6.33,14.04 -9.9,19.68l-176.27 0 -13.62 -27.52c5.24,-7.62 7.85,-15.66 7.85,-24.13l0 -197.27zm49.94 94.4c9.36,-4.23 18.58,-9.17 27.66,-14.81 9.09,-5.65 17.13,-11.64 24.15,-17.99 7.01,-6.35 12.66,-13.06 16.92,-20.11 4.27,-7.06 6.41,-14.39 6.41,-22.01 0,-9.88 -3.72,-18.35 -11.15,-25.4 -7.43,-7.06 -18.44,-10.59 -33.03,-10.59 -4.95,0 -10.24,0.5 -15.89,1.48 -5.64,0.99 -11.62,2.47 -17.95,4.45l2.88 12.28c8.81,-2.54 17.48,-3.39 26.01,-2.54l0 55.87c-3.58,5.37 -8.26,10.45 -14.03,15.24 -5.78,4.8 -11.57,9.18 -17.34,13.13l5.36 11zm26.01 110.92c-4.41,0.84 -8.74,1.41 -13.01,1.69 -4.26,0.28 -8.6,0.14 -13,-0.42l0 12.7c4.13,0.56 8.12,0.98 11.98,1.27 3.85,0.28 7.57,0.42 11.14,0.42 12.66,0 23.6,-2.12 32.82,-6.35 9.22,-4.23 16.79,-9.67 22.7,-16.3 5.92,-6.63 10.26,-13.83 13.01,-21.59 2.75,-7.76 4.12,-15.17 4.12,-22.22 0,-6.21 -1.1,-12.21 -3.3,-17.99 -2.2,-5.79 -5.37,-10.87 -9.49,-15.24 -4.13,-4.38 -9.23,-7.91 -15.27,-10.59 -6.06,-2.68 -12.81,-4.02 -20.24,-4.02 -8.25,0 -17.13,2.33 -26.62,6.99 -9.49,4.65 -18.64,10.37 -27.45,17.14l6.6 9.31c4.13,-2.82 8.33,-5.15 12.59,-6.98 4.27,-1.84 8.74,-3.32 13.42,-4.45l0 76.63z"/>
  <polygon fill="#FFFFFF" points="7546.41,2529.25 7546.41,2226.15 7606.27,2226.15 7606.27,2529.25 "/>
  <polygon fill="#FFFFFF" points="14281.85,2529.25 14281.85,2226.15 14341.71,2226.15 14341.71,2529.25 "/>
 </g>
</svg>
