<?xml version="1.0" encoding="UTF-8"?>
<svg xmlns="http://www.w3.org/2000/svg" xml:space="preserve" version="1.1" viewBox="0 0 15000 3000">
 <g>
  <polygon fill="#FFFFFF" points="3133.88,2707.07 343.18,2707.07 765.03,1981.49 2712.03,1981.49 "/>
  <polygon fill="#FFFFFF" points="2647.12,1869.86 829.93,1869.86 1251.78,1144.28 2225.28,1144.28 "/>
  <polygon fill="#FFFFFF" points="2160.38,1032.65 1316.68,1032.65 1738.53,307.07 "/>
  <path fill="#FFFFFF" d="M3929.07 1750.99c24.97,-11.29 53.67,-29.91 86.13,-55.88 32.45,-25.96 65.83,-56.44 100.16,-91.44 34.32,-34.99 68.34,-72.53 102.03,-112.6 33.7,-40.08 64.9,-79.87 93.61,-119.38 17.47,14.67 36.5,29.63 57.1,44.87 20.59,15.24 43.37,30.2 68.33,44.87 -13.72,79.03 -33.07,148.45 -58.04,208.28 -24.96,59.83 -64.28,119.1 -117.94,177.8l-526.07 0c-88.62,-55.31 -159.76,-132.36 -213.43,-231.14 -53.68,-98.77 -80.51,-214.77 -80.51,-347.98 0,-66.6 13.11,-132.92 39.32,-198.96 26.21,-66.04 61.16,-127.85 104.84,-185.42 43.68,-57.57 93.92,-108.66 150.71,-153.25 56.79,-44.59 115.76,-78.74 176.91,-102.44l320.14 0c26.22,46.28 68.65,86.36 127.32,120.22 -53.67,57.58 -96.12,125.59 -127.32,204.05 -31.2,78.46 -51.79,157.2 -61.78,236.22 -103.59,-35 -192.21,-98.22 -265.84,-189.66 19.97,-42.89 47.74,-83.25 83.31,-121.07 35.58,-37.82 72.7,-70.84 111.4,-99.06l-44.93 -35.56c-83.63,55.32 -152.9,114.87 -207.81,178.65 -54.93,63.78 -82.38,140.26 -82.38,229.44 0,55.32 6.86,107.53 20.6,156.64 13.72,49.1 31.81,93.7 54.28,133.77 22.47,40.08 47.74,75.35 75.82,105.83 28.09,30.48 57.11,54.19 87.06,71.12 -13.73,16.94 -30.89,33.87 -51.48,50.8 -20.6,16.94 -42.75,32.74 -66.47,47.42l44.93 33.86z"/>
  <path fill="#FFFFFF" d="M4893.23 628.32l331.37 0c62.41,22.57 121.07,53.62 175.99,93.13 54.92,39.51 102.97,85.79 144.15,138.85 41.19,53.06 73.65,112.61 97.35,178.65 23.72,66.04 35.58,136.88 35.58,212.51 0,66.61 -12.17,130.39 -36.51,191.35 -24.34,60.96 -57.1,117.12 -98.29,168.48 -41.19,51.37 -89.24,97.37 -144.16,138.01 -54.91,40.64 -113.57,73.38 -175.98,98.21l-320.14 0c-58.66,-23.7 -112.96,-57.85 -162.87,-102.44 -49.93,-44.59 -92.68,-95.68 -128.24,-153.25 -35.58,-57.57 -63.34,-119.66 -83.32,-186.27 -19.97,-66.6 -29.95,-132.64 -29.95,-198.12 0,-74.5 10.29,-141.67 30.89,-201.5 20.6,-59.83 48.68,-113.45 84.25,-160.87 35.56,-47.41 77.38,-89.18 125.43,-125.3 48.05,-36.13 99.53,-66.61 154.45,-91.44zm144.16 96.52l-48.68 33.86c21.22,14.68 41.2,30.48 59.91,47.42 18.72,16.93 34.95,33.86 48.68,50.8 -31.21,16.93 -63.66,40.64 -97.36,71.12 -33.7,30.48 -64.59,66.03 -92.67,106.67 -28.08,40.64 -51.17,85.24 -69.26,133.78 -18.1,48.54 -27.15,99.9 -27.15,154.09 0,90.31 21.53,167.36 64.59,231.14 43.05,63.78 103.28,123.33 180.66,178.65l48.68 -35.56c-16.23,-11.29 -31.83,-23.43 -46.8,-36.41 -14.98,-12.98 -29.33,-25.68 -43.07,-38.1 34.95,-19.19 73.02,-42.62 114.2,-70.27 41.2,-27.66 79.57,-60.68 115.14,-99.06 35.58,-38.38 65.53,-82.69 89.86,-132.93 24.35,-50.23 36.51,-108.09 36.51,-173.57 0,-46.28 -10.29,-91.15 -30.89,-134.62 -20.59,-43.46 -46.8,-83.25 -78.63,-119.37 -31.82,-36.13 -67.71,-68.58 -107.64,-97.37 -39.95,-28.79 -78.63,-52.21 -116.08,-70.27z"/>
  <path fill="#FFFFFF" d="M6246.8 1750.99c24.97,-11.29 53.67,-29.91 86.13,-55.88 32.45,-25.96 65.83,-56.44 100.16,-91.44 34.32,-34.99 68.33,-72.53 102.03,-112.6 33.7,-40.08 64.9,-79.87 93.6,-119.38 17.48,14.67 36.51,29.63 57.11,44.87 20.59,15.24 43.37,30.2 68.33,44.87 -13.72,79.03 -33.07,148.45 -58.04,208.28 -24.96,59.83 -64.28,119.1 -117.94,177.8l-526.07 0c-88.62,-55.31 -159.76,-132.36 -213.43,-231.14 -53.68,-98.77 -80.51,-214.77 -80.51,-347.98 0,-66.6 13.11,-132.92 39.31,-198.96 26.22,-66.04 61.17,-127.85 104.85,-185.42 43.68,-57.57 93.92,-108.66 150.7,-153.25 56.8,-44.59 115.77,-78.74 176.92,-102.44l320.14 0c26.22,46.28 68.65,86.36 127.31,120.22 -53.66,57.58 -96.11,125.59 -127.31,204.05 -31.2,78.46 -51.79,157.2 -61.78,236.22 -103.59,-35 -192.21,-98.22 -265.84,-189.66 19.97,-42.89 47.74,-83.25 83.31,-121.07 35.58,-37.82 72.7,-70.84 111.4,-99.06l-44.93 -35.56c-83.63,55.32 -152.9,114.87 -207.81,178.65 -54.93,63.78 -82.38,140.26 -82.38,229.44 0,55.32 6.86,107.53 20.59,156.64 13.72,49.1 31.82,93.7 54.29,133.77 22.47,40.08 47.74,75.35 75.82,105.83 28.08,30.48 57.11,54.19 87.06,71.12 -13.73,16.94 -30.89,33.87 -51.48,50.8 -20.6,16.94 -42.75,32.74 -66.47,47.42l44.93 33.86z"/>
  <path fill="#FFFFFF" d="M6834.65 645.25l0 1185.33 344.49 0 0 -494.45c-19.98,-9.03 -40.56,-16.94 -61.78,-23.71 -21.23,-6.77 -42.45,-12.98 -63.66,-18.63l7.49 -57.57c68.64,0 126.68,5.36 174.12,16.09 47.41,10.72 83.61,23.42 108.58,38.1 38.68,-14.68 79.88,-27.38 123.56,-38.1 43.68,-10.73 91.73,-16.09 144.16,-16.09l16.85 57.57c-22.47,5.65 -44.93,12.42 -67.4,20.32 -22.46,7.91 -44.93,15.81 -67.4,23.71l0 492.76 344.48 0 0 -1185.33 -344.48 0 0 348.82c44.94,16.94 89.87,28.23 134.8,33.87l-16.85 60.96c-58.66,0 -109.21,-3.95 -151.65,-11.85 -42.44,-7.9 -81.13,-20.89 -116.07,-38.95 -52.42,33.87 -146.66,50.8 -282.7,50.8l-7.49 -60.96c24.96,-2.26 48.05,-6.21 69.28,-11.85 21.21,-5.65 39.93,-11.86 56.16,-18.63l0 -352.21 -344.49 0z"/>
  <path fill="#FFFFFF" d="M8308.04 628.32l331.38 0c62.41,22.57 121.06,53.62 175.99,93.13 54.91,39.51 102.96,85.79 144.15,138.85 41.18,53.06 73.64,112.61 97.34,178.65 23.72,66.04 35.58,136.88 35.58,212.51 0,66.61 -12.17,130.39 -36.5,191.35 -24.35,60.96 -57.11,117.12 -98.29,168.48 -41.2,51.37 -89.25,97.37 -144.16,138.01 -54.92,40.64 -113.58,73.38 -175.98,98.21l-320.14 0c-58.67,-23.7 -112.96,-57.85 -162.88,-102.44 -49.93,-44.59 -92.67,-95.68 -128.24,-153.25 -35.58,-57.57 -63.34,-119.66 -83.32,-186.27 -19.97,-66.6 -29.95,-132.64 -29.95,-198.12 0,-74.5 10.29,-141.67 30.89,-201.5 20.6,-59.83 48.68,-113.45 84.25,-160.87 35.57,-47.41 77.38,-89.18 125.43,-125.3 48.05,-36.13 99.54,-66.61 154.45,-91.44zm144.16 96.52l-48.68 33.86c21.22,14.68 41.2,30.48 59.92,47.42 18.71,16.93 34.94,33.86 48.68,50.8 -31.22,16.93 -63.67,40.64 -97.36,71.12 -33.7,30.48 -64.59,66.03 -92.68,106.67 -28.08,40.64 -51.16,85.24 -69.26,133.78 -18.1,48.54 -27.14,99.9 -27.14,154.09 0,90.31 21.52,167.36 64.58,231.14 43.06,63.78 103.28,123.33 180.66,178.65l48.68 -35.56c-16.23,-11.29 -31.83,-23.43 -46.8,-36.41 -14.98,-12.98 -29.33,-25.68 -43.06,-38.1 34.95,-19.19 73.01,-42.62 114.2,-70.27 41.19,-27.66 79.57,-60.68 115.13,-99.06 35.58,-38.38 65.53,-82.69 89.87,-132.93 24.34,-50.23 36.5,-108.09 36.5,-173.57 0,-46.28 -10.29,-91.15 -30.89,-134.62 -20.58,-43.46 -46.8,-83.25 -78.63,-119.37 -31.82,-36.13 -67.7,-68.58 -107.64,-97.37 -39.94,-28.79 -78.63,-52.21 -116.08,-70.27z"/>
  <path fill="#FFFFFF" d="M9180.48 834.9c0,-15.8 -3.44,-29.91 -10.31,-42.33 -6.86,-12.42 -15.29,-24.84 -25.27,-37.25l61.78 -110.07 750.74 0c38.69,30.48 67.09,64.63 85.19,102.45 18.09,37.81 27.14,76.48 27.14,115.99 0,56.44 -19.04,113.17 -57.1,170.18 -38.07,57.01 -93.29,107.52 -165.69,151.55l35.58 45.72c21.22,-10.16 39.62,-19.47 55.22,-27.94 15.6,-8.47 32.76,-18.34 51.49,-29.63 36.19,30.48 67.08,71.12 92.66,121.92 25.6,50.8 38.39,110.63 38.39,179.49 0,27.09 -2.81,56.45 -8.43,88.05 -5.61,31.61 -13.73,63.5 -24.34,95.68 -10.6,32.17 -22.78,63.21 -36.5,93.13 -13.73,29.92 -28.71,56.16 -44.93,78.74l-799.42 0 -61.78 -110.07c23.71,-30.48 35.58,-62.65 35.58,-96.52l0 -789.09zm226.53 377.61c42.43,-16.93 84.24,-36.68 125.43,-59.26 41.19,-22.58 77.7,-46.57 109.52,-71.97 31.83,-25.4 57.41,-52.21 76.76,-80.43 19.35,-28.22 29.02,-57.57 29.02,-88.05 0,-39.52 -16.85,-73.38 -50.55,-101.6 -33.69,-28.23 -83.62,-42.34 -149.77,-42.34 -22.47,0 -46.49,1.98 -72.08,5.93 -25.59,3.95 -52.73,9.88 -81.44,17.78l13.11 49.11c39.93,-10.16 79.25,-13.55 117.94,-10.16l0 223.51c-16.23,21.45 -37.45,41.77 -63.65,60.96 -26.21,19.2 -52.43,36.69 -78.63,52.5l24.34 44.02zm117.94 443.66c-19.97,3.38 -39.62,5.64 -58.97,6.77 -19.35,1.13 -39.01,0.56 -58.97,-1.69l0 50.8c18.71,2.25 36.81,3.95 54.29,5.08 17.47,1.13 34.32,1.69 50.55,1.69 57.4,0 107.02,-8.47 148.84,-25.4 41.8,-16.93 76.13,-38.66 102.96,-65.19 26.84,-26.53 46.49,-55.32 58.98,-86.36 12.48,-31.05 18.71,-60.68 18.71,-88.9 0,-24.84 -4.98,-48.83 -14.97,-71.97 -9.99,-23.14 -24.34,-43.46 -43.06,-60.96 -18.72,-17.5 -41.81,-31.61 -69.27,-42.33 -27.46,-10.73 -58.04,-16.09 -91.74,-16.09 -37.44,0 -77.69,9.31 -120.75,27.94 -43.06,18.63 -84.56,41.49 -124.5,68.58l29.96 37.25c18.71,-11.28 37.75,-20.6 57.1,-27.94 19.34,-7.33 39.63,-13.26 60.84,-17.78l0 306.5z"/>
  <path fill="#FFFFFF" d="M10706.28 1750.99c24.97,-11.29 53.67,-29.91 86.13,-55.88 32.45,-25.96 65.83,-56.44 100.16,-91.44 34.31,-34.99 68.33,-72.53 102.03,-112.6 33.7,-40.08 64.9,-79.87 93.6,-119.38 17.48,14.67 36.51,29.63 57.11,44.87 20.58,15.24 43.37,30.2 68.32,44.87 -13.72,79.03 -33.06,148.45 -58.03,208.28 -24.96,59.83 -64.28,119.1 -117.95,177.8l-526.07 0c-88.61,-55.31 -159.76,-132.36 -213.42,-231.14 -53.68,-98.77 -80.51,-214.77 -80.51,-347.98 0,-66.6 13.11,-132.92 39.31,-198.96 26.22,-66.04 61.17,-127.85 104.85,-185.42 43.68,-57.57 93.92,-108.66 150.7,-153.25 56.8,-44.59 115.77,-78.74 176.92,-102.44l320.14 0c26.22,46.28 68.65,86.36 127.31,120.22 -53.66,57.58 -96.11,125.59 -127.31,204.05 -31.2,78.46 -51.8,157.2 -61.78,236.22 -103.59,-35 -192.21,-98.22 -265.84,-189.66 19.97,-42.89 47.74,-83.25 83.31,-121.07 35.57,-37.82 72.7,-70.84 111.4,-99.06l-44.94 -35.56c-83.62,55.32 -152.89,114.87 -207.81,178.65 -54.92,63.78 -82.37,140.26 -82.37,229.44 0,55.32 6.86,107.53 20.59,156.64 13.72,49.1 31.82,93.7 54.29,133.77 22.46,40.08 47.74,75.35 75.82,105.83 28.08,30.48 57.11,54.19 87.06,71.12 -13.74,16.94 -30.89,33.87 -51.48,50.8 -20.6,16.94 -42.75,32.74 -66.47,47.42l44.93 33.86z"/>
  <path fill="#FFFFFF" d="M12194.64 645.25l56.16 296.33c-33.69,-14.67 -73,-22.01 -117.93,-22.01 -61.16,0 -121.69,18.06 -181.61,54.18 -59.9,36.13 -106.71,93.7 -140.41,172.72 7.5,1.13 16.54,3.39 27.15,6.78 10.61,3.38 19.66,6.77 27.15,10.16 9.98,-18.06 20.59,-34.15 31.83,-48.26 11.23,-14.11 22.46,-26.81 33.7,-38.1 66.14,18.06 121.68,44.31 166.61,78.74 44.93,34.43 81.44,73.94 109.52,118.53 28.09,44.59 48.37,93.42 60.84,146.47 12.49,53.06 18.73,107.25 18.73,162.56 0,42.9 -2.8,85.23 -8.42,127 -5.62,41.77 -13.42,81.85 -23.41,120.23l-342.6 0c14.98,-48.54 25.58,-94.54 31.83,-138.01 6.23,-43.46 9.36,-83.82 9.36,-121.07 0,-95.95 -18.1,-171.03 -54.29,-225.21 -36.2,-54.19 -78.63,-81.28 -127.31,-81.28 -24.97,0 -50.55,3.1 -76.76,9.31 -26.21,6.21 -51.17,13.55 -74.89,22.01 -23.72,8.47 -44.93,17.22 -63.65,26.25 -18.72,9.03 -33.7,16.93 -44.93,23.71l24.33 55.88c19.97,-10.16 39.63,-19.19 58.98,-27.1 19.34,-7.9 39,-14.11 58.97,-18.62l0 474.13 -344.48 0 0 -1185.33 344.48 0 0 394.54c-16.22,18.07 -38.07,35.28 -65.52,51.65 -27.46,16.37 -53.05,29.07 -76.76,38.1l24.33 49.11c54.92,-15.81 102.66,-42.05 143.22,-78.74 40.57,-36.69 73.96,-81 100.17,-132.93 26.2,-51.93 45.55,-110.06 58.03,-174.41 12.49,-64.35 18.72,-130.95 18.72,-199.81l338.86 52.49z"/>
  <path fill="#FFFFFF" d="M12394.97 645.25l0 1185.33 344.48 0 0 -321.73c-21.23,7.9 -41.81,18.06 -61.78,30.48 -19.98,12.41 -38.7,25.4 -56.17,38.94l-29.96 -44.02c43.68,-39.51 92.05,-73.38 145.1,-101.6 53.04,-28.22 105.78,-49.67 158.19,-64.35 28.71,-53.06 67.4,-104.14 116.08,-153.25 48.68,-49.1 102.35,-92.85 161.01,-131.23l31.82 42.33c-28.7,18.07 -54.92,38.39 -78.63,60.96 -23.72,22.58 -47.43,49.68 -71.14,81.28l0 562.19 344.48 0 0 -1185.33 -344.48 0 0 264.16c19.97,-6.77 40.25,-15.81 60.85,-27.09 20.59,-11.29 40.87,-23.71 60.84,-37.26l31.83 42.34c-43.69,30.48 -89.25,56.44 -136.67,77.89 -47.43,21.45 -95.48,36.69 -144.16,45.72 -32.45,72.25 -76.76,138.85 -132.92,199.81 -56.17,60.96 -113.58,107.81 -172.24,140.55l-35.57 -38.95c28.71,-21.45 56.79,-44.31 84.24,-68.58 27.47,-24.27 50.55,-51.65 69.28,-82.13l0 -516.46 -344.48 0z"/>
  <path fill="#FFFFFF" d="M13492.05 645.25l0 1185.33 344.48 0 0 -321.73c-41.19,14.67 -79.26,36.12 -114.21,64.34l-39.31 -37.25c43.68,-38.38 92.98,-72.25 147.91,-101.6 54.91,-29.35 108.58,-51.36 161,-66.04 28.71,-53.06 67.39,-104.14 116.07,-153.25 48.68,-49.1 102.35,-92.85 161.01,-131.23l31.82 42.33c-28.7,18.07 -54.91,38.39 -78.63,60.96 -23.71,22.58 -47.43,49.68 -71.13,81.28l0 562.19 344.47 0 0 -1185.33 -241.51 -49.11 -102.96 66.04 0 247.23c19.96,-6.77 40.24,-16.09 60.84,-27.94 20.6,-11.85 40.87,-24.55 60.84,-38.1l31.83 44.03c-43.68,30.48 -89.24,56.44 -136.66,77.89 -47.43,21.45 -95.48,36.69 -144.16,45.72 -32.45,72.25 -76.77,138.85 -132.93,199.81 -56.17,60.96 -113.58,107.81 -172.23,140.55l-33.7 -38.95c28.7,-21.45 56.47,-44.31 83.31,-68.58 26.83,-24.27 49.6,-51.65 68.33,-82.13l0 -499.53 -119.82 -67.73 -224.66 50.8zm872.43 -182.88l-31.83 -247.23 -303.29 0 0 193.04c17.47,-11.29 36.51,-21.73 57.11,-31.32 20.58,-9.6 42.12,-17.78 64.59,-24.56l24.33 57.58c-66.15,23.7 -126.68,54.18 -181.59,91.44 -21.23,-16.94 -48.38,-34.72 -81.44,-53.34 -33.08,-18.63 -65.22,-33.59 -96.42,-44.88l20.59 -54.18c21.22,7.9 42.13,16.37 62.71,25.4 20.6,9.03 40.26,19.19 58.98,30.48l0 -189.66 -303.29 0 -33.7 247.23c69.89,16.93 134.79,45.15 194.71,84.67 59.91,39.51 118.56,82.4 175.98,128.69 61.16,-48.54 122.94,-92.57 185.34,-132.08 62.41,-39.51 124.81,-66.61 187.22,-81.28z"/>
  <path fill="#FFFFFF" d="M3822.61 2282.87l41.69 246.38 -81.32 0 -18.16 -215.9 9.49 -42.33 -16.1 -4.23 -33.43 143.08c-4.4,18.06 -7.08,37.54 -8.05,58.42 -0.96,20.88 -1.17,41.2 -0.62,60.96l-102.78 0 -53.67 -262.46 -16.1 4.23 7.43 46.14 -14.86 212.09 -82.55 0 41.69 -246.38c1.37,-8.46 0.13,-16.93 -3.72,-25.4l17.76 -24.55 99.48 0 63.16 225.63 16.5 -5.08 -15.69 -63.07 51.61 -157.48 84.21 0 17.74 24.55c-3.85,8.47 -5.09,16.94 -3.71,25.4z"/>
  <path fill="#FFFFFF" d="M4056.25 2232.92l19.81 22.44c-0.82,3.66 -1.51,7.33 -2.06,11 -0.55,3.67 -0.27,7.2 0.82,10.59l94.95 252.3 -81.33 0 -11.96 -52.07c7.43,-1.98 15.4,-3.67 23.94,-5.08l-4.13 -16.09c-14.86,0 -29.04,1.2 -42.51,3.6 -13.49,2.4 -25.87,5.86 -37.15,10.37 -11.3,-4.51 -23.68,-7.83 -37.16,-9.94 -13.48,-2.12 -27.39,-3.18 -41.69,-3.18l-4.95 16.09c5.22,0.28 10.18,0.84 14.86,1.69 4.68,0.85 8.94,1.69 12.79,2.54l-15.68 52.07 -79.26 0 88.34 -252.73c1.1,-3.1 1.44,-6.63 1.03,-10.58 -0.42,-3.95 -1.17,-7.48 -2.27,-10.58l19.81 -22.44 83.8 0zm-30.96 38.95l-17.75 0 0 46.98 -29.3 88.06c-8.54,1.13 -17.76,1.97 -27.67,2.54l1.24 15.24c14.59,0 26.49,-1.2 35.71,-3.6 9.22,-2.4 18.92,-5.29 29.11,-8.68 9.62,3.39 19.73,6.35 30.33,8.89 10.6,2.54 21.53,3.67 32.81,3.39l1.24 -15.24c-3.85,0 -8.04,-0.28 -12.59,-0.85 -4.53,-0.56 -9.14,-1.13 -13.82,-1.69l-29.31 -88.06 0 -46.98z"/>
  <path fill="#FFFFFF" d="M4187.93 2232.92l191.12 0 7.02 103.29c-15.13,1.13 -29.1,3.67 -41.9,7.62 -12.79,3.95 -25.38,8.75 -37.76,14.39l-8.67 -55.03c4.4,-4.51 10.11,-8.46 17.12,-11.85 7.02,-3.39 14.66,-6.63 22.92,-9.74l-5.37 -9.73c-7.71,0 -15.89,1.41 -24.56,4.23 -8.67,2.82 -16.86,6.49 -24.56,11.01 -6.33,-3.39 -14.1,-6.78 -23.33,-10.16 -9.21,-3.39 -18.5,-5.08 -27.86,-5.08l-3.3 11.43c5.5,1.69 9.97,3.45 13.42,5.29 3.44,1.83 7.08,4.16 10.94,6.98l10.72 233.68 -81.73 0 0 -244.68c0,-8.47 -2.61,-16.51 -7.84,-24.13l13.62 -27.52z"/>
  <path fill="#FFFFFF" d="M4579.67 2232.92l19.81 22.44c-0.82,3.66 -1.52,7.33 -2.06,11 -0.56,3.67 -0.27,7.2 0.82,10.59l94.94 252.3 -81.32 0 -11.96 -52.07c7.43,-1.98 15.4,-3.67 23.93,-5.08l-4.12 -16.09c-14.86,0 -29.04,1.2 -42.51,3.6 -13.49,2.4 -25.87,5.86 -37.16,10.37 -11.29,-4.51 -23.67,-7.83 -37.15,-9.94 -13.48,-2.12 -27.39,-3.18 -41.69,-3.18l-4.96 16.09c5.23,0.28 10.18,0.84 14.86,1.69 4.68,0.85 8.95,1.69 12.8,2.54l-15.68 52.07 -79.26 0 88.34 -252.73c1.1,-3.1 1.44,-6.63 1.03,-10.58 -0.42,-3.95 -1.17,-7.48 -2.27,-10.58l19.81 -22.44 83.8 0zm-30.96 38.95l-17.75 0 0 46.98 -29.31 88.06c-8.53,1.13 -17.75,1.97 -27.66,2.54l1.24 15.24c14.59,0 26.49,-1.2 35.71,-3.6 9.22,-2.4 18.91,-5.29 29.1,-8.68 9.63,3.39 19.74,6.35 30.34,8.89 10.6,2.54 21.53,3.67 32.81,3.39l1.24 -15.24c-3.85,0 -8.04,-0.28 -12.59,-0.85 -4.53,-0.56 -9.15,-1.13 -13.83,-1.69l-29.3 -88.06 0 -46.98z"/>
  <path fill="#FFFFFF" d="M4804.23 2509.78l6.6 -10.59c-4.4,-1.69 -8.25,-3.74 -11.55,-6.13 -3.31,-2.4 -6.75,-5.44 -10.32,-9.11 9.62,-6.21 17.4,-13.9 23.31,-23.07 5.92,-9.17 8.89,-19.26 8.89,-30.27 0,-10.72 -3.65,-21.8 -10.94,-33.23 -7.3,-11.43 -20.85,-21.09 -40.67,-29 11.56,-16.93 19.13,-34.29 22.7,-52.06 3.58,-17.78 5.38,-36.55 5.38,-56.31l-13.62 0c0,35.28 -10.47,66.89 -31.38,94.83 -9.91,-4.8 -19.13,-11.08 -27.66,-18.84 -8.53,-7.76 -15.4,-16.86 -20.64,-27.3 7.43,-10.45 14.59,-23.15 21.47,-38.1 6.88,-14.96 11.97,-28.93 15.27,-41.91l93.71 0c7.98,19.19 13.76,36.97 17.34,53.34 3.57,16.36 5.22,33.72 4.95,52.06 0,7.62 -0.42,15.95 -1.24,24.98 -9.36,-3.39 -18.72,-5.78 -28.07,-7.2l-3.31 11.43c11.57,4.24 21.26,9.67 29.11,16.3 7.84,6.64 14.03,13.97 18.58,22.02 4.53,8.04 7.77,16.58 9.7,25.61 1.92,9.03 2.88,18.2 2.88,27.51 0,15.24 -2.54,29.92 -7.63,44.03 -5.09,14.11 -11.5,25.68 -19.2,34.71l-146.54 0c-3.31,-10.72 -5.78,-20.74 -7.43,-30.05 -1.65,-9.32 -2.48,-18.91 -2.48,-28.79 0,-7.34 0.28,-14.89 0.83,-22.65 0.55,-7.76 1.51,-16.01 2.89,-24.76l39.63 -10.59c0,6.5 0.54,13.9 1.64,22.23 1.11,8.32 3.72,16.79 7.85,25.4 4.13,8.61 10.12,16.86 17.96,24.76 7.84,7.91 18.5,14.82 31.99,20.75z"/>
  <path fill="#FFFFFF" d="M4903.71 2232.92l0 296.33 75.96 0 0 -80.43c-4.68,1.97 -9.22,4.51 -13.62,7.62 -4.41,3.1 -8.53,6.35 -12.39,9.73l-6.61 -11c9.64,-9.88 20.3,-18.35 32,-25.4 11.7,-7.06 23.32,-12.42 34.88,-16.09 6.32,-13.26 14.86,-26.03 25.59,-38.31 10.74,-12.28 22.57,-23.21 35.51,-32.81l7.01 10.58c-6.33,4.52 -12.11,9.6 -17.34,15.24 -5.23,5.65 -10.45,12.42 -15.68,20.32l0 140.55 75.95 0 0 -296.33 -75.95 0 0 66.04c4.4,-1.69 8.87,-3.95 13.41,-6.77 4.54,-2.83 9.02,-5.93 13.41,-9.32l7.03 10.59c-9.64,7.62 -19.68,14.11 -30.14,19.47 -10.46,5.36 -21.05,9.17 -31.78,11.43 -7.16,18.06 -16.93,34.71 -29.32,49.95 -12.38,15.24 -25.04,26.95 -37.97,35.14l-7.85 -9.74c6.33,-5.36 12.52,-11.08 18.58,-17.14 6.06,-6.07 11.15,-12.92 15.28,-20.54l0 -129.11 -75.96 0z"/>
  <path fill="#FFFFFF" d="M5145.6 2232.92l0 296.33 75.96 0 0 -123.61c-4.4,-2.26 -8.95,-4.24 -13.62,-5.93 -4.68,-1.69 -9.36,-3.24 -14.04,-4.66l1.66 -14.39c15.13,0 27.93,1.34 38.39,4.02 10.45,2.68 18.43,5.86 23.94,9.53 8.53,-3.67 17.61,-6.85 27.24,-9.53 9.64,-2.68 20.23,-4.02 31.79,-4.02l3.72 14.39c-4.96,1.42 -9.91,3.11 -14.86,5.08 -4.96,1.98 -9.91,3.96 -14.87,5.93l0 123.19 75.96 0 0 -296.33 -75.96 0 0 87.2c9.91,4.24 19.82,7.06 29.73,8.47l-3.72 15.24c-12.94,0 -24.08,-0.99 -33.44,-2.96 -9.36,-1.98 -17.89,-5.22 -25.59,-9.74 -11.56,8.47 -32.34,12.7 -62.33,12.7l-1.66 -15.24c5.51,-0.56 10.6,-1.55 15.28,-2.96 4.67,-1.41 8.81,-2.97 12.38,-4.66l0 -88.05 -75.96 0z"/>
  <path fill="#FFFFFF" d="M5747.04 2232.92l12.38 74.08c-7.43,-3.67 -16.1,-5.5 -25.99,-5.5 -13.49,0 -26.84,4.51 -40.05,13.55 -13.2,9.03 -23.53,23.42 -30.96,43.17 1.66,0.29 3.65,0.85 5.99,1.7 2.34,0.84 4.34,1.69 5.98,2.54 2.21,-4.52 4.55,-8.54 7.03,-12.07 2.47,-3.52 4.95,-6.7 7.43,-9.52 14.57,4.51 26.82,11.08 36.73,19.68 9.9,8.61 17.96,18.49 24.15,29.64 6.19,11.14 10.66,23.35 13.41,36.61 2.76,13.27 4.13,26.82 4.13,40.64 0,10.73 -0.62,21.31 -1.86,31.75 -1.24,10.45 -2.95,20.46 -5.16,30.06l-75.54 0c3.31,-12.14 5.65,-23.64 7.02,-34.5 1.38,-10.87 2.07,-20.96 2.07,-30.27 0,-23.99 -4,-42.76 -11.98,-56.3 -7.98,-13.55 -17.33,-20.32 -28.07,-20.32 -5.5,0 -11.14,0.77 -16.92,2.33 -5.78,1.55 -11.29,3.38 -16.51,5.5 -5.23,2.12 -9.91,4.3 -14.04,6.56 -4.12,2.26 -7.43,4.23 -9.9,5.93l5.36 13.97c4.41,-2.54 8.74,-4.8 13.01,-6.78 4.26,-1.97 8.6,-3.52 13,-4.65l0 118.53 -75.96 0 0 -296.33 75.96 0 0 98.63c-3.58,4.52 -8.4,8.82 -14.45,12.92 -6.05,4.09 -11.7,7.26 -16.92,9.52l5.36 12.28c12.11,-3.95 22.64,-10.51 31.58,-19.69 8.94,-9.17 16.31,-20.25 22.09,-33.23 5.77,-12.98 10.04,-27.51 12.79,-43.6 2.75,-16.09 4.13,-32.74 4.13,-49.95l74.71 13.12z"/>
  <path fill="#FFFFFF" d="M5969.96 2232.92l19.8 22.44c-0.82,3.66 -1.51,7.33 -2.05,11 -0.56,3.67 -0.28,7.2 0.81,10.59l94.95 252.3 -81.32 0 -11.97 -52.07c7.43,-1.98 15.41,-3.67 23.94,-5.08l-4.12 -16.09c-14.86,0 -29.04,1.2 -42.52,3.6 -13.48,2.4 -25.87,5.86 -37.15,10.37 -11.29,-4.51 -23.67,-7.83 -37.15,-9.94 -13.49,-2.12 -27.39,-3.18 -41.7,-3.18l-4.95 16.09c5.23,0.28 10.18,0.84 14.86,1.69 4.68,0.85 8.94,1.69 12.79,2.54l-15.68 52.07 -79.25 0 88.33 -252.73c1.1,-3.1 1.45,-6.63 1.04,-10.58 -0.42,-3.95 -1.17,-7.48 -2.28,-10.58l19.82 -22.44 83.8 0zm-30.96 38.95l-17.76 0 0 46.98 -29.3 88.06c-8.53,1.13 -17.76,1.97 -27.66,2.54l1.24 15.24c14.58,0 26.49,-1.2 35.7,-3.6 9.23,-2.4 18.92,-5.29 29.11,-8.68 9.62,3.39 19.74,6.35 30.34,8.89 10.6,2.54 21.53,3.67 32.81,3.39l1.24 -15.24c-3.85,0 -8.05,-0.28 -12.59,-0.85 -4.54,-0.56 -9.15,-1.13 -13.83,-1.69l-29.3 -88.06 0 -46.98z"/>
  <path fill="#FFFFFF" d="M6177.18 2232.92l-74.3 0c-9.91,30.48 -14.86,59.55 -14.86,87.2 0,20.89 3.51,38.95 10.52,54.19 7.02,15.24 15.89,27.94 26.63,38.1 10.73,10.16 22.56,17.71 35.5,22.65 12.93,4.94 25.31,7.41 37.15,7.41 8.52,-7.06 17.12,-12.7 25.79,-16.94 8.67,-4.23 17.27,-6.77 25.8,-7.62l4.55 12.7c-5.23,1.98 -10.53,4.87 -15.9,8.68 -5.36,3.81 -10.24,7.41 -14.65,10.8l0 79.16 75.95 0 0 -296.33 -75.95 0 0 140.97c4.13,-0.57 8.46,-1.62 13.01,-3.18 4.53,-1.55 9.14,-3.31 13.82,-5.29l7.84 14.82c-10.45,7.62 -21.73,11.43 -33.84,11.43 -9.36,0 -17.9,-3.11 -25.6,-9.32 -8.8,4.52 -16.92,6.78 -24.35,6.78 -7.43,0 -14.45,-2.05 -21.05,-6.14 -6.61,-4.09 -12.11,-10.65 -16.52,-19.69l10.74 -8.89c6.6,8.75 13.48,14.4 20.64,16.94 -1.1,-6.49 -1.86,-14.25 -2.27,-23.29 -0.42,-9.03 -0.63,-16.79 -0.63,-23.28 0,-15.52 1.17,-31.04 3.51,-46.56 2.35,-15.53 5.16,-30.63 8.47,-45.3z"/>
  <path fill="#FFFFFF" d="M6324.55 2284.57c0,-8.47 -2.62,-16.51 -7.85,-24.13l13.62 -27.52 210.12 0c-1.94,16.37 -3.45,32.24 -4.55,47.62 -1.1,15.38 -1.78,29.85 -2.07,43.39 -9.07,1.42 -17.54,3.39 -25.38,5.93 -7.84,2.54 -16.44,5.79 -25.8,9.74 -11.01,-11.29 -18.58,-25.82 -22.7,-43.6 3.02,-1.98 6.81,-4.17 11.35,-6.57 4.54,-2.4 9.98,-4.3 16.3,-5.71l-3.29 -13.55c-9.64,0 -19.2,1.7 -28.7,5.08 -9.49,3.39 -18.22,7.06 -26.21,11.01 -6.6,-4.52 -15.07,-8.33 -25.38,-11.43 -10.33,-3.11 -20.17,-4.66 -29.52,-4.66l-4.95 14.82c5.22,1.13 10.45,2.68 15.69,4.66 5.22,1.97 10.31,4.09 15.27,6.35l0 53.76c-4.41,1.97 -9.3,3.6 -14.66,4.87 -5.36,1.27 -10.25,1.9 -14.65,1.9l3.3 14.47c15.96,0 31.23,-3.25 45.82,-9.81 14.59,-6.49 27.25,-14.54 37.98,-24.13 6.6,8.75 12.66,15.66 18.16,20.74 5.51,5.08 12.52,10.8 21.05,17.01 -4.12,3.38 -8.53,7.26 -13.2,11.64 -4.68,4.37 -9.36,9.03 -14.04,13.83 -4.68,4.79 -9.08,9.59 -13.21,14.46 -4.13,4.8 -7.57,9.31 -10.32,13.55 -10.73,-7.06 -22.02,-12.7 -33.85,-17.01 -11.84,-4.23 -24.63,-6.91 -38.39,-8.04l-3.3 13.19c4.68,0.57 9.83,1.91 15.48,4.02 5.64,2.12 10.25,4.17 13.83,6.14l0 41.21c-4.13,1.97 -8.6,3.81 -13.42,5.5 -4.82,1.69 -9.98,2.82 -15.47,3.39l2.88 13.61c9.91,0 19.61,-1.55 29.1,-4.65 9.5,-3.11 18.1,-6.64 25.8,-10.59 7.7,3.67 16.86,7.13 27.45,10.38 10.6,3.24 20.57,4.86 29.94,4.86l1.64 -15.24c-9.9,-1.41 -18.85,-3.95 -26.83,-7.62 2.2,-12.98 5.99,-25.18 11.35,-36.61 5.37,-11.43 13.01,-22.93 22.91,-34.51 20.64,12.42 40.73,21.45 60.26,27.1 -4.67,17.21 -7.7,34.22 -9.07,50.94 -1.38,16.79 -2.21,35.06 -2.48,54.89l-214.24 0 -13.62 -27.52c5.23,-7.62 7.85,-15.66 7.85,-24.13l0 -193.03z"/>
  <path fill="#FFFFFF" d="M6680.36 2509.35c5.51,-2.82 11.84,-7.48 19,-13.97 7.15,-6.49 14.51,-14.11 22.07,-22.86 7.57,-8.75 15.08,-18.13 22.51,-28.15 7.43,-10.02 14.3,-19.96 20.63,-29.84 3.85,3.67 8.06,7.41 12.59,11.22 4.55,3.81 9.57,7.55 15.07,11.21 -3.03,19.76 -7.29,37.12 -12.8,52.07 -5.5,14.96 -14.16,29.78 -26,44.45l-115.99 0c-19.54,-13.83 -35.23,-33.09 -47.06,-57.78 -11.84,-24.7 -17.76,-53.69 -17.76,-87 0,-16.65 2.9,-33.23 8.67,-49.74 5.78,-16.51 13.49,-31.96 23.12,-46.35 9.64,-14.39 20.71,-27.17 33.23,-38.31 12.52,-11.15 25.52,-19.69 39.01,-25.61l70.59 0c5.78,11.57 15.13,21.59 28.07,30.05 -11.84,14.4 -21.19,31.4 -28.07,51.01 -6.88,19.62 -11.42,39.3 -13.63,59.06 -22.83,-8.75 -42.37,-24.56 -58.61,-47.42 4.4,-10.72 10.52,-20.81 18.37,-30.26 7.84,-9.46 16.03,-17.71 24.56,-24.77l-9.9 -8.89c-18.44,13.83 -33.72,28.72 -45.82,44.66 -12.11,15.95 -18.17,35.07 -18.17,57.36 0,13.83 1.51,26.89 4.54,39.16 3.03,12.28 7.02,23.43 11.97,33.45 4.95,10.01 10.53,18.83 16.72,26.45 6.19,7.62 12.59,13.55 19.19,17.78 -3.02,4.24 -6.8,8.47 -11.35,12.7 -4.54,4.24 -9.43,8.19 -14.65,11.86l9.9 8.46z"/>
  <path fill="#FFFFFF" d="M6810.39 2232.92l250.98 0 13.21 27.52c-5.23,7.62 -7.85,15.66 -7.85,24.13l0 77.04c-9.91,-4.23 -21.39,-7.2 -34.46,-8.89 -13.08,-1.69 -26.9,-2.68 -41.49,-2.96l0 -46.99c10.18,-8.47 19.68,-14.54 28.48,-18.2l-3.3 -12.7c-5.23,0 -10.8,1.41 -16.72,4.23 -5.92,2.82 -11.76,6.49 -17.54,11.01 -4.95,-3.96 -9.98,-7.48 -15.07,-10.59 -5.09,-3.1 -9.97,-4.65 -14.65,-4.65l-2.07 12.7c9.09,4.23 17.07,10.44 23.95,18.62l0 226.06 -75.96 0 0 -226.48c4.41,-4.8 8.74,-8.61 13.01,-11.43 4.26,-2.82 8.6,-5.22 13,-7.2l-3.3 -12.27c-4.41,0 -8.95,1.27 -13.62,3.81 -4.68,2.54 -10.6,6.35 -17.76,11.43 -4.68,-3.67 -10.25,-7.13 -16.71,-10.38 -6.47,-3.24 -12.05,-4.86 -16.73,-4.86l-2.88 12.27c4.68,1.98 9.43,4.52 14.23,7.62 4.82,3.11 9.43,6.49 13.84,10.16l0 47.84c-14.04,0.28 -27.38,1.41 -40.05,3.38 -12.65,1.98 -24.63,4.52 -35.91,7.62l0 -76.19c0,-8.47 -2.61,-16.51 -7.84,-24.13l13.21 -27.52z"/>
  <path fill="#FFFFFF" d="M7086.13 2280.33c0,-3.95 -0.76,-7.48 -2.27,-10.58 -1.51,-3.11 -3.37,-6.21 -5.58,-9.31l13.63 -27.52 165.53 0c8.53,7.62 14.79,16.16 18.78,25.61 3.99,9.45 5.99,19.12 5.99,29 0,14.11 -4.2,28.29 -12.59,42.54 -8.4,14.26 -20.58,26.88 -36.54,37.89l7.85 11.43c4.67,-2.54 8.74,-4.87 12.17,-6.98 3.44,-2.12 7.23,-4.59 11.36,-7.41 7.98,7.62 14.78,17.78 20.43,30.48 5.65,12.7 8.46,27.66 8.46,44.87 0,6.77 -0.62,14.11 -1.86,22.01 -1.24,7.91 -3.02,15.88 -5.36,23.92 -2.34,8.05 -5.02,15.81 -8.06,23.29 -3.02,7.47 -6.32,14.04 -9.89,19.68l-176.27 0 -13.63 -27.52c5.24,-7.62 7.85,-15.66 7.85,-24.13l0 -197.27zm49.95 94.4c9.35,-4.23 18.57,-9.17 27.65,-14.81 9.09,-5.65 17.14,-11.64 24.16,-17.99 7.01,-6.35 12.65,-13.06 16.91,-20.11 4.28,-7.06 6.41,-14.39 6.41,-22.01 0,-9.88 -3.71,-18.35 -11.14,-25.4 -7.43,-7.06 -18.44,-10.59 -33.03,-10.59 -4.95,0 -10.25,0.5 -15.9,1.48 -5.63,0.99 -11.62,2.47 -17.95,4.45l2.89 12.28c8.8,-2.54 17.47,-3.39 26.01,-2.54l0 55.87c-3.58,5.37 -8.26,10.45 -14.04,15.24 -5.78,4.8 -11.56,9.18 -17.33,13.13l5.36 11zm26.01 110.92c-4.41,0.84 -8.74,1.41 -13.01,1.69 -4.26,0.28 -8.6,0.14 -13,-0.42l0 12.7c4.12,0.56 8.11,0.98 11.97,1.27 3.85,0.28 7.57,0.42 11.15,0.42 12.66,0 23.6,-2.12 32.81,-6.35 9.23,-4.23 16.79,-9.67 22.7,-16.3 5.92,-6.63 10.26,-13.83 13.01,-21.59 2.75,-7.76 4.12,-15.17 4.12,-22.22 0,-6.21 -1.1,-12.21 -3.29,-17.99 -2.21,-5.79 -5.37,-10.87 -9.5,-15.24 -4.12,-4.38 -9.22,-7.91 -15.27,-10.59 -6.05,-2.68 -12.8,-4.02 -20.23,-4.02 -8.25,0 -17.14,2.33 -26.62,6.99 -9.5,4.65 -18.65,10.37 -27.45,17.14l6.6 9.31c4.12,-2.82 8.33,-5.15 12.59,-6.98 4.27,-1.84 8.73,-3.32 13.42,-4.45l0 76.63z"/>
  <path fill="#FFFFFF" d="M7317.71 2284.57c0,-8.47 -2.61,-16.51 -7.85,-24.13l13.62 -27.52 210.12 0c-1.93,16.37 -3.44,32.24 -4.54,47.62 -1.11,15.38 -1.79,29.85 -2.07,43.39 -9.08,1.42 -17.54,3.39 -25.38,5.93 -7.84,2.54 -16.44,5.79 -25.8,9.74 -11.01,-11.29 -18.58,-25.82 -22.7,-43.6 3.02,-1.98 6.8,-4.17 11.35,-6.57 4.54,-2.4 9.97,-4.3 16.3,-5.71l-3.3 -13.55c-9.63,0 -19.2,1.7 -28.69,5.08 -9.49,3.39 -18.23,7.06 -26.21,11.01 -6.61,-4.52 -15.07,-8.33 -25.39,-11.43 -10.32,-3.11 -20.16,-4.66 -29.51,-4.66l-4.96 14.82c5.23,1.13 10.46,2.68 15.69,4.66 5.23,1.97 10.32,4.09 15.27,6.35l0 53.76c-4.4,1.97 -9.29,3.6 -14.65,4.87 -5.37,1.27 -10.25,1.9 -14.66,1.9l3.31 14.47c15.96,0 31.23,-3.25 45.82,-9.81 14.58,-6.49 27.24,-14.54 37.98,-24.13 6.6,8.75 12.65,15.66 18.15,20.74 5.51,5.08 12.52,10.8 21.06,17.01 -4.13,3.38 -8.54,7.26 -13.21,11.64 -4.68,4.37 -9.36,9.03 -14.04,13.83 -4.68,4.79 -9.08,9.59 -13.2,14.46 -4.14,4.8 -7.58,9.31 -10.33,13.55 -10.72,-7.06 -22.02,-12.7 -33.84,-17.01 -11.84,-4.23 -24.63,-6.91 -38.39,-8.04l-3.31 13.19c4.68,0.57 9.84,1.91 15.49,4.02 5.63,2.12 10.24,4.17 13.82,6.14l0 41.21c-4.12,1.97 -8.6,3.81 -13.41,5.5 -4.82,1.69 -9.98,2.82 -15.48,3.39l2.89 13.61c9.9,0 19.61,-1.55 29.09,-4.65 9.5,-3.11 18.1,-6.64 25.81,-10.59 7.7,3.67 16.86,7.13 27.44,10.38 10.6,3.24 20.58,4.86 29.94,4.86l1.65 -15.24c-9.91,-1.41 -18.85,-3.95 -26.84,-7.62 2.21,-12.98 5.99,-25.18 11.35,-36.61 5.38,-11.43 13.01,-22.93 22.92,-34.51 20.63,12.42 40.73,21.45 60.26,27.1 -4.67,17.21 -7.7,34.22 -9.08,50.94 -1.37,16.79 -2.2,35.06 -2.47,54.89l-214.25 0 -13.62 -27.52c5.24,-7.62 7.85,-15.66 7.85,-24.13l0 -193.03z"/>
  <path fill="#FFFFFF" d="M7563.31 2232.92l0 296.33 75.96 0 0 -123.61c-4.4,-2.26 -8.95,-4.24 -13.62,-5.93 -4.68,-1.69 -9.36,-3.24 -14.04,-4.66l1.66 -14.39c15.13,0 27.92,1.34 38.39,4.02 10.45,2.68 18.43,5.86 23.94,9.53 8.53,-3.67 17.61,-6.85 27.24,-9.53 9.63,-2.68 20.22,-4.02 31.79,-4.02l3.71 14.39c-4.95,1.42 -9.9,3.11 -14.86,5.08 -4.95,1.98 -9.9,3.96 -14.86,5.93l0 123.19 75.95 0 0 -296.33 -75.95 0 0 87.2c9.91,4.24 19.82,7.06 29.72,8.47l-3.71 15.24c-12.94,0 -24.09,-0.99 -33.44,-2.96 -9.36,-1.98 -17.89,-5.22 -25.59,-9.74 -11.56,8.47 -32.34,12.7 -62.33,12.7l-1.66 -15.24c5.51,-0.56 10.6,-1.55 15.28,-2.96 4.67,-1.41 8.8,-2.97 12.38,-4.66l0 -88.05 -75.96 0z"/>
  <path fill="#FFFFFF" d="M7805.21 2232.92l0 296.33 75.96 0 0 -123.61c-4.41,-2.26 -8.95,-4.24 -13.62,-5.93 -4.69,-1.69 -9.37,-3.24 -14.05,-4.66l1.66 -14.39c15.13,0 27.93,1.34 38.39,4.02 10.45,2.68 18.43,5.86 23.94,9.53 8.53,-3.67 17.61,-6.85 27.24,-9.53 9.64,-2.68 20.23,-4.02 31.79,-4.02l3.72 14.39c-4.96,1.42 -9.91,3.11 -14.86,5.08 -4.96,1.98 -9.91,3.96 -14.86,5.93l0 123.19 75.95 0 0 -296.33 -75.95 0 0 87.2c9.9,4.24 19.81,7.06 29.72,8.47l-3.72 15.24c-12.94,0 -24.08,-0.99 -33.43,-2.96 -9.36,-1.98 -17.9,-5.22 -25.6,-9.74 -11.55,8.47 -32.33,12.7 -62.33,12.7l-1.66 -15.24c5.51,-0.56 10.6,-1.55 15.28,-2.96 4.67,-1.41 8.81,-2.97 12.39,-4.66l0 -88.05 -75.96 0z"/>
  <path fill="#FFFFFF" d="M8047.1 2232.92l75.96 0 0 96.09c-5.51,2.54 -10.87,5.51 -16.1,8.89 -5.23,3.39 -10.32,7.06 -15.28,11.01l5.38 11.01c14.3,-9.6 27.65,-16.65 40.03,-21.17 12.39,-4.51 23.81,-6.77 34.27,-6.77 13.76,0 25.86,2.61 36.32,7.83 10.45,5.22 19.19,12.42 26.21,21.59 7.02,9.17 12.25,19.76 15.69,31.75 3.43,11.99 5.16,24.62 5.16,37.89 0,21.73 -2.48,40.28 -7.43,55.67 -4.95,15.38 -11.01,29.56 -18.17,42.54l-182.04 0 0 -296.33zm75.96 252.73c-4.41,0.84 -8.73,1.41 -13.01,1.69 -4.26,0.28 -8.6,0.14 -12.99,-0.42l0 12.7c4.12,0.56 8.11,0.98 11.96,1.27 3.85,0.28 7.57,0.42 11.15,0.42 12.65,0 23.73,-2.19 33.23,-6.56 9.5,-4.38 17.47,-10.09 23.94,-17.15 6.47,-7.05 11.28,-15.17 14.45,-24.34 3.17,-9.17 4.75,-18.55 4.75,-28.15 0,-12.42 -4.27,-23.49 -12.8,-33.23 -8.53,-9.74 -20.37,-14.61 -35.5,-14.61 -8.26,0 -17.2,2.33 -26.84,6.99 -9.63,4.66 -18.71,10.37 -27.24,17.14l6.61 9.32c4.13,-2.82 7.7,-5.15 10.73,-6.99 3.03,-1.83 6.88,-3.45 11.56,-4.87l0 86.79zm132.92 -252.73l75.95 0 0.41 296.33 -76.36 0 0 -19.47c4.82,-12.42 8.46,-25.05 11.01,-37.89 2.54,-12.84 3.85,-24.62 3.85,-35.35 0,-23.99 -4.95,-49.25 -14.86,-75.78l0 -127.84z"/>
  <polygon fill="#FFFFFF" points="8347.61,2232.92 8431.82,2232.92 8454.11,2282.45 8444.2,2311.66 8453.7,2327.74 8502.41,2232.92 8586.62,2232.92 8515.62,2352.3 8498.69,2326.05 8489.2,2342.98 8585.79,2529.25 8519.34,2529.25 8478.06,2457.71 8492.09,2431.46 8482.18,2414.95 8414.9,2529.25 8348.44,2529.25 8419.86,2392.51 8437.19,2417.07 8445.86,2403.52 "/>
  <path fill="#FFFFFF" d="M8760.4 2232.92l0 296.33 75.96 0 0 -80.43c-4.68,1.97 -9.22,4.51 -13.62,7.62 -4.41,3.1 -8.53,6.35 -12.38,9.73l-6.62 -11c9.64,-9.88 20.31,-18.35 32,-25.4 11.7,-7.06 23.32,-12.42 34.88,-16.09 6.33,-13.26 14.86,-26.03 25.59,-38.31 10.74,-12.28 22.57,-23.21 35.51,-32.81l7.01 10.58c-6.33,4.52 -12.11,9.6 -17.34,15.24 -5.23,5.65 -10.45,12.42 -15.68,20.32l0 140.55 75.95 0 0 -296.33 -75.95 0 0 66.04c4.4,-1.69 8.88,-3.95 13.41,-6.77 4.54,-2.83 9.02,-5.93 13.42,-9.32l7.02 10.59c-9.64,7.62 -19.68,14.11 -30.13,19.47 -10.47,5.36 -21.06,9.17 -31.79,11.43 -7.16,18.06 -16.93,34.71 -29.31,49.95 -12.39,15.24 -25.04,26.95 -37.97,35.14l-7.85 -9.74c6.32,-5.36 12.52,-11.08 18.57,-17.14 6.06,-6.07 11.15,-12.92 15.28,-20.54l0 -129.11 -75.96 0z"/>
  <path fill="#FFFFFF" d="M9163.29 2232.92l0 296.33 75.96 0 0 -123.61c-4.41,-2.26 -8.95,-4.24 -13.63,-5.93 -4.68,-1.69 -9.36,-3.24 -14.04,-4.66l1.66 -14.39c15.13,0 27.93,1.34 38.39,4.02 10.45,2.68 18.43,5.86 23.94,9.53 8.53,-3.67 17.61,-6.85 27.24,-9.53 9.64,-2.68 20.23,-4.02 31.79,-4.02l3.72 14.39c-4.96,1.42 -9.91,3.11 -14.86,5.08 -4.96,1.98 -9.91,3.96 -14.86,5.93l0 123.19 75.95 0 0 -296.33 -75.95 0 0 87.2c9.9,4.24 19.81,7.06 29.72,8.47l-3.72 15.24c-12.94,0 -24.08,-0.99 -33.43,-2.96 -9.36,-1.98 -17.9,-5.22 -25.6,-9.74 -11.56,8.47 -32.34,12.7 -62.33,12.7l-1.66 -15.24c5.51,-0.56 10.6,-1.55 15.28,-2.96 4.67,-1.41 8.81,-2.97 12.39,-4.66l0 -88.05 -75.96 0z"/>
  <path fill="#FFFFFF" d="M9583.93 2232.92l19.8 22.44c-0.82,3.66 -1.51,7.33 -2.06,11 -0.55,3.67 -0.27,7.2 0.82,10.59l94.95 252.3 -81.32 0 -11.97 -52.07c7.43,-1.98 15.41,-3.67 23.94,-5.08l-4.12 -16.09c-14.87,0 -29.04,1.2 -42.52,3.6 -13.49,2.4 -25.87,5.86 -37.15,10.37 -11.29,-4.51 -23.68,-7.83 -37.15,-9.94 -13.49,-2.12 -27.39,-3.18 -41.7,-3.18l-4.95 16.09c5.23,0.28 10.18,0.84 14.86,1.69 4.68,0.85 8.94,1.69 12.79,2.54l-15.68 52.07 -79.25 0 88.33 -252.73c1.1,-3.1 1.44,-6.63 1.03,-10.58 -0.41,-3.95 -1.17,-7.48 -2.27,-10.58l19.82 -22.44 83.8 0zm-30.96 38.95l-17.76 0 0 46.98 -29.3 88.06c-8.53,1.13 -17.76,1.97 -27.66,2.54l1.23 15.24c14.59,0 26.5,-1.2 35.71,-3.6 9.23,-2.4 18.92,-5.29 29.11,-8.68 9.62,3.39 19.74,6.35 30.33,8.89 10.6,2.54 21.53,3.67 32.82,3.39l1.24 -15.24c-3.86,0 -8.05,-0.28 -12.59,-0.85 -4.54,-0.56 -9.15,-1.13 -13.83,-1.69l-29.3 -88.06 0 -46.98z"/>
  <path fill="#FFFFFF" d="M9710.24 2232.92l250.98 0 13.21 27.52c-5.23,7.62 -7.85,15.66 -7.85,24.13l0 77.04c-9.91,-4.23 -21.4,-7.2 -34.46,-8.89 -13.08,-1.69 -26.9,-2.68 -41.49,-2.96l0 -46.99c10.18,-8.47 19.68,-14.54 28.48,-18.2l-3.31 -12.7c-5.22,0 -10.79,1.41 -16.71,4.23 -5.92,2.82 -11.76,6.49 -17.54,11.01 -4.95,-3.96 -9.98,-7.48 -15.07,-10.59 -5.09,-3.1 -9.97,-4.65 -14.65,-4.65l-2.07 12.7c9.09,4.23 17.07,10.44 23.95,18.62l0 226.06 -75.96 0 0 -226.48c4.41,-4.8 8.74,-8.61 13.01,-11.43 4.26,-2.82 8.6,-5.22 12.99,-7.2l-3.29 -12.27c-4.41,0 -8.95,1.27 -13.62,3.81 -4.68,2.54 -10.6,6.35 -17.76,11.43 -4.68,-3.67 -10.25,-7.13 -16.71,-10.38 -6.47,-3.24 -12.05,-4.86 -16.73,-4.86l-2.88 12.27c4.68,1.98 9.43,4.52 14.23,7.62 4.82,3.11 9.43,6.49 13.84,10.16l0 47.84c-14.04,0.28 -27.38,1.41 -40.05,3.38 -12.65,1.98 -24.63,4.52 -35.91,7.62l0 -76.19c0,-8.47 -2.61,-16.51 -7.84,-24.13l13.21 -27.52z"/>
  <path fill="#FFFFFF" d="M10159.77 2491.57c-0.83,4.52 -0.9,8.82 -0.21,12.92 0.68,4.09 1.85,8.11 3.51,12.06l-17.75 25.4 -93.7 -12.7 -7.85 -36.83c21.47,-10.16 45.27,-15.24 71.41,-15.24l2.89 -16.09c-17.61,0 -32.67,0.99 -45.2,2.97 -12.52,1.97 -24.69,4.94 -36.53,8.89 -20.92,-25.68 -35.98,-58.28 -45.2,-97.79 -9.22,-39.51 -13.83,-86.93 -13.83,-142.24l66.46 0c0,32.45 1.1,61.17 3.3,86.15 2.21,24.97 6.26,46 12.18,63.07 5.92,17.08 14.17,30.06 24.77,38.95 10.59,8.89 24.28,13.33 41.07,13.33l2.89 -15.24c-4.68,0 -9.35,-0.28 -14.03,-0.84 -4.68,-0.57 -8.4,-1.55 -11.15,-2.97l39.22 -182.45 59.02 0 -41.27 258.65z"/>
  <path fill="#FFFFFF" d="M10224.57 2232.92l187.41 0c4.68,10.72 8.39,21.87 11.14,33.44 2.76,11.57 4.14,22.16 4.14,31.75 0,22.58 -3.51,44.31 -10.53,65.19 -7.01,20.89 -18.23,37.82 -33.64,50.8 -6.88,-1.41 -13.35,-2.11 -19.4,-2.11 -6.88,0 -14.59,0.63 -23.12,1.9 -8.53,1.27 -17.2,3.04 -26.01,5.29 -8.8,2.26 -17.4,4.94 -25.8,8.05 -8.39,3.1 -16.03,6.49 -22.9,10.16l3.29 13.12c4.41,-1.97 8.74,-3.74 13.01,-5.29 4.26,-1.55 8.6,-2.89 13,-4.02l0 88.05 -75.95 0 0 -244.68c0,-8.47 -2.61,-16.51 -7.84,-24.13l13.2 -27.52zm39.63 159.17l4.95 12.7c12.39,-5.36 23.95,-11.08 34.68,-17.14 10.73,-6.07 20.09,-12.7 28.07,-19.9 7.98,-7.2 14.24,-15.17 18.78,-23.92 4.55,-8.75 6.82,-18.34 6.82,-28.78 0,-6.21 -0.83,-12.56 -2.48,-19.05 -1.66,-6.5 -4.68,-12.35 -9.09,-17.57 -4.39,-5.22 -10.31,-9.46 -17.74,-12.7 -7.43,-3.25 -16.79,-4.87 -28.08,-4.87 -3.02,0 -7.97,0.14 -14.86,0.42 -6.87,0.28 -12.24,0.71 -16.1,1.27l0 14.82c4.68,-0.28 9.09,-0.5 13.22,-0.64 4.12,-0.14 8.39,-0.21 12.79,-0.21l0 90.17c-5.5,6.21 -10.32,10.94 -14.44,14.18 -4.14,3.25 -9.64,6.99 -16.52,11.22z"/>
  <path fill="#FFFFFF" d="M10623.75 2232.92l19.81 22.44c-0.82,3.66 -1.52,7.33 -2.06,11 -0.56,3.67 -0.27,7.2 0.82,10.59l94.94 252.3 -81.32 0 -11.96 -52.07c7.43,-1.98 15.4,-3.67 23.93,-5.08l-4.12 -16.09c-14.86,0 -29.04,1.2 -42.52,3.6 -13.48,2.4 -25.86,5.86 -37.15,10.37 -11.29,-4.51 -23.67,-7.83 -37.15,-9.94 -13.48,-2.12 -27.39,-3.18 -41.69,-3.18l-4.96 16.09c5.23,0.28 10.18,0.84 14.86,1.69 4.68,0.85 8.94,1.69 12.8,2.54l-15.68 52.07 -79.26 0 88.34 -252.73c1.1,-3.1 1.44,-6.63 1.03,-10.58 -0.42,-3.95 -1.17,-7.48 -2.27,-10.58l19.81 -22.44 83.8 0zm-30.96 38.95l-17.75 0 0 46.98 -29.31 88.06c-8.53,1.13 -17.75,1.97 -27.66,2.54l1.24 15.24c14.59,0 26.49,-1.2 35.71,-3.6 9.22,-2.4 18.91,-5.29 29.1,-8.68 9.63,3.39 19.74,6.35 30.34,8.89 10.6,2.54 21.53,3.67 32.81,3.39l1.24 -15.24c-3.85,0 -8.05,-0.28 -12.59,-0.85 -4.53,-0.56 -9.15,-1.13 -13.83,-1.69l-29.3 -88.06 0 -46.98z"/>
  <path fill="#FFFFFF" d="M10975.44 2529.25l-75.95 0 0 -230.71c4.96,-3.11 9.91,-5.79 14.86,-8.05 4.96,-2.26 9.64,-4.09 14.04,-5.5l-2.89 -13.12c-10.18,0 -20.09,1.41 -29.72,4.23 -9.64,2.82 -18.72,6.49 -27.25,11.01 -6.6,-4.52 -14.93,-8.19 -24.97,-11.01 -10.04,-2.82 -19.88,-4.23 -29.52,-4.23l-2.88 13.12c7.15,1.69 13.55,4.02 19.19,6.98 5.64,2.97 10.67,5.86 15.07,8.68 -5.23,17.22 -8.73,34.01 -10.53,50.38 -1.78,16.37 -2.68,32.59 -2.68,48.68 0,22.3 1.85,44.03 5.57,65.19 3.71,21.17 7.92,44.03 12.6,68.58l-104.86 9.32 0 -81.71 20.23 -4.23 15.69 36.83 15.27 -4.66c-9.91,-24.27 -19.13,-50.87 -27.66,-79.79 -8.53,-28.93 -12.79,-58.78 -12.79,-89.54 0,-14.11 1.02,-28.43 3.09,-42.97 2.07,-14.53 5.71,-29.14 10.94,-43.81l199.79 0 13.21 27.52c-5.22,7.62 -7.85,15.66 -7.85,24.13l0 244.68z"/>
  <path fill="#FFFFFF" d="M10999.38 2232.92l0 296.33 182.04 0c7.16,-11.29 13.15,-25.19 17.97,-41.7 4.81,-16.51 7.21,-37.18 7.21,-62.02 0,-13.82 -1.71,-26.45 -5.16,-37.88 -3.43,-11.43 -8.6,-21.31 -15.47,-29.64 -6.89,-8.32 -15.55,-14.74 -26.01,-19.26 -10.46,-4.51 -22.56,-6.77 -36.32,-6.77 -10.46,0 -21.88,2.26 -34.27,6.77 -12.38,4.52 -25.73,11.57 -40.03,21.17l-5.38 -11.01c4.96,-3.95 10.05,-7.62 15.28,-11.01 5.23,-3.38 10.59,-6.35 16.1,-8.89l0 -96.09 -75.96 0zm75.96 252.73l0 -86.79c-4.68,1.42 -8.53,3.04 -11.56,4.87 -3.02,1.84 -6.6,4.17 -10.73,6.99l-6.61 -9.32c8.53,-6.77 17.61,-12.48 27.25,-17.14 9.63,-4.66 18.57,-6.99 26.83,-6.99 15.13,0 26.97,4.87 35.5,14.61 8.53,9.74 12.8,20.81 12.8,33.23 0,9.6 -1.58,18.98 -4.75,28.15 -3.17,9.17 -7.98,17.29 -14.45,24.34 -6.47,7.06 -14.44,12.77 -23.94,17.15 -9.5,4.37 -20.58,6.56 -33.23,6.56 -3.58,0 -7.3,-0.14 -11.15,-0.42 -3.85,-0.29 -7.84,-0.71 -11.96,-1.27l0 -12.7c4.39,0.56 8.73,0.7 12.99,0.42 4.28,-0.28 8.61,-0.85 13.01,-1.69z"/>
  <path fill="#FFFFFF" d="M11222.7 2232.92l0 296.33 75.96 0 0 -123.61c-4.41,-2.26 -8.95,-4.24 -13.62,-5.93 -4.68,-1.69 -9.36,-3.24 -14.04,-4.66l1.66 -14.39c15.13,0 27.92,1.34 38.39,4.02 10.45,2.68 18.43,5.86 23.93,9.53 8.54,-3.67 17.61,-6.85 27.25,-9.53 9.63,-2.68 20.22,-4.02 31.79,-4.02l3.71 14.39c-4.95,1.42 -9.9,3.11 -14.86,5.08 -4.95,1.98 -9.91,3.96 -14.86,5.93l0 123.19 75.95 0 0 -296.33 -75.95 0 0 87.2c9.91,4.24 19.82,7.06 29.72,8.47l-3.71 15.24c-12.94,0 -24.09,-0.99 -33.44,-2.96 -9.36,-1.98 -17.89,-5.22 -25.6,-9.74 -11.55,8.47 -32.33,12.7 -62.32,12.7l-1.66 -15.24c5.51,-0.56 10.6,-1.55 15.28,-2.96 4.67,-1.41 8.8,-2.97 12.38,-4.66l0 -88.05 -75.96 0z"/>
  <path fill="#FFFFFF" d="M11464.6 2232.92l75.96 0 0 96.09c-5.51,2.54 -10.88,5.51 -16.1,8.89 -5.24,3.39 -10.33,7.06 -15.28,11.01l5.37 11.01c14.31,-9.6 27.65,-16.65 40.04,-21.17 12.38,-4.51 23.8,-6.77 34.26,-6.77 13.76,0 25.86,2.61 36.33,7.83 10.45,5.22 19.19,12.42 26.21,21.59 7.02,9.17 12.24,19.76 15.69,31.75 3.43,11.99 5.15,24.62 5.15,37.89 0,21.73 -2.47,40.28 -7.43,55.67 -4.95,15.38 -11,29.56 -18.16,42.54l-182.04 0 0 -296.33zm75.96 252.73c-4.41,0.84 -8.74,1.41 -13.01,1.69 -4.26,0.28 -8.6,0.14 -13,-0.42l0 12.7c4.12,0.56 8.11,0.98 11.96,1.27 3.86,0.28 7.57,0.42 11.15,0.42 12.66,0 23.73,-2.19 33.23,-6.56 9.5,-4.38 17.48,-10.09 23.94,-17.15 6.48,-7.05 11.28,-15.17 14.45,-24.34 3.17,-9.17 4.75,-18.55 4.75,-28.15 0,-12.42 -4.27,-23.49 -12.79,-33.23 -8.53,-9.74 -20.37,-14.61 -35.51,-14.61 -8.26,0 -17.2,2.33 -26.83,6.99 -9.64,4.66 -18.71,10.37 -27.25,17.14l6.62 9.32c4.12,-2.82 7.7,-5.15 10.72,-6.99 3.03,-1.83 6.89,-3.45 11.57,-4.87l0 86.79zm132.91 -252.73l75.95 0 0.41 296.33 -76.36 0 0 -19.47c4.82,-12.42 8.47,-25.05 11.01,-37.89 2.55,-12.84 3.85,-24.62 3.85,-35.35 0,-23.99 -4.95,-49.25 -14.86,-75.78l0 -127.84z"/>
  <polygon fill="#FFFFFF" points="11765.1,2232.92 11849.31,2232.92 11871.6,2282.45 11861.7,2311.66 11871.2,2327.74 11919.9,2232.92 12004.11,2232.92 11933.11,2352.3 11916.19,2326.05 11906.7,2342.98 12003.28,2529.25 11936.83,2529.25 11895.55,2457.71 11909.59,2431.46 11899.68,2414.95 11832.4,2529.25 11765.93,2529.25 11837.35,2392.51 11854.69,2417.07 11863.36,2403.52 "/>
  <path fill="#FFFFFF" d="M12257.57 2529.25l-75.96 0 0 -244.68c0,-8.47 -2.61,-16.51 -7.84,-24.13l13.21 -27.52 200.2 0 13.22 27.52c-5.23,7.62 -7.85,15.66 -7.85,24.13l0 244.68 -75.96 0 0 -234.52c7.99,-4.8 17.76,-8.61 29.32,-11.43l-3.31 -11.43c-8.25,0 -16.78,0.98 -25.59,2.96 -8.81,1.97 -18.16,6.07 -28.07,12.28 -20.09,-10.16 -39.22,-15.24 -57.37,-15.24l-2.9 11.43c11.84,2.54 21.47,6.77 28.9,12.7l0 233.25z"/>
  <path fill="#FFFFFF" d="M12426.39 2232.92l187.41 0c4.68,10.72 8.39,21.87 11.14,33.44 2.76,11.57 4.14,22.16 4.14,31.75 0,22.58 -3.51,44.31 -10.53,65.19 -7.01,20.89 -18.23,37.82 -33.65,50.8 -6.87,-1.41 -13.34,-2.11 -19.39,-2.11 -6.88,0 -14.59,0.63 -23.12,1.9 -8.53,1.27 -17.2,3.04 -26.01,5.29 -8.8,2.26 -17.4,4.94 -25.8,8.05 -8.39,3.1 -16.03,6.49 -22.9,10.16l3.29 13.12c4.41,-1.97 8.74,-3.74 13.01,-5.29 4.26,-1.55 8.6,-2.89 13,-4.02l0 88.05 -75.95 0 0 -244.68c0,-8.47 -2.61,-16.51 -7.84,-24.13l13.2 -27.52zm39.63 159.17l4.95 12.7c12.39,-5.36 23.95,-11.08 34.68,-17.14 10.73,-6.07 20.09,-12.7 28.07,-19.9 7.98,-7.2 14.24,-15.17 18.78,-23.92 4.55,-8.75 6.82,-18.34 6.82,-28.78 0,-6.21 -0.83,-12.56 -2.48,-19.05 -1.66,-6.5 -4.68,-12.35 -9.09,-17.57 -4.39,-5.22 -10.31,-9.46 -17.74,-12.7 -7.43,-3.25 -16.79,-4.87 -28.08,-4.87 -3.02,0 -7.97,0.14 -14.86,0.42 -6.87,0.28 -12.24,0.71 -16.1,1.27l0 14.82c4.68,-0.28 9.09,-0.5 13.22,-0.64 4.12,-0.14 8.39,-0.21 12.79,-0.21l0 90.17c-5.5,6.21 -10.32,10.94 -14.44,14.18 -4.14,3.25 -9.64,6.99 -16.52,11.22z"/>
  <path fill="#FFFFFF" d="M12729.8 2228.69l73.06 0c13.76,5.64 26.7,13.4 38.8,23.28 12.11,9.88 22.71,21.45 31.79,34.71 9.08,13.27 16.23,28.15 21.46,44.66 5.24,16.51 7.85,34.22 7.85,53.13 0,16.65 -2.68,32.6 -8.05,47.84 -5.37,15.24 -12.59,29.28 -21.67,42.12 -9.09,12.84 -19.68,24.34 -31.79,34.5 -12.11,10.16 -25.04,18.34 -38.8,24.55l-70.59 0c-12.94,-5.92 -24.9,-14.46 -35.91,-25.61 -11.01,-11.15 -20.44,-23.92 -28.28,-38.31 -7.84,-14.39 -13.96,-29.91 -18.37,-46.57 -4.4,-16.65 -6.6,-33.16 -6.6,-49.53 0,-18.62 2.27,-35.41 6.81,-50.37 4.54,-14.96 10.73,-28.36 18.57,-40.22 7.85,-11.85 17.07,-22.29 27.67,-31.32 10.58,-9.04 21.94,-16.66 34.05,-22.86zm31.78 24.13l-10.73 8.46c4.68,3.67 9.09,7.62 13.21,11.86 4.13,4.23 7.7,8.46 10.74,12.7 -6.89,4.23 -14.04,10.16 -21.47,17.78 -7.43,7.62 -14.24,16.5 -20.43,26.66 -6.2,10.16 -11.29,21.31 -15.28,33.45 -3.99,12.13 -5.98,24.97 -5.98,38.52 0,22.58 4.74,41.84 14.24,57.79 9.49,15.94 22.76,30.83 39.83,44.66l10.74 -8.89c-3.58,-2.83 -7.03,-5.86 -10.32,-9.1 -3.31,-3.25 -6.48,-6.43 -9.5,-9.53 7.7,-4.8 16.1,-10.65 25.18,-17.57 9.09,-6.91 17.54,-15.17 25.39,-24.76 7.84,-9.6 14.44,-20.68 19.81,-33.23 5.37,-12.56 8.05,-27.03 8.05,-43.4 0,-11.57 -2.27,-22.78 -6.81,-33.65 -4.54,-10.87 -10.32,-20.81 -17.33,-29.84 -7.03,-9.04 -14.93,-17.15 -23.74,-24.35 -8.81,-7.19 -17.34,-13.05 -25.6,-17.56z"/>
  <path fill="#FFFFFF" d="M13175.61 2490.3l30.55 0c2.21,11.86 3.99,23.99 5.37,36.41 1.37,12.42 2.07,25.26 2.07,38.52 0,4.52 -0.07,9.1 -0.21,13.76 -0.15,4.66 -0.35,9.24 -0.62,13.76l-73.07 16.09c-1.37,-11.57 -2.88,-20.96 -4.54,-28.16 -1.65,-7.19 -4.81,-16.43 -9.49,-27.72l25.59 -8.47 -2.06 -15.24c-14.59,0 -29.18,1.76 -43.75,5.29 -14.59,3.53 -29.04,7.55 -43.35,12.07 -12.66,-3.95 -25.59,-7.84 -38.81,-11.65 -13.2,-3.81 -27.79,-5.71 -43.75,-5.71l-2.07 15.24 28.91 5.93c-4.69,11.29 -8.4,20.95 -11.15,28.99 -2.76,8.05 -4.82,17.86 -6.19,29.43l-73.07 -16.09c-0.28,-4.52 -0.48,-9.1 -0.62,-13.76 -0.14,-4.66 -0.21,-9.24 -0.21,-13.76 0,-13.26 0.7,-26.1 2.07,-38.52 1.38,-12.42 3.16,-24.55 5.36,-36.41l30.55 0c7.15,-20.32 12.73,-39.93 16.72,-58.84 3.99,-18.91 5.99,-36.41 5.99,-52.49 0,-18.35 -2.55,-34.5 -7.64,-48.47 -5.09,-13.97 -13.14,-25.19 -24.15,-33.66l17.75 -63.92 208.04 0 13.62 27.52c-2.19,3.1 -4.05,6.2 -5.56,9.31 -1.51,3.1 -2.28,6.63 -2.28,10.58l0 209.97zm-113.51 -203.19c-9.63,-3.96 -19.47,-7.48 -29.51,-10.59 -10.05,-3.1 -19.89,-4.65 -29.52,-4.65l-3.31 13.54c6.62,1.98 12.32,3.67 17.14,5.08 4.81,1.41 8.87,3.25 12.18,5.51 3.57,15.8 6.12,30.12 7.63,42.96 1.51,12.84 2.27,27.17 2.27,42.97 0,15.52 -0.62,30.69 -1.86,45.51 -1.24,14.82 -3.5,29.99 -6.81,45.51 -4.4,2.82 -9.56,4.94 -15.48,6.35 -5.91,1.41 -12.03,2.82 -18.36,4.23l3.29 13.97c10.18,0 20.02,-1.41 29.52,-4.23 9.5,-2.83 20.44,-6.64 32.82,-11.43 10.73,3.95 21.26,7.55 31.58,10.79 10.31,3.25 20.98,4.87 31.99,4.87l3.3 -12.7c-5.23,-1.41 -10.25,-2.82 -15.07,-4.23 -4.82,-1.41 -9.56,-3.81 -14.24,-7.2l0 -177.37c9.64,-5.37 19.82,-8.89 30.54,-10.59l-4.53 -13.54c-11.01,0 -21.68,1.62 -31.99,4.86 -10.32,3.25 -20.85,6.71 -31.58,10.38z"/>
  <path fill="#FFFFFF" d="M13407.6 2491.57c-0.83,4.52 -0.89,8.82 -0.2,12.92 0.68,4.09 1.85,8.11 3.51,12.06l-17.76 25.4 -93.7 -12.7 -7.85 -36.83c21.48,-10.16 45.28,-15.24 71.42,-15.24l2.89 -16.09c-17.61,0 -32.68,0.99 -45.2,2.97 -12.52,1.97 -24.7,4.94 -36.54,8.89 -20.91,-25.68 -35.98,-58.28 -45.19,-97.79 -9.23,-39.51 -13.83,-86.93 -13.83,-142.24l66.45 0c0,32.45 1.11,61.17 3.31,86.15 2.2,24.97 6.26,46 12.18,63.07 5.92,17.08 14.17,30.06 24.77,38.95 10.59,8.89 24.28,13.33 41.07,13.33l2.88 -15.24c-4.68,0 -9.35,-0.28 -14.03,-0.84 -4.68,-0.57 -8.39,-1.55 -11.14,-2.97l39.22 -182.45 59.02 0 -41.28 258.65z"/>
  <path fill="#FFFFFF" d="M13662.29 2232.92l12.38 74.08c-7.43,-3.67 -16.09,-5.5 -25.99,-5.5 -13.49,0 -26.84,4.51 -40.05,13.55 -13.2,9.03 -23.53,23.42 -30.96,43.17 1.66,0.29 3.65,0.85 5.99,1.7 2.34,0.84 4.34,1.69 5.98,2.54 2.21,-4.52 4.55,-8.54 7.03,-12.07 2.47,-3.52 4.95,-6.7 7.43,-9.52 14.57,4.51 26.82,11.08 36.73,19.68 9.91,8.61 17.96,18.49 24.15,29.64 6.19,11.14 10.66,23.35 13.41,36.61 2.76,13.27 4.13,26.82 4.13,40.64 0,10.73 -0.62,21.31 -1.86,31.75 -1.24,10.45 -2.95,20.46 -5.16,30.06l-75.54 0c3.31,-12.14 5.65,-23.64 7.02,-34.5 1.38,-10.87 2.07,-20.96 2.07,-30.27 0,-23.99 -4,-42.76 -11.97,-56.3 -7.99,-13.55 -17.34,-20.32 -28.08,-20.32 -5.5,0 -11.14,0.77 -16.92,2.33 -5.78,1.55 -11.29,3.38 -16.51,5.5 -5.23,2.12 -9.91,4.3 -14.04,6.56 -4.12,2.26 -7.43,4.23 -9.9,5.93l5.36 13.97c4.41,-2.54 8.74,-4.8 13.01,-6.78 4.26,-1.97 8.6,-3.52 13,-4.65l0 118.53 -75.96 0 0 -296.33 75.96 0 0 98.63c-3.58,4.52 -8.4,8.82 -14.45,12.92 -6.05,4.09 -11.7,7.26 -16.92,9.52l5.36 12.28c12.11,-3.95 22.64,-10.51 31.58,-19.69 8.95,-9.17 16.31,-20.25 22.09,-33.23 5.77,-12.98 10.04,-27.51 12.79,-43.6 2.75,-16.09 4.13,-32.74 4.13,-49.95l74.71 13.12z"/>
  <path fill="#FFFFFF" d="M13706.88 2232.92l250.97 0 13.22 27.52c-5.23,7.62 -7.85,15.66 -7.85,24.13l0 77.04c-9.91,-4.23 -21.4,-7.2 -34.46,-8.89 -13.08,-1.69 -26.91,-2.68 -41.49,-2.96l0 -46.99c10.18,-8.47 19.67,-14.54 28.48,-18.2l-3.31 -12.7c-5.22,0 -10.79,1.41 -16.71,4.23 -5.92,2.82 -11.76,6.49 -17.54,11.01 -4.95,-3.96 -9.98,-7.48 -15.07,-10.59 -5.09,-3.1 -9.97,-4.65 -14.65,-4.65l-2.07 12.7c9.09,4.23 17.06,10.44 23.95,18.62l0 226.06 -75.96 0 0 -226.48c4.41,-4.8 8.73,-8.61 13.01,-11.43 4.26,-2.82 8.6,-5.22 12.99,-7.2l-3.29 -12.27c-4.41,0 -8.95,1.27 -13.62,3.81 -4.68,2.54 -10.6,6.35 -17.76,11.43 -4.68,-3.67 -10.25,-7.13 -16.71,-10.38 -6.47,-3.24 -12.05,-4.86 -16.73,-4.86l-2.88 12.27c4.68,1.98 9.43,4.52 14.23,7.62 4.82,3.11 9.43,6.49 13.84,10.16l0 47.84c-14.04,0.28 -27.38,1.41 -40.05,3.38 -12.65,1.98 -24.63,4.52 -35.91,7.62l0 -76.19c0,-8.47 -2.61,-16.51 -7.84,-24.13l13.21 -27.52z"/>
  <path fill="#FFFFFF" d="M14303.71 2280.33c0,-3.95 -0.77,-7.48 -2.28,-10.58 -1.51,-3.11 -3.37,-6.21 -5.57,-9.31l13.62 -27.52 165.53 0c8.53,7.62 14.79,16.16 18.78,25.61 3.99,9.45 5.99,19.12 5.99,29 0,14.11 -4.2,28.29 -12.59,42.54 -8.39,14.26 -20.57,26.88 -36.54,37.89l7.85 11.43c4.67,-2.54 8.74,-4.87 12.17,-6.98 3.45,-2.12 7.23,-4.59 11.36,-7.41 7.98,7.62 14.79,17.78 20.43,30.48 5.65,12.7 8.47,27.66 8.47,44.87 0,6.77 -0.63,14.11 -1.87,22.01 -1.24,7.91 -3.02,15.88 -5.36,23.92 -2.34,8.05 -5.02,15.81 -8.05,23.29 -3.03,7.47 -6.33,14.04 -9.9,19.68l-176.27 0 -13.62 -27.52c5.23,-7.62 7.85,-15.66 7.85,-24.13l0 -197.27zm49.94 94.4c9.35,-4.23 18.58,-9.17 27.65,-14.81 9.09,-5.65 17.14,-11.64 24.16,-17.99 7.01,-6.35 12.65,-13.06 16.92,-20.11 4.27,-7.06 6.4,-14.39 6.4,-22.01 0,-9.88 -3.71,-18.35 -11.14,-25.4 -7.43,-7.06 -18.44,-10.59 -33.03,-10.59 -4.95,0 -10.25,0.5 -15.89,1.48 -5.64,0.99 -11.63,2.47 -17.96,4.45l2.89 12.28c8.81,-2.54 17.47,-3.39 26.01,-2.54l0 55.87c-3.58,5.37 -8.26,10.45 -14.04,15.24 -5.78,4.8 -11.56,9.18 -17.33,13.13l5.36 11zm26.01 110.92c-4.41,0.84 -8.74,1.41 -13.01,1.69 -4.26,0.28 -8.6,0.14 -13,-0.42l0 12.7c4.13,0.56 8.11,0.98 11.97,1.27 3.86,0.28 7.57,0.42 11.15,0.42 12.66,0 23.6,-2.12 32.81,-6.35 9.23,-4.23 16.79,-9.67 22.7,-16.3 5.92,-6.63 10.26,-13.83 13.01,-21.59 2.75,-7.76 4.13,-15.17 4.13,-22.22 0,-6.21 -1.11,-12.21 -3.3,-17.99 -2.2,-5.79 -5.37,-10.87 -9.5,-15.24 -4.12,-4.38 -9.22,-7.91 -15.27,-10.59 -6.05,-2.68 -12.8,-4.02 -20.23,-4.02 -8.25,0 -17.13,2.33 -26.62,6.99 -9.5,4.65 -18.65,10.37 -27.45,17.14l6.6 9.31c4.13,-2.82 8.33,-5.15 12.59,-6.98 4.27,-1.84 8.74,-3.32 13.42,-4.45l0 76.63z"/>
  <path fill="#FFFFFF" d="M13983.44 2379.53c0,-30.9 4.55,-56.87 13.56,-77.89 6.67,-15.45 15.89,-29.35 27.51,-41.63 11.64,-12.27 24.36,-21.38 38.19,-27.37 18.44,-7.98 39.69,-12 63.78,-12 43.62,0 78.43,13.9 104.64,41.63 26.14,27.8 39.22,66.39 39.22,115.85 0,49.04 -13.01,87.42 -38.95,115.08 -25.94,27.72 -60.68,41.55 -104.09,41.55 -43.96,0 -78.97,-13.75 -104.91,-41.34 -25.94,-27.52 -38.95,-65.48 -38.95,-113.88zm61.51 -2.04c0,34.36 7.77,60.39 23.26,78.17 15.47,17.71 35.15,26.6 58.95,26.6 23.88,0 43.41,-8.82 58.76,-26.39 15.27,-17.64 22.91,-44.02 22.91,-79.23 0,-34.78 -7.43,-60.75 -22.36,-77.82 -14.86,-17.15 -34.61,-25.68 -59.31,-25.68 -24.63,0 -44.51,8.67 -59.58,25.96 -15.06,17.36 -22.63,43.46 -22.63,78.39z"/>
 </g>
</svg>
