<?xml version="1.0" encoding="UTF-8"?>
<svg xmlns="http://www.w3.org/2000/svg" xml:space="preserve" version="1.1" viewBox="0 0 15000 3000">
 <g>
  <polygon fill="#FFFFFF" points="3133.88,2707.07 343.18,2707.07 765.03,1981.49 2712.03,1981.49 "/>
  <polygon fill="#FFFFFF" points="2647.12,1869.86 829.93,1869.86 1251.78,1144.28 2225.28,1144.28 "/>
  <polygon fill="#FFFFFF" points="2160.38,1032.65 1316.68,1032.65 1738.53,307.07 "/>
  <path fill="#FFFFFF" d="M3806.83 1847.52c-54.32,0 -110.98,-13.73 -169.98,-41.18 -40.36,-16.78 -65.97,-25.16 -76.83,-25.16 -13.98,0 -31.83,12.2 -53.56,36.6 -12.42,12.2 -24.84,18.3 -37.26,18.3 -34.15,0 -51.22,-25.93 -51.22,-77.78l0 -331.69c0,-41.17 17.86,-61.76 53.55,-61.76 26.4,0 43.47,18.3 51.23,54.9 27.95,99.12 75.29,182.24 142.04,249.34 40.36,39.65 87.71,64.81 142.03,75.49l0 102.94zm383.42 -916.54c-13.96,-69.39 -44.62,-128.48 -91.19,-176.52 -46.96,-48.42 -103.24,-80.82 -168.82,-97.6l0 -99.51c48.51,0 119.15,18.3 211.51,55.29l30.65 6.48c10.87,0 20.19,-4.58 27.94,-13.73l18.63 -27.45c9.31,-13.72 22.52,-20.59 39.59,-20.59 31.04,0 46.56,25.17 46.56,75.49l0 299.67c0,42.7 -18.62,64.05 -56.26,64.05 -29.49,0 -49.29,-21.73 -58.61,-65.58zm-336.85 -382.78l0 105.23c-80.72,21.35 -121.08,64.81 -121.08,130.39 0,54.9 31.05,99.89 93.14,134.96l116.43 54.9 81.49 34.32c96.24,44.22 161.44,83.11 195.59,116.66 90.04,79.3 135.05,176.9 135.05,292.8 0,123.53 -43.85,226.08 -131.55,307.67 -87.71,81.59 -200.64,122.39 -338.8,122.39l0 -102.94c99.35,-21.35 149.02,-68.63 149.02,-141.83 0,-41.17 -13.58,-74.34 -40.74,-99.51 -27.17,-25.16 -81.11,-54.52 -161.83,-88.07 -113.32,-47.27 -193.27,-86.92 -239.84,-118.95 -114.87,-82.35 -172.3,-192.15 -172.3,-329.4 0,-123.53 39.19,-224.18 117.98,-301.95 78.77,-77.78 184.73,-116.67 317.44,-116.67z"/>
  <path fill="#FFFFFF" d="M5101.46 548.2c158.34,0 286.01,61 383.04,183.01 97.01,122 145.53,278.31 145.53,468.94 0,187.57 -48.13,342.36 -144.37,464.36 -96.24,122 -224.31,183.01 -384.2,183.01l0 -98.37c31.05,-7.62 53.17,-23.25 66.37,-46.89 13.19,-23.64 19.79,-58.33 19.79,-104.08l0 -821.22c0,-67.1 -28.72,-109.81 -86.16,-128.11l0 -100.65zm-76.84 0l0 100.65c-57.43,18.3 -86.16,61.01 -86.16,128.11l0 821.22c0,48.8 6.21,83.87 18.63,105.22 12.42,21.35 34.94,36.6 67.53,45.75l0 98.37c-159.88,0 -287.96,-60.24 -384.2,-180.72 -96.24,-120.47 -144.36,-276.03 -144.36,-466.65 0,-187.58 48.89,-343.13 146.69,-466.66 97.8,-123.52 225.09,-185.29 381.87,-185.29z"/>
  <path fill="#FFFFFF" d="M6156.25 1847.52c-54.32,0 -110.98,-13.73 -169.98,-41.18 -40.36,-16.78 -65.97,-25.16 -76.83,-25.16 -13.97,0 -31.83,12.2 -53.56,36.6 -12.42,12.2 -24.84,18.3 -37.26,18.3 -34.15,0 -51.22,-25.93 -51.22,-77.78l0 -331.69c0,-41.17 17.86,-61.76 53.56,-61.76 26.39,0 43.46,18.3 51.23,54.9 27.94,99.12 75.28,182.24 142.04,249.34 40.35,39.65 87.7,64.81 142.02,75.49l0 102.94zm383.43 -916.54c-13.97,-69.39 -44.63,-128.48 -91.2,-176.52 -46.95,-48.42 -103.23,-80.82 -168.82,-97.6l0 -99.51c48.52,0 119.15,18.3 211.51,55.29l30.65 6.48c10.87,0 20.19,-4.58 27.94,-13.73l18.63 -27.45c9.32,-13.72 22.52,-20.59 39.59,-20.59 31.04,0 46.57,25.17 46.57,75.49l0 299.67c0,42.7 -18.63,64.05 -56.27,64.05 -29.49,0 -49.29,-21.73 -58.6,-65.58zm-336.86 -382.78l0 105.23c-80.72,21.35 -121.08,64.81 -121.08,130.39 0,54.9 31.05,99.89 93.14,134.96l116.43 54.9 81.49 34.32c96.24,44.22 161.44,83.11 195.59,116.66 90.05,79.3 135.06,176.9 135.06,292.8 0,123.53 -43.85,226.08 -131.56,307.67 -87.71,81.59 -200.64,122.39 -338.8,122.39l0 -102.94c99.35,-21.35 149.03,-68.63 149.03,-141.83 0,-41.17 -13.58,-74.34 -40.75,-99.51 -27.17,-25.16 -81.11,-54.52 -161.83,-88.07 -113.32,-47.27 -193.27,-86.92 -239.84,-118.95 -114.87,-82.35 -172.3,-192.15 -172.3,-329.4 0,-123.53 39.19,-224.18 117.98,-301.95 78.77,-77.78 184.73,-116.67 317.44,-116.67z"/>
  <path fill="#FFFFFF" d="M7772.22 1110.93l0 -253.91c0,-50.33 -7.77,-89.21 -23.29,-116.66 -15.53,-27.45 -43.47,-51.09 -83.83,-70.92 -21.73,-12.2 -32.59,-28.21 -32.59,-48.04 0,-32.02 23.28,-48.03 69.85,-48.03l230.52 0c51.22,0 76.84,16.77 76.84,50.32 0,12.2 -2.72,21.73 -8.15,28.6 -5.44,6.86 -19.02,15.63 -40.75,26.3 -62.09,32.03 -93.14,91.5 -93.14,178.43l0 416.33 -95.46 -162.42zm-791.69 439.21l0 -654.23 97.8 162.41 0 491.82c0,79.3 30.27,136.49 90.81,171.56l27.94 16.01c17.08,9.15 25.61,22.12 25.61,38.89 0,32.03 -27.16,48.04 -81.49,48.04l-211.89 0c-55.88,0 -83.82,-16.01 -83.82,-48.04 0,-15.25 15.52,-32.02 46.56,-50.32 58.99,-30.5 88.48,-89.22 88.48,-176.14zm387.69 -976.77l499.46 848.67 0 402.6 -253.8 0 -633.35 -1074.37c-23.67,-38.51 -47.34,-61.38 -71.02,-69.01l-33.38 -16.01c-20.56,-4.58 -30.64,-18.3 -30.64,-41.56 0,-24.4 11.63,-41.17 34.92,-50.32l79.56 0 408.25 0z"/>
  <path fill="#FFFFFF" d="M8705.93 548.2c158.33,0 286.01,61 383.03,183.01 97.02,122 145.53,278.31 145.53,468.94 0,187.57 -48.12,342.36 -144.36,464.36 -96.25,122 -224.31,183.01 -384.2,183.01l0 -98.37c31.04,-7.62 53.16,-23.25 66.37,-46.89 13.19,-23.64 19.78,-58.33 19.78,-104.08l0 -821.22c0,-67.1 -28.71,-109.81 -86.15,-128.11l0 -100.65zm-76.84 0l0 100.65c-57.43,18.3 -86.16,61.01 -86.16,128.11l0 821.22c0,48.8 6.21,83.87 18.63,105.22 12.42,21.35 34.93,36.6 67.53,45.75l0 98.37c-159.89,0 -287.96,-60.24 -384.2,-180.72 -96.24,-120.47 -144.36,-276.03 -144.36,-466.65 0,-187.58 48.89,-343.13 146.69,-466.66 97.8,-123.52 225.09,-185.29 381.87,-185.29z"/>
  <path fill="#FFFFFF" d="M10052.95 1201.67l106.72 -386.97 3.88 -40.79c0,-47.28 -17.08,-77.4 -51.23,-91.12l-30.27 -11.44c-23.28,-7.63 -34.92,-22.88 -34.92,-45.75 0,-34.7 26.38,-52.23 79.16,-52.23l225.86 0c32.61,0 53.95,3.05 64.04,9.15 10.09,6.1 15.13,19.82 15.13,41.17 0,18.3 -10.87,32.79 -32.6,43.46l-49.28 22.88c-43.47,21.35 -76.84,70.91 -100.51,148.69l-149.41 534.9 -46.57 -171.95zm12.42 303.86l-88.1 319.11 -246.81 0 -330.65 -1095.72c-7.76,-25.93 -20.18,-41.94 -37.25,-48.04 -17.08,-6.1 -27.17,-10.68 -30.28,-13.73 -10.86,-7.62 -16.29,-19.82 -16.29,-36.6 0,-38.12 30.27,-57.18 90.8,-57.18l412.14 0c37.26,0 63.65,3.43 79.18,10.29 15.52,6.86 23.28,20.97 23.28,42.32 0,21.35 -11.25,36.6 -33.77,45.75 -25.61,15.25 -38.41,35.84 -38.41,61.76l0 22.5 216.16 749.54z"/>
  <path fill="#FFFFFF" d="M10876.06 1847.52c-54.33,0 -110.99,-13.73 -169.98,-41.18 -40.36,-16.78 -65.97,-25.16 -76.83,-25.16 -13.98,0 -31.83,12.2 -53.57,36.6 -12.41,12.2 -24.83,18.3 -37.25,18.3 -34.15,0 -51.22,-25.93 -51.22,-77.78l0 -331.69c0,-41.17 17.85,-61.76 53.55,-61.76 26.39,0 43.46,18.3 51.23,54.9 27.94,99.12 75.28,182.24 142.04,249.34 40.36,39.65 87.7,64.81 142.03,75.49l0 102.94zm383.42 -916.54c-13.96,-69.39 -44.62,-128.48 -91.19,-176.52 -46.96,-48.42 -103.24,-80.82 -168.82,-97.6l0 -99.51c48.51,0 119.14,18.3 211.51,55.29l30.65 6.48c10.87,0 20.18,-4.58 27.94,-13.73l18.63 -27.45c9.31,-13.72 22.51,-20.59 39.58,-20.59 31.05,0 46.57,25.17 46.57,75.49l0 299.67c0,42.7 -18.63,64.05 -56.27,64.05 -29.49,0 -49.29,-21.73 -58.6,-65.58zm-336.85 -382.78l0 105.23c-80.72,21.35 -121.08,64.81 -121.08,130.39 0,54.9 31.04,99.89 93.13,134.96l116.43 54.9 81.5 34.32c96.24,44.22 161.44,83.11 195.59,116.66 90.04,79.3 135.05,176.9 135.05,292.8 0,123.53 -43.85,226.08 -131.55,307.67 -87.72,81.59 -200.64,122.39 -338.8,122.39l0 -102.94c99.35,-21.35 149.02,-68.63 149.02,-141.83 0,-41.17 -13.58,-74.34 -40.75,-99.51 -27.16,-25.16 -81.1,-54.52 -161.82,-88.07 -113.33,-47.27 -193.27,-86.92 -239.84,-118.95 -114.87,-82.35 -172.3,-192.15 -172.3,-329.4 0,-123.53 39.19,-224.18 117.97,-301.95 78.78,-77.78 184.73,-116.67 317.45,-116.67z"/>
  <path fill="#FFFFFF" d="M12717.88 1662.23c7.76,22.87 14.75,38.5 20.96,46.89 6.21,8.39 19.79,16.39 40.75,24.02 20.95,7.62 31.43,22.11 31.43,43.46 0,32.03 -24.06,48.04 -72.18,48.04l-468.03 0c-46.57,0 -69.85,-17.54 -69.85,-52.61 0,-16.78 11.64,-32.03 34.92,-45.75 23.29,-10.68 34.93,-22.12 34.93,-34.32l-6.98 -29.73 -118.75 -352.28c-10.87,-35.08 -16.3,-62.53 -16.3,-82.35 0,-21.35 9.31,-44.23 27.94,-68.63l221.2 -308.81c23.29,-27.45 34.93,-57.19 34.93,-89.22 0,-39.65 -17.85,-65.57 -53.56,-77.77l-32.6 -16.02c-21.73,-9.15 -32.59,-23.63 -32.59,-43.46 0,-33.55 20.17,-50.32 60.53,-50.32l335.31 0c43.46,0 65.2,18.3 65.2,54.9 0,24.4 -13.2,42.7 -39.59,54.9l-51.23 20.59c-24.84,7.62 -55.1,26.68 -90.81,57.18l-74.51 89.22 -62.86 86.92 281.74 725.15zm-649.64 162.41l-442.42 0c-46.56,0 -69.84,-16.78 -69.84,-50.33 0,-22.87 12.8,-38.12 38.41,-45.75 25.61,-7.62 41.52,-15.25 47.73,-22.87 6.21,-7.63 9.31,-23.64 9.31,-48.04l0 -917.29c0,-22.88 -2.71,-37.75 -8.14,-44.61 -5.43,-6.86 -21.34,-14.87 -47.74,-24.02 -26.38,-9.15 -39.57,-25.16 -39.57,-48.04 0,-33.55 23.28,-50.32 69.46,-50.32l461.81 0c47.74,0 71.79,16.77 71.79,50.32 0,22.88 -12.42,38.89 -37.64,48.04 -25.22,9.15 -40.36,17.16 -45.41,24.02 -5.04,6.86 -7.75,21.73 -7.75,44.61l0 917.29c0,33.55 8.54,54.14 25.61,61.76l30.27 9.15c23.29,7.63 34.92,23.64 34.92,48.04 0,32.03 -22.5,48.04 -67.51,48.04l-23.29 0z"/>
  <path fill="#FFFFFF" d="M12983.32 1824.64l-25.61 0c-46.57,0 -69.85,-16.78 -69.85,-50.33 0,-22.87 12.81,-38.12 38.42,-45.75 25.61,-7.62 41.52,-15.25 47.73,-22.87 6.21,-7.63 9.31,-23.64 9.31,-48.04l0 -917.29c0,-22.88 -2.72,-37.75 -8.14,-44.61 -5.44,-6.86 -21.35,-14.87 -47.74,-24.02 -26.39,-9.15 -39.58,-25.16 -39.58,-48.04 0,-33.55 23.28,-50.32 69.85,-50.32l465.7 0c48.12,0 72.18,16.77 72.18,50.32 0,22.88 -13.19,38.89 -39.59,48.04 -26.38,9.15 -42.3,17.16 -47.73,24.02 -5.43,6.86 -8.15,21.73 -8.15,44.61l0 917.29c0,21.35 1.55,36.22 4.65,44.61 3.11,8.39 19.03,16.77 47.74,25.16 28.72,8.39 43.08,24.02 43.08,46.89 0,33.55 -24.06,50.33 -72.18,50.33l-440.09 0z"/>
  <path fill="#FFFFFF" d="M14279.12 1046.12l93.91 -216.55c11.26,-24.4 16.7,-48.8 16.7,-73.2 0,-35.08 -20.19,-61.76 -60.55,-80.07 -35.7,-12.2 -53.55,-28.97 -53.55,-50.32 0,-19.83 6.21,-33.55 18.63,-41.18 12.42,-7.62 35.7,-11.43 69.85,-11.43l230.52 0c43.47,0 65.2,17.53 65.2,52.61 0,21.35 -13.19,37.36 -39.59,48.04 -51.22,22.87 -89.26,59.47 -114.1,109.8l-20.94 45.75 -153.69 336.26 -52.39 -119.71zm-201.41 -287.46l218.88 494.1 0 398.03c0,27.45 3.1,44.99 9.31,52.61 6.21,7.63 25.23,14.49 57.05,20.59 31.82,6.1 47.74,22.87 47.74,50.32 0,33.55 -27.17,50.33 -81.51,50.33l-481.99 0c-55.89,0 -83.83,-17.54 -83.83,-52.61 0,-25.93 15.52,-41.56 46.57,-46.9 31.06,-5.33 50.46,-12.2 58.21,-20.58 7.77,-8.39 11.65,-26.31 11.65,-53.76l0 -308.82 -263.12 -617.63c-9.31,-21.35 -24.06,-39.65 -44.24,-54.9 -26.39,-15.25 -39.58,-31.26 -39.58,-48.04 0,-32.02 24.06,-48.03 72.18,-48.03l458.7 0c48.13,0 72.19,16.77 72.19,50.32 0,16.78 -8.54,31.26 -25.62,43.46l-25.61 18.31c-10.86,4.57 -16.29,14.48 -16.29,29.73l9.31 43.47z"/>
  <path fill="#FFFFFF" d="M3592.04 2573.26l0 32.11c-41.2,-4.14 -72.65,-24.51 -94.34,-61.12 -20.05,-33.84 -30.09,-77.87 -30.09,-132.09 0,-54.22 10.04,-98.25 30.09,-132.09 21.69,-36.61 53.14,-56.98 94.34,-61.12l0 32.11c-13.56,-0.34 -20.33,15.97 -20.33,49.04l0 224.12c0,33.07 6.77,49.38 20.33,49.04zm12.2 32.11l0 -32.11c13.28,0.34 19.92,-15.97 19.92,-49.04l0 -224.12c0,-33.07 -6.64,-49.38 -19.92,-49.04l0 -32.11c41.2,4.14 72.65,24.51 94.33,61.12 20.07,33.84 30.09,77.87 30.09,132.09 0,54.22 -10.02,98.25 -30.09,132.09 -21.68,36.61 -53.13,56.98 -94.33,61.12z"/>
  <path fill="#FFFFFF" d="M3780.71 2308.56l23.17 51.8 0 151.77c0,16.93 2.99,29.88 8.95,38.85 2.44,4.15 7.86,9.33 16.27,15.54 5.96,4.15 8.94,9.16 8.94,15.03 0,11.39 -5.83,17.09 -17.48,17.09l-56.52 0c-11.66,0 -17.49,-5.7 -17.49,-17.09 0,-5.18 5.16,-11.92 15.46,-20.21 10.29,-8.28 16.13,-18.47 17.48,-30.56 0.81,-7.94 1.22,-18.13 1.22,-30.56l0 -191.66zm204.94 135.72l-23.59 -51.8c0,-5.53 0.14,-16.41 0.41,-32.64 0.27,-14.16 0.4,-25.38 0.4,-33.67 -0.27,-12.43 -0.94,-23.48 -2.03,-33.15 -1.36,-12.78 -7.12,-22.88 -17.28,-30.3 -10.17,-7.43 -15.25,-14.08 -15.25,-19.95 0,-11.39 5.56,-17.09 16.68,-17.09l57.33 0c11.38,0 17.07,5.7 17.07,17.09 0,5.87 -5.08,12.52 -15.24,19.95 -10.17,7.42 -15.93,17.52 -17.29,30.3 -1.35,14.85 -2.16,31.6 -2.44,50.25 -0.26,12.43 -0.13,29.35 0.41,50.76 0.54,24.17 0.82,40.92 0.82,50.25zm0 29.52l0 124.84 -60.45 0 -147.81 -325.82c-2.98,-6.91 -9.36,-12.78 -19.04,-17.61 -7.87,-4.15 -11.8,-9.33 -11.8,-15.54 0,-9.33 5.16,-13.99 15.46,-13.99l111.2 0 112.44 248.12z"/>
  <path fill="#FFFFFF" d="M4153.59 2598.64l-103.22 0c-11.18,0 -16.74,-5.18 -16.74,-15.54 0,-6.91 3.79,-12.78 11.39,-17.61 7.59,-4.84 11.38,-12.95 11.38,-24.35l0 -257.96c0,-11.4 -3.79,-19.51 -11.38,-24.35 -7.6,-4.83 -11.39,-10.88 -11.39,-18.13 0,-10.01 5.62,-15.02 16.81,-15.02l109.51 0c10.91,0 16.4,5.01 16.4,15.02 0,6.91 -3.79,12.78 -11.38,17.61 -7.59,4.84 -11.38,13.13 -11.38,24.87l0 315.46zm99.62 0l-86.62 0 0 -34.19c19.25,-1.03 33.76,-10.01 43.52,-26.93 4.6,-7.95 9.75,-22.97 15.44,-45.07 4.07,-16.23 8.95,-24.35 14.64,-24.35 6.24,0 10.3,5.01 12.2,15.03 0.54,4.14 0.82,12.6 0.82,25.38l0 90.13z"/>
  <path fill="#FFFFFF" d="M4414.16 2225.68c11.18,0 16.74,5.01 16.74,15.02 0,7.25 -3.79,13.3 -11.38,18.13 -7.6,4.84 -11.39,12.95 -11.39,24.35l0 259c0,10.7 3.79,18.47 11.39,23.31 7.59,4.83 11.38,10.7 11.38,17.61 0,10.36 -5.56,15.54 -16.74,15.54l-109.24 0c-11.18,0 -16.74,-5.18 -16.74,-15.54 0,-6.91 3.79,-12.78 11.38,-17.61 7.59,-4.84 11.38,-12.95 11.38,-24.35l0 -257.96c0,-11.74 -3.79,-20.03 -11.38,-24.87 -7.59,-4.83 -11.38,-10.7 -11.38,-17.61 0,-10.01 5.56,-15.02 16.74,-15.02l109.24 0z"/>
  <path fill="#FFFFFF" d="M4479.29 2308.56l23.17 51.8 0 151.77c0,16.93 2.99,29.88 8.95,38.85 2.44,4.15 7.86,9.33 16.27,15.54 5.96,4.15 8.94,9.16 8.94,15.03 0,11.39 -5.83,17.09 -17.48,17.09l-56.52 0c-11.66,0 -17.49,-5.7 -17.49,-17.09 0,-5.18 5.16,-11.92 15.46,-20.21 10.29,-8.28 16.13,-18.47 17.48,-30.56 0.81,-7.94 1.22,-18.13 1.22,-30.56l0 -191.66zm204.94 135.72l-23.59 -51.8c0,-5.53 0.14,-16.41 0.41,-32.64 0.27,-14.16 0.41,-25.38 0.41,-33.67 -0.28,-12.43 -0.95,-23.48 -2.04,-33.15 -1.36,-12.78 -7.12,-22.88 -17.28,-30.3 -10.17,-7.43 -15.25,-14.08 -15.25,-19.95 0,-11.39 5.56,-17.09 16.68,-17.09l57.33 0c11.38,0 17.07,5.7 17.07,17.09 0,5.87 -5.07,12.52 -15.24,19.95 -10.17,7.42 -15.93,17.52 -17.29,30.3 -1.35,14.85 -2.16,31.6 -2.44,50.25 -0.26,12.43 -0.13,29.35 0.41,50.76 0.54,24.17 0.82,40.92 0.82,50.25zm0 29.52l0 124.84 -60.45 0 -147.81 -325.82c-2.98,-6.91 -9.36,-12.78 -19.04,-17.61 -7.87,-4.15 -11.8,-9.33 -11.8,-15.54 0,-9.33 5.16,-13.99 15.46,-13.99l111.2 0 112.44 248.12z"/>
  <path fill="#FFFFFF" d="M4866.4 2259.87l0 -34.19 89.05 0 0 99.46c0,10.36 -3.94,15.54 -11.79,15.54 -5.16,0 -10.44,-6.91 -15.87,-20.72 -7.59,-19.34 -13.95,-32.47 -19.1,-39.37 -10.58,-13.82 -24.68,-20.72 -42.29,-20.72zm-14.23 338.77l-103.22 0c-11.18,0 -16.74,-5.18 -16.74,-15.54 0,-6.91 3.79,-12.78 11.39,-17.61 7.59,-4.84 11.38,-12.95 11.38,-24.35l0 -257.96c0,-11.74 -3.79,-20.03 -11.38,-24.87 -7.6,-4.83 -11.39,-10.7 -11.39,-17.61 0,-10.01 5.56,-15.02 16.74,-15.02l103.22 0 0 372.96zm106.12 0l-91.89 0 0 -34.19c19.79,0 34.83,-7.42 45.13,-22.27 5.42,-7.25 11.25,-20.72 17.49,-40.41 4.6,-14.85 9.62,-22.27 15.04,-22.27 9.49,0 14.23,12.26 14.23,36.78l0 82.36zm-91.89 -175.08l0 -34.19c9.48,-3.46 16.4,-10.19 20.73,-20.2 2.44,-8.29 4.95,-16.49 7.53,-24.61 2.57,-8.11 6.57,-12.17 11.99,-12.17 7.59,0 11.38,8.98 11.38,26.93l0 96.87c0,16.58 -3.79,24.86 -11.38,24.86 -4.34,0 -9.62,-8.28 -15.85,-24.86 -6.79,-17.96 -14.92,-28.84 -24.4,-32.63z"/>
  <path fill="#FFFFFF" d="M5285.22 2333.42l0 0c6.7,21.41 14.43,50.42 23.11,87.03 1.14,9.32 1.55,24.34 1.29,45.06 -0.82,33.85 -1.23,49.39 -1.23,46.62 0,16.93 2.98,29.88 8.95,38.85 2.44,4.15 7.86,9.33 16.26,15.54 5.97,4.15 8.95,9.16 8.95,15.03 0,11.39 -5.83,17.09 -17.49,17.09l-56.51 0c-11.66,0 -17.49,-5.7 -17.49,-17.09 0,-5.87 4.81,-12.26 14.43,-19.17 9.63,-6.91 15.39,-15.89 17.29,-26.94 1.62,-9.32 2.44,-21.06 2.44,-35.22l0 -166.8zm144.75 49.73c0,0 -16.67,71.83 -50.01,215.49l-12.61 0 -80.91 -308.73c-3.8,-14.5 -8.81,-24.69 -15.05,-30.56 -1.63,-1.38 -6.37,-4.14 -14.23,-8.29 -4.07,-1.72 -6.1,-5.7 -6.1,-11.91 0,-8.98 5.29,-13.47 15.86,-13.47l102.46 0 39.04 147.11 20.74 -91.68 0.81 0 0 102.04zm13.42 -157.47l103.21 0c11.19,0 16.75,5.01 16.75,15.02 0,7.25 -3.8,13.21 -11.39,17.87 -7.59,4.67 -11.39,11.83 -11.39,21.5l0 265.22c0,9.67 3.8,16.66 11.39,20.98 7.59,4.31 11.39,9.92 11.39,16.83 0,10.36 -5.56,15.54 -16.75,15.54l-108.84 0c-11.45,0 -17.14,-5.18 -17.14,-15.54 0,-6.56 3.79,-12.35 11.38,-17.35 7.59,-5.01 11.39,-13.21 11.39,-24.61l0 -315.46z"/>
  <path fill="#FFFFFF" d="M5674.36 2286.29l12.2 63.71 -36.2 171.98c-1.35,6.56 -2.03,11.91 -2.03,16.05 0,9.33 4.61,17.44 13.83,24.35 9.22,6.91 13.82,13.47 13.82,19.68 0,11.05 -6.78,16.58 -20.33,16.58l-50.83 0c-13.01,0 -19.52,-5.35 -19.52,-16.06 0,-7.94 2.31,-12.6 6.92,-13.98 10.84,-3.8 18.97,-10.88 24.39,-21.24 3.53,-6.56 7.05,-18.48 10.58,-35.74l47.17 -225.33zm53.67 219.11l-60.59 0 7.73 -37.81 45.95 0 -40.66 -210.83 7.31 -31.08 87.02 0 60.99 314.94c2.44,11.75 7.33,20.38 14.64,25.9 6.51,4.84 9.76,10.02 9.76,15.54 0,11.05 -7.59,16.58 -22.77,16.58l-95.96 0c-14.91,0 -22.36,-5.87 -22.36,-17.61 0,-6.22 2.84,-11.48 8.53,-15.8 5.7,-4.32 8.54,-9.41 8.54,-15.28 0,-5.87 -0.95,-13.47 -2.84,-22.79 -1.9,-7.26 -3.67,-14.51 -5.29,-21.76z"/>
  <path fill="#FFFFFF" d="M6014.7 2431.59l0 -32.03c10.17,-0.7 17.21,-5.7 21.08,-15.03 2.78,-6.56 4.13,-17.09 4.13,-31.59l0 -48.09c0,-30.31 -8.4,-46.02 -25.21,-47.05l0 -32.12 15.52 0c31.51,0 55.64,5.87 72.17,17.61 21.49,14.85 32.27,40.58 32.27,77.18 0,49.73 -22.23,79.95 -66.7,90.65l0 1.04c45.82,8.29 68.73,32.12 68.73,71.48 0,-2.76 -0.14,3.63 -0.41,19.17 -0.27,10.71 -0.27,19.17 0,25.38 0.81,8.64 2.3,12.95 4.48,12.95 1.89,0 4.13,-2.5 6.7,-7.51 2.57,-5.01 5.9,-7.51 9.96,-7.51 3.53,0 6.58,1.73 9.15,5.18 2.58,3.45 3.87,7.42 3.87,11.91 0,17.27 -7.59,31.77 -22.84,43.52 -13.56,10.36 -27.45,15.54 -41.55,15.54 -30.76,0 -49.88,-13.82 -57.53,-41.36 -0.82,-3.11 -2.72,-29.52 -5.7,-79.17 -1.89,-29.95 -11.25,-46.7 -28.12,-50.15zm-12.6 -205.91l0 319.61c0,8.97 3.73,15.8 11.17,20.46 7.46,4.66 11.19,10.44 11.19,17.35 0,10.36 -5.42,15.54 -16.33,15.54l-109.25 0c-11.18,0 -16.74,-5.18 -16.74,-15.54 0,-6.91 3.79,-12.69 11.39,-17.35 7.59,-4.66 11.39,-12.87 11.39,-24.61l0 -257.96c0,-11.4 -3.8,-19.51 -11.39,-24.35 -7.6,-4.83 -11.39,-10.88 -11.39,-18.13 0,-10.01 5.56,-15.02 16.74,-15.02l103.22 0z"/>
  <path fill="#FFFFFF" d="M6303.33 2598.64l-104.7 0c-11.18,0 -16.8,-5.18 -16.8,-15.54 0,-6.91 3.79,-12.78 11.38,-17.61 7.59,-4.84 11.39,-12.95 11.39,-24.35l0 -259c0,-10.7 -3.8,-18.56 -11.39,-23.57 -7.59,-5 -11.38,-10.96 -11.38,-17.87 0,-10.01 5.62,-15.02 16.8,-15.02l109.52 0c10.91,0 16.4,5.01 16.4,15.02 0,7.25 -3.8,13.38 -11.39,18.39 -7.59,5.01 -11.38,13.04 -11.38,24.09l0 263.14c0,9.33 2.64,17.01 7.93,23.05 5.28,6.05 7.93,11.31 7.93,15.8 0,8.98 -4.74,13.47 -14.31,13.47zm78.15 -255.37l71.97 202.53c1.62,4.84 6.1,11.05 13.42,18.65 6.23,6.56 9.35,12.43 9.35,17.61 0,11.05 -5.97,16.58 -17.89,16.58l-105.31 0c-12.74,0 -19.12,-6.04 -19.12,-18.13 0,-5.53 2.58,-10.19 7.73,-13.99 5.15,-3.79 7.72,-7.25 7.72,-10.36 0,-13.12 -5.69,-36.43 -17.07,-69.93 -11.39,-33.49 -17.08,-56.29 -17.08,-68.37 0,-9.67 10.84,-32.12 32.52,-67.34 21.69,-35.23 32.53,-58.71 32.53,-70.45 0,-8.63 -4.67,-15.71 -14.02,-21.24 -9.35,-5.52 -14.03,-11.05 -14.03,-16.57 0,-11.05 6.64,-16.58 19.92,-16.58l70.75 0c11.66,0 17.49,5.7 17.49,17.09 0,7.6 -2.31,12.61 -6.91,15.03 -24.4,13.46 -48.39,41.95 -71.97,85.47z"/>
  <path fill="#FFFFFF" d="M6625.86 2259.87l0 -34.19 89.05 0 0 99.46c0,10.36 -3.93,15.54 -11.79,15.54 -5.16,0 -10.44,-6.91 -15.87,-20.72 -7.59,-19.34 -13.95,-32.47 -19.1,-39.37 -10.58,-13.82 -24.67,-20.72 -42.29,-20.72zm-14.23 338.77l-103.22 0c-11.18,0 -16.73,-5.18 -16.73,-15.54 0,-6.91 3.79,-12.78 11.38,-17.61 7.59,-4.84 11.38,-12.95 11.38,-24.35l0 -257.96c0,-11.74 -3.79,-20.03 -11.38,-24.87 -7.59,-4.83 -11.38,-10.7 -11.38,-17.61 0,-10.01 5.55,-15.02 16.73,-15.02l103.22 0 0 372.96zm106.12 0l-91.89 0 0 -34.19c19.79,0 34.83,-7.42 45.13,-22.27 5.42,-7.25 11.26,-20.72 17.49,-40.41 4.61,-14.85 9.62,-22.27 15.04,-22.27 9.49,0 14.23,12.26 14.23,36.78l0 82.36zm-91.89 -175.08l0 -34.19c9.48,-3.46 16.4,-10.19 20.73,-20.2 2.44,-8.29 4.95,-16.49 7.53,-24.61 2.57,-8.11 6.57,-12.17 11.99,-12.17 7.59,0 11.39,8.98 11.39,26.93l0 96.87c0,16.58 -3.8,24.86 -11.39,24.86 -4.34,0 -9.62,-8.28 -15.85,-24.86 -6.78,-17.96 -14.92,-28.84 -24.4,-32.63z"/>
  <path fill="#FFFFFF" d="M6753.95 2328.76l0 -103.08 58.55 0 0 35.22c-9.49,5.18 -16.4,16.23 -20.74,33.16 -2.71,14.15 -5.56,28.14 -8.54,41.95 -2.98,13.82 -7.99,20.72 -15.04,20.72 -9.49,0 -14.23,-9.32 -14.23,-27.97zm185.01 -103.08l58.96 0 0 111.37c0,13.12 -4.88,19.68 -14.64,19.68 -7.05,0 -12.07,-6.9 -15.05,-20.72 -2.97,-13.81 -5.82,-27.8 -8.53,-41.95 -4.34,-16.93 -11.26,-27.98 -20.74,-33.16l0 -35.22zm-110.2 0l98 0 0 321.68c0,7.6 4.33,13.9 13.01,18.91 8.67,5 13.01,10.79 13.01,17.35 0,10.01 -6.51,15.02 -19.51,15.02l-111.42 0c-12.74,0 -19.11,-5.01 -19.11,-15.02 0,-6.91 4.33,-12.87 13.01,-17.87 8.67,-5.01 13.01,-12.35 13.01,-22.02l0 -318.05z"/>
  <path fill="#FFFFFF" d="M7417.56 2573.26l0 32.11c-41.21,-4.14 -72.66,-24.51 -94.34,-61.12 -20.06,-33.84 -30.09,-77.87 -30.09,-132.09 0,-54.22 10.03,-98.25 30.09,-132.09 21.68,-36.61 53.13,-56.98 94.34,-61.12l0 32.11c-13.56,-0.34 -20.34,15.97 -20.34,49.04l0 224.12c0,33.07 6.78,49.38 20.34,49.04zm12.19 32.11l0 -32.11c13.29,0.34 19.93,-15.97 19.93,-49.04l0 -224.12c0,-33.07 -6.64,-49.38 -19.93,-49.04l0 -32.11c41.21,4.14 72.65,24.51 94.34,61.12 20.06,33.84 30.08,77.87 30.08,132.09 0,54.22 -10.02,98.25 -30.08,132.09 -21.69,36.61 -53.13,56.98 -94.34,61.12z"/>
  <path fill="#FFFFFF" d="M7713.98 2259.87l0 -34.19 89.05 0 0 98.94c0,11.05 -3.93,16.57 -11.79,16.57 -4.61,0 -9.77,-7.08 -15.46,-21.23 -7.86,-19 -14.5,-31.95 -19.92,-38.85 -10.84,-14.16 -24.81,-21.24 -41.88,-21.24zm-14.23 -34.19l0 315.46c0,10.02 4.47,18.05 13.41,24.09 8.95,6.04 13.42,12.17 13.42,18.39 0,10.01 -6.7,15.02 -20.06,15.02l-109.99 0c-11.18,0 -16.73,-5.18 -16.73,-15.54 0,-6.91 3.79,-12.78 11.38,-17.61 7.59,-4.84 11.38,-12.95 11.38,-24.35l0 -257.96c0,-11.74 -3.79,-20.03 -11.38,-24.87 -7.59,-4.83 -11.38,-10.7 -11.38,-17.61 0,-10.01 5.55,-15.02 16.73,-15.02l103.22 0zm14.23 197.88l0 -34.19c9.48,-3.46 16.4,-10.19 20.73,-20.2 2.44,-8.29 4.96,-16.49 7.53,-24.61 2.57,-8.11 6.57,-12.17 11.99,-12.17 7.6,0 11.39,8.98 11.39,26.93l0 96.87c0,16.58 -3.79,24.86 -11.39,24.86 -4.34,0 -9.62,-8.28 -15.85,-24.86 -6.78,-17.96 -14.92,-28.84 -24.4,-32.63z"/>
  <path fill="#FFFFFF" d="M8230.39 2218.95l0 32.11c-8.95,-0.34 -14.92,5.53 -17.9,17.53 -1.62,6.21 -2.43,16.75 -2.43,31.51l0 224.12c0,33.07 6.77,49.38 20.33,49.04l0 32.11c-41.2,-4.14 -72.65,-24.51 -94.34,-61.12 -20.06,-33.84 -30.09,-77.87 -30.09,-132.09 0,-54.22 10.03,-98.25 30.09,-132.09 21.69,-36.61 53.14,-56.98 94.34,-61.12zm12.2 386.42l0 -32.11c5.96,-1.04 10.71,-3.8 14.23,-8.2 -2.72,-6.82 -9.08,-12.18 -19.11,-15.89 -8.68,-3.11 -13.02,-8.29 -13.02,-15.45 0,-12.35 6.78,-18.48 20.33,-18.48 6.51,0 12.34,2.94 17.49,8.81l0 -223.86c0,-14.85 -0.82,-25.39 -2.44,-31.52 -2.71,-11.74 -8.54,-17.61 -17.48,-17.61l0 -32.11c41.2,4.14 72.65,24.51 94.33,61.12 20.06,33.84 30.09,77.87 30.09,132.09 0,65.96 -15.04,116.55 -45.13,151.77 6.5,6.57 13.55,9.85 21.14,9.85 2.72,0 6.17,-0.95 10.37,-2.85 4.2,-1.9 7.39,-2.85 9.55,-2.85 2.44,0 4.61,1.55 6.51,4.66 1.9,3.11 2.85,6.22 2.85,9.32 0,9.67 -6.92,18.65 -20.74,26.94 -11.66,6.91 -21.96,10.36 -30.91,10.36 -14.09,0 -27.78,-7.6 -41.07,-22.79 -18.43,5.87 -30.76,8.8 -36.99,8.8z"/>
  <path fill="#FFFFFF" d="M8554.87 2602.27l0 -36.26c19.52,-3.46 33.21,-12.95 41.07,-28.49 6.5,-13.13 9.76,-32.98 9.76,-59.57l0 -167.84c0,-16.92 -2.98,-29.69 -8.95,-38.33 -2.17,-3.11 -7.45,-7.6 -15.86,-13.47 -5.96,-3.79 -8.95,-8.97 -8.95,-15.54 0,-11.39 5.7,-17.09 17.08,-17.09l61.41 0c11.38,0 17.07,5.7 17.07,17.09 0,7.26 -4.74,14.16 -14.23,20.72 -10.3,6.91 -16.27,16.41 -17.89,28.49 -1.35,9.67 -2.03,20.38 -2.03,32.12l0 140.9c0,41.44 -5.02,72.34 -15.05,92.72 -12.19,24.52 -33.34,39.37 -63.43,44.55zm-11.79 -37.3l0 38.85c-14.71,0.69 -23.93,1.04 -27.72,1.04 -31.85,0 -55.64,-7.95 -71.43,-23.83 -17.42,-17.96 -26.09,-46.45 -26.09,-85.47l0 -212.38c0,-11.74 -3.66,-20.03 -10.98,-24.87 -7.32,-4.83 -10.98,-10.7 -10.98,-17.61 0,-10.01 5.82,-15.02 17.48,-15.02l108.57 0c14.1,0 21.15,4.83 21.15,14.5 0,7.26 -4.41,13.3 -13.22,18.13 -8.81,4.84 -13.21,12.26 -13.21,22.28l0 235.69c0,15.88 1.35,26.93 4.13,33.15 3.59,8.98 10.98,14.16 22.3,15.54z"/>
  <path fill="#FFFFFF" d="M8773.23 2286.29l12.2 63.71 -36.2 171.98c-1.35,6.56 -2.03,11.91 -2.03,16.05 0,9.33 4.61,17.44 13.83,24.35 9.22,6.91 13.82,13.47 13.82,19.68 0,11.05 -6.78,16.58 -20.33,16.58l-50.82 0c-13.02,0 -19.53,-5.35 -19.53,-16.06 0,-7.94 2.31,-12.6 6.92,-13.98 10.84,-3.8 18.97,-10.88 24.4,-21.24 3.52,-6.56 7.04,-18.48 10.57,-35.74l47.17 -225.33zm53.67 219.11l-60.59 0 7.73 -37.81 45.95 0 -40.66 -210.83 7.31 -31.08 87.02 0 60.99 314.94c2.44,11.75 7.33,20.38 14.64,25.9 6.51,4.84 9.76,10.02 9.76,15.54 0,11.05 -7.59,16.58 -22.77,16.58l-95.96 0c-14.91,0 -22.36,-5.87 -22.36,-17.61 0,-6.22 2.84,-11.48 8.53,-15.8 5.7,-4.32 8.54,-9.41 8.54,-15.28 0,-5.87 -0.95,-13.47 -2.84,-22.79 -1.9,-7.26 -3.67,-14.51 -5.29,-21.76z"/>
  <path fill="#FFFFFF" d="M9101.38 2598.64l-103.22 0c-11.18,0 -16.74,-5.18 -16.74,-15.54 0,-6.91 3.79,-12.78 11.38,-17.61 7.6,-4.84 11.39,-12.95 11.39,-24.35l0 -257.96c0,-11.4 -3.79,-19.51 -11.39,-24.35 -7.59,-4.83 -11.38,-10.88 -11.38,-18.13 0,-10.01 5.62,-15.02 16.81,-15.02l109.51 0c10.91,0 16.4,5.01 16.4,15.02 0,6.91 -3.79,12.78 -11.38,17.61 -7.59,4.84 -11.38,13.13 -11.38,24.87l0 315.46zm99.62 0l-86.62 0 0 -34.19c19.25,-1.03 33.76,-10.01 43.51,-26.93 4.61,-7.95 9.76,-22.97 15.45,-45.07 4.07,-16.23 8.95,-24.35 14.64,-24.35 6.24,0 10.3,5.01 12.2,15.03 0.54,4.14 0.82,12.6 0.82,25.38l0 90.13z"/>
  <path fill="#FFFFFF" d="M9361.95 2225.68c11.18,0 16.74,5.01 16.74,15.02 0,7.25 -3.79,13.3 -11.39,18.13 -7.59,4.84 -11.38,12.95 -11.38,24.35l0 259c0,10.7 3.79,18.47 11.38,23.31 7.6,4.83 11.39,10.7 11.39,17.61 0,10.36 -5.56,15.54 -16.74,15.54l-109.25 0c-11.17,0 -16.73,-5.18 -16.73,-15.54 0,-6.91 3.79,-12.78 11.38,-17.61 7.59,-4.84 11.38,-12.95 11.38,-24.35l0 -257.96c0,-11.74 -3.79,-20.03 -11.38,-24.87 -7.59,-4.83 -11.38,-10.7 -11.38,-17.61 0,-10.01 5.56,-15.02 16.73,-15.02l109.25 0z"/>
  <path fill="#FFFFFF" d="M9404.31 2328.76l0 -103.08 58.55 0 0 35.22c-9.49,5.18 -16.4,16.23 -20.74,33.16 -2.71,14.15 -5.56,28.14 -8.54,41.95 -2.97,13.82 -7.99,20.72 -15.04,20.72 -9.49,0 -14.23,-9.32 -14.23,-27.97zm185.01 -103.08l58.96 0 0 111.37c0,13.12 -4.88,19.68 -14.64,19.68 -7.05,0 -12.06,-6.9 -15.05,-20.72 -2.97,-13.81 -5.82,-27.8 -8.53,-41.95 -4.34,-16.93 -11.26,-27.98 -20.74,-33.16l0 -35.22zm-110.19 0l97.99 0 0 321.68c0,7.6 4.34,13.9 13.01,18.91 8.67,5 13.01,10.79 13.01,17.35 0,10.01 -6.5,15.02 -19.51,15.02l-111.42 0c-12.74,0 -19.11,-5.01 -19.11,-15.02 0,-6.91 4.34,-12.87 13.01,-17.87 8.67,-5.01 13.02,-12.35 13.02,-22.02l0 -318.05z"/>
  <path fill="#FFFFFF" d="M9860.54 2403.87l-11.39 -33.15c5.16,-13.81 10.31,-27.63 15.46,-41.44 6.77,-19.34 10.16,-33.84 10.16,-43.51 0,-9.33 -4.61,-17.35 -13.82,-24.09 -9.22,-6.73 -13.83,-13.21 -13.83,-19.42 0,-11.05 6.51,-16.58 19.52,-16.58l51.24 0c13,0 19.51,5.18 19.51,15.54 0,6.91 -4.07,12.78 -12.2,17.61 -10.3,6.22 -16.67,11.4 -19.11,15.54 -5.96,10.02 -14.63,32.46 -26.02,67.34 -6.51,20.72 -13.01,41.44 -19.52,62.16zm-6.91 18.65l0 124.84c0,7.94 4.34,13.98 13.01,18.13 8.67,4.14 13.01,10.19 13.01,18.13 0,10.01 -6.64,15.02 -19.93,15.02l-111 0c-13.28,0 -19.92,-5.01 -19.92,-15.02 0,-8.64 4.33,-14.68 13,-18.13 8.68,-3.46 13.02,-10.88 13.02,-22.28l0 -95.83 -56.52 -168.35c-1.9,-5.52 -6.64,-12.26 -14.23,-20.2 -6.51,-6.9 -9.77,-12.43 -9.77,-16.57 0,-11.05 7.59,-16.58 22.78,-16.58l95.96 0c14.91,0 22.36,6.04 22.36,18.13 0,5.18 -2.16,9.58 -6.5,13.21 -4.34,3.63 -6.51,6.82 -6.51,9.58 0,4.15 0.95,8.98 2.85,14.51l48.39 141.41z"/>
  <path fill="#FFFFFF" d="M10252.52 2308.56l23.18 51.8 0 151.77c0,16.93 2.98,29.88 8.94,38.85 2.45,4.15 7.86,9.33 16.27,15.54 5.96,4.15 8.94,9.16 8.94,15.03 0,11.39 -5.82,17.09 -17.48,17.09l-56.52 0c-11.66,0 -17.49,-5.7 -17.49,-17.09 0,-5.18 5.16,-11.92 15.46,-20.21 10.3,-8.28 16.13,-18.47 17.48,-30.56 0.81,-7.94 1.22,-18.13 1.22,-30.56l0 -191.66zm204.94 135.72l-23.59 -51.8c0,-5.53 0.14,-16.41 0.41,-32.64 0.27,-14.16 0.41,-25.38 0.41,-33.67 -0.28,-12.43 -0.95,-23.48 -2.04,-33.15 -1.36,-12.78 -7.12,-22.88 -17.28,-30.3 -10.17,-7.43 -15.25,-14.08 -15.25,-19.95 0,-11.39 5.56,-17.09 16.68,-17.09l57.33 0c11.38,0 17.07,5.7 17.07,17.09 0,5.87 -5.07,12.52 -15.24,19.95 -10.17,7.42 -15.93,17.52 -17.29,30.3 -1.35,14.85 -2.16,31.6 -2.44,50.25 -0.26,12.43 -0.13,29.35 0.41,50.76 0.54,24.17 0.82,40.92 0.82,50.25zm0 29.52l0 124.84 -60.45 0 -147.81 -325.82c-2.98,-6.91 -9.36,-12.78 -19.04,-17.61 -7.87,-4.15 -11.8,-9.33 -11.8,-15.54 0,-9.33 5.16,-13.99 15.46,-13.99l111.2 0 112.44 248.12z"/>
  <path fill="#FFFFFF" d="M10594.9 2286.29l12.2 63.71 -36.2 171.98c-1.35,6.56 -2.03,11.91 -2.03,16.05 0,9.33 4.61,17.44 13.83,24.35 9.22,6.91 13.83,13.47 13.83,19.68 0,11.05 -6.79,16.58 -20.34,16.58l-50.82 0c-13.02,0 -19.53,-5.35 -19.53,-16.06 0,-7.94 2.31,-12.6 6.92,-13.98 10.84,-3.8 18.97,-10.88 24.4,-21.24 3.52,-6.56 7.05,-18.48 10.57,-35.74l47.17 -225.33zm53.67 219.11l-60.58 0 7.72 -37.81 45.95 0 -40.66 -210.83 7.32 -31.08 87.01 0 60.99 314.94c2.45,11.75 7.33,20.38 14.64,25.9 6.51,4.84 9.76,10.02 9.76,15.54 0,11.05 -7.59,16.58 -22.77,16.58l-95.96 0c-14.91,0 -22.36,-5.87 -22.36,-17.61 0,-6.22 2.84,-11.48 8.53,-15.8 5.7,-4.32 8.54,-9.41 8.54,-15.28 0,-5.87 -0.95,-13.47 -2.84,-22.79 -1.9,-7.26 -3.67,-14.51 -5.29,-21.76z"/>
  <path fill="#FFFFFF" d="M10788.45 2328.76l0 -103.08 58.56 0 0 35.22c-9.49,5.18 -16.4,16.23 -20.74,33.16 -2.71,14.15 -5.56,28.14 -8.54,41.95 -2.98,13.82 -8,20.72 -15.04,20.72 -9.49,0 -14.24,-9.32 -14.24,-27.97zm185.02 -103.08l58.96 0 0 111.37c0,13.12 -4.89,19.68 -14.64,19.68 -7.05,0 -12.07,-6.9 -15.05,-20.72 -2.98,-13.81 -5.83,-27.8 -8.53,-41.95 -4.34,-16.93 -11.26,-27.98 -20.74,-33.16l0 -35.22zm-110.2 0l98 0 0 321.68c0,7.6 4.33,13.9 13.01,18.91 8.67,5 13.01,10.79 13.01,17.35 0,10.01 -6.51,15.02 -19.51,15.02l-111.42 0c-12.75,0 -19.11,-5.01 -19.11,-15.02 0,-6.91 4.33,-12.87 13.01,-17.87 8.67,-5.01 13.01,-12.35 13.01,-22.02l0 -318.05z"/>
  <path fill="#FFFFFF" d="M11220.29 2602.27l0 -36.26c19.51,-3.46 33.2,-12.95 41.07,-28.49 6.5,-13.13 9.76,-32.98 9.76,-59.57l0 -167.84c0,-16.92 -2.99,-29.69 -8.95,-38.33 -2.17,-3.11 -7.45,-7.6 -15.86,-13.47 -5.96,-3.79 -8.95,-8.97 -8.95,-15.54 0,-11.39 5.7,-17.09 17.08,-17.09l61.41 0c11.38,0 17.07,5.7 17.07,17.09 0,7.26 -4.74,14.16 -14.23,20.72 -10.3,6.91 -16.27,16.41 -17.89,28.49 -1.35,9.67 -2.04,20.38 -2.04,32.12l0 140.9c0,41.44 -5.01,72.34 -15.04,92.72 -12.2,24.52 -33.34,39.37 -63.43,44.55zm-11.79 -37.3l0 38.85c-14.71,0.69 -23.93,1.04 -27.72,1.04 -31.85,0 -55.64,-7.95 -71.43,-23.83 -17.42,-17.96 -26.1,-46.45 -26.1,-85.47l0 -212.38c0,-11.74 -3.65,-20.03 -10.97,-24.87 -7.32,-4.83 -10.98,-10.7 -10.98,-17.61 0,-10.01 5.82,-15.02 17.48,-15.02l108.57 0c14.1,0 21.15,4.83 21.15,14.5 0,7.26 -4.41,13.3 -13.22,18.13 -8.81,4.84 -13.21,12.26 -13.21,22.28l0 235.69c0,15.88 1.35,26.93 4.13,33.15 3.59,8.98 10.98,14.16 22.3,15.54z"/>
  <path fill="#FFFFFF" d="M11481.34 2431.59l0 -32.03c10.17,-0.7 17.21,-5.7 21.08,-15.03 2.78,-6.56 4.13,-17.09 4.13,-31.59l0 -48.09c0,-30.31 -8.4,-46.02 -25.21,-47.05l0 -32.12 15.52 0c31.51,0 55.64,5.87 72.17,17.61 21.49,14.85 32.27,40.58 32.27,77.18 0,49.73 -22.23,79.95 -66.7,90.65l0 1.04c45.82,8.29 68.73,32.12 68.73,71.48 0,-2.76 -0.14,3.63 -0.41,19.17 -0.27,10.71 -0.27,19.17 0,25.38 0.81,8.64 2.3,12.95 4.48,12.95 1.89,0 4.12,-2.5 6.7,-7.51 2.57,-5.01 5.89,-7.51 9.96,-7.51 3.53,0 6.58,1.73 9.15,5.18 2.58,3.45 3.87,7.42 3.87,11.91 0,17.27 -7.59,31.77 -22.84,43.52 -13.56,10.36 -27.45,15.54 -41.55,15.54 -30.76,0 -49.88,-13.82 -57.53,-41.36 -0.82,-3.11 -2.72,-29.52 -5.7,-79.17 -1.89,-29.95 -11.25,-46.7 -28.12,-50.15zm-12.6 -205.91l0 319.61c0,8.97 3.72,15.8 11.17,20.46 7.46,4.66 11.19,10.44 11.19,17.35 0,10.36 -5.42,15.54 -16.34,15.54l-109.24 0c-11.18,0 -16.74,-5.18 -16.74,-15.54 0,-6.91 3.79,-12.69 11.39,-17.35 7.59,-4.66 11.39,-12.87 11.39,-24.61l0 -257.96c0,-11.4 -3.8,-19.51 -11.39,-24.35 -7.6,-4.83 -11.39,-10.88 -11.39,-18.13 0,-10.01 5.56,-15.02 16.74,-15.02l103.22 0z"/>
  <path fill="#FFFFFF" d="M11738.33 2286.29l12.2 63.71 -36.2 171.98c-1.35,6.56 -2.03,11.91 -2.03,16.05 0,9.33 4.61,17.44 13.83,24.35 9.22,6.91 13.83,13.47 13.83,19.68 0,11.05 -6.79,16.58 -20.34,16.58l-50.82 0c-13.02,0 -19.53,-5.35 -19.53,-16.06 0,-7.94 2.31,-12.6 6.92,-13.98 10.84,-3.8 18.97,-10.88 24.4,-21.24 3.52,-6.56 7.05,-18.48 10.57,-35.74l47.17 -225.33zm53.67 219.11l-60.58 0 7.72 -37.81 45.95 0 -40.66 -210.83 7.32 -31.08 87.01 0 60.99 314.94c2.45,11.75 7.33,20.38 14.64,25.9 6.51,4.84 9.76,10.02 9.76,15.54 0,11.05 -7.59,16.58 -22.77,16.58l-95.96 0c-14.91,0 -22.36,-5.87 -22.36,-17.61 0,-6.22 2.84,-11.48 8.53,-15.8 5.7,-4.32 8.54,-9.41 8.54,-15.28 0,-5.87 -0.95,-13.47 -2.84,-22.79 -1.9,-7.26 -3.66,-14.51 -5.29,-21.76z"/>
  <path fill="#FFFFFF" d="M12066.48 2598.64l-103.22 0c-11.18,0 -16.74,-5.18 -16.74,-15.54 0,-6.91 3.8,-12.78 11.39,-17.61 7.59,-4.84 11.38,-12.95 11.38,-24.35l0 -257.96c0,-11.4 -3.79,-19.51 -11.38,-24.35 -7.59,-4.83 -11.39,-10.88 -11.39,-18.13 0,-10.01 5.62,-15.02 16.81,-15.02l109.51 0c10.92,0 16.4,5.01 16.4,15.02 0,6.91 -3.79,12.78 -11.38,17.61 -7.59,4.84 -11.38,13.13 -11.38,24.87l0 315.46zm99.62 0l-86.62 0 0 -34.19c19.25,-1.03 33.76,-10.01 43.52,-26.93 4.6,-7.95 9.75,-22.97 15.44,-45.07 4.07,-16.23 8.95,-24.35 14.64,-24.35 6.24,0 10.3,5.01 12.2,15.03 0.55,4.14 0.82,12.6 0.82,25.38l0 90.13z"/>
  <path fill="#FFFFFF" d="M12586.95 2225.68l0 315.46c0,9.67 4.47,17.79 13.42,24.35 8.95,6.56 13.41,12.6 13.41,18.13 0,10.01 -6.7,15.02 -20.05,15.02l-109.99 0c-11.18,0 -16.74,-5.18 -16.74,-15.54 0,-6.91 3.79,-12.78 11.38,-17.61 7.59,-4.84 11.38,-12.95 11.38,-24.35l0 -257.96c0,-11.74 -3.79,-20.03 -11.38,-24.87 -7.59,-4.83 -11.38,-10.7 -11.38,-17.61 0,-10.01 5.56,-15.02 16.74,-15.02l103.21 0zm13.01 229.99l0 -32.03c17.35,0 26.02,-15.36 26.02,-46.01l0 -72.78c0,-31.34 -8.67,-47.05 -26.02,-47.05l0 -32.12 8.54 0c74.82,0 112.23,38.33 112.23,115 0,43.85 -12.2,74.93 -36.6,93.24 -19.24,14.5 -47.3,21.75 -84.17,21.75z"/>
  <path fill="#FFFFFF" d="M12877.69 2431.59l0 -32.03c10.16,-0.7 17.2,-5.7 21.07,-15.03 2.78,-6.56 4.13,-17.09 4.13,-31.59l0 -48.09c0,-30.31 -8.4,-46.02 -25.2,-47.05l0 -32.12 15.52 0c31.51,0 55.64,5.87 72.17,17.61 21.48,14.85 32.26,40.58 32.26,77.18 0,49.73 -22.23,79.95 -66.69,90.65l0 1.04c45.82,8.29 68.72,32.12 68.72,71.48 0,-2.76 -0.14,3.63 -0.4,19.17 -0.28,10.71 -0.28,19.17 0,25.38 0.8,8.64 2.3,12.95 4.47,12.95 1.89,0 4.13,-2.5 6.7,-7.51 2.58,-5.01 5.9,-7.51 9.97,-7.51 3.52,0 6.57,1.73 9.15,5.18 2.57,3.45 3.86,7.42 3.86,11.91 0,17.27 -7.59,31.77 -22.84,43.52 -13.55,10.36 -27.45,15.54 -41.54,15.54 -30.77,0 -49.88,-13.82 -57.54,-41.36 -0.81,-3.11 -2.71,-29.52 -5.69,-79.17 -1.9,-29.95 -11.25,-46.7 -28.12,-50.15zm-12.61 -205.91l0 319.61c0,8.97 3.73,15.8 11.18,20.46 7.46,4.66 11.18,10.44 11.18,17.35 0,10.36 -5.42,15.54 -16.33,15.54l-109.25 0c-11.18,0 -16.73,-5.18 -16.73,-15.54 0,-6.91 3.79,-12.69 11.38,-17.35 7.59,-4.66 11.39,-12.87 11.39,-24.61l0 -257.96c0,-11.4 -3.8,-19.51 -11.39,-24.35 -7.59,-4.83 -11.38,-10.88 -11.38,-18.13 0,-10.01 5.55,-15.02 16.73,-15.02l103.22 0z"/>
  <path fill="#FFFFFF" d="M13173.3 2573.26l0 32.11c-41.2,-4.14 -72.65,-24.51 -94.34,-61.12 -20.05,-33.84 -30.08,-77.87 -30.08,-132.09 0,-54.22 10.03,-98.25 30.08,-132.09 21.69,-36.61 53.14,-56.98 94.34,-61.12l0 32.11c-13.55,-0.34 -20.33,15.97 -20.33,49.04l0 224.12c0,33.07 6.78,49.38 20.33,49.04zm12.2 32.11l0 -32.11c13.28,0.34 19.93,-15.97 19.93,-49.04l0 -224.12c0,-33.07 -6.65,-49.38 -19.93,-49.04l0 -32.11c41.21,4.14 72.65,24.51 94.33,61.12 20.07,33.84 30.09,77.87 30.09,132.09 0,54.22 -10.02,98.25 -30.09,132.09 -21.68,36.61 -53.12,56.98 -94.33,61.12z"/>
  <path fill="#FFFFFF" d="M13455.5 2598.64l-103.22 0c-11.18,0 -16.74,-5.18 -16.74,-15.54 0,-6.91 3.8,-12.78 11.39,-17.61 7.59,-4.84 11.38,-12.95 11.38,-24.35l0 -257.96c0,-11.74 -3.79,-20.03 -11.38,-24.87 -7.59,-4.83 -11.39,-10.7 -11.39,-17.61 0,-10.01 5.56,-15.02 16.74,-15.02l103.22 0 0 372.96zm13 0l0 -31.51c11.12,0 18.58,-5.01 22.37,-15.02 2.98,-7.26 4.47,-18.65 4.47,-34.19l0 -211c0,-15.54 -1.49,-26.85 -4.47,-34.1 -3.79,-10.02 -11.25,-15.02 -22.37,-15.02l0 -32.12c41.21,0 73.74,18.3 97.59,54.91 21.96,33.84 32.94,77.7 32.94,131.57 0,53.87 -10.98,97.73 -32.94,131.57 -23.85,36.61 -56.38,54.91 -97.59,54.91z"/>
  <path fill="#FFFFFF" d="M13786.49 2602.27l0 -36.26c19.51,-3.46 33.2,-12.95 41.07,-28.49 6.5,-13.13 9.75,-32.98 9.75,-59.57l0 -167.84c0,-16.92 -2.98,-29.69 -8.95,-38.33 -2.16,-3.11 -7.44,-7.6 -15.85,-13.47 -5.97,-3.79 -8.95,-8.97 -8.95,-15.54 0,-11.39 5.7,-17.09 17.08,-17.09l61.4 0c11.38,0 17.08,5.7 17.08,17.09 0,7.26 -4.75,14.16 -14.24,20.72 -10.3,6.91 -16.26,16.41 -17.89,28.49 -1.35,9.67 -2.03,20.38 -2.03,32.12l0 140.9c0,41.44 -5.02,72.34 -15.04,92.72 -12.2,24.52 -33.35,39.37 -63.43,44.55zm-11.79 -37.3l0 38.85c-14.72,0.69 -23.93,1.04 -27.72,1.04 -31.86,0 -55.64,-7.95 -71.44,-23.83 -17.41,-17.96 -26.09,-46.45 -26.09,-85.47l0 -212.38c0,-11.74 -3.66,-20.03 -10.97,-24.87 -7.33,-4.83 -10.98,-10.7 -10.98,-17.61 0,-10.01 5.82,-15.02 17.48,-15.02l108.57 0c14.1,0 21.15,4.83 21.15,14.5 0,7.26 -4.42,13.3 -13.22,18.13 -8.81,4.84 -13.21,12.26 -13.21,22.28l0 235.69c0,15.88 1.35,26.93 4.12,33.15 3.6,8.98 10.99,14.16 22.31,15.54z"/>
  <path fill="#FFFFFF" d="M14058.92 2255.81l0 -36.86c7.05,0.69 17.15,4.23 30.29,10.62 13.15,6.38 21.08,9.58 23.79,9.58 2.44,0 5.42,-2.85 8.95,-8.55 3.52,-5.7 7.86,-8.55 13.01,-8.55 7.86,0 11.79,6.22 11.79,18.65l0 101.01c0,19.69 -4.34,29.53 -13.01,29.53 -6.23,0 -12.33,-9.67 -18.3,-29.1 -8.67,-29.44 -14.64,-47.65 -17.89,-54.56 -9.76,-20.11 -22.64,-30.73 -38.63,-31.77zm0 349.56l0 -36.77c19.25,-3.11 34.02,-11.57 44.32,-25.39 5.43,-7.25 10.98,-19.33 16.68,-36.26 4.34,-12.43 8.8,-18.64 13.41,-18.64 8.95,0 13.42,6.56 13.42,19.68 0,25.9 -9.75,48.69 -29.28,68.38 -17.89,17.61 -37.4,27.28 -58.55,29zm-12.2 -36.77l0 36.77c-42.02,-3.1 -74.14,-23.13 -96.37,-60.08 -20.6,-33.85 -30.9,-78.22 -30.9,-133.13 0,-55.25 10.3,-99.8 30.9,-133.64 21.97,-36.26 54.09,-56.12 96.37,-59.57l0 36.77c-16.8,1.73 -25.21,17.27 -25.21,46.62l0 219.64c0,29.35 8.41,44.89 25.21,46.62z"/>
  <path fill="#FFFFFF" d="M14177.65 2328.76l0 -103.08 58.55 0 0 35.22c-9.49,5.18 -16.4,16.23 -20.74,33.16 -2.7,14.15 -5.55,28.14 -8.54,41.95 -2.97,13.82 -7.99,20.72 -15.04,20.72 -9.49,0 -14.23,-9.32 -14.23,-27.97zm185.01 -103.08l58.96 0 0 111.37c0,13.12 -4.88,19.68 -14.64,19.68 -7.05,0 -12.06,-6.9 -15.04,-20.72 -2.98,-13.81 -5.83,-27.8 -8.54,-41.95 -4.34,-16.93 -11.25,-27.98 -20.74,-33.16l0 -35.22zm-110.19 0l98 0 0 321.68c0,7.6 4.33,13.9 13,18.91 8.68,5 13.02,10.79 13.02,17.35 0,10.01 -6.51,15.02 -19.52,15.02l-111.42 0c-12.74,0 -19.1,-5.01 -19.1,-15.02 0,-6.91 4.33,-12.87 13,-17.87 8.68,-5.01 13.02,-12.35 13.02,-22.02l0 -318.05z"/>
  <path fill="#FFFFFF" d="M14547.27 2571.19l0 34.7c-8.68,0 -19.31,-2.59 -31.92,-7.77 -12.61,-5.18 -21.21,-7.77 -25.82,-7.77 -3.52,0 -6.84,2.59 -9.96,7.77 -3.12,5.18 -6.71,7.77 -10.78,7.77 -8.67,0 -13.01,-7.6 -13.01,-22.79l0 -96.87c0,-18.3 4.34,-27.45 13.01,-27.45 3.53,0 6.1,0.86 7.73,2.59 1.62,1.73 5.42,12.95 11.39,33.67 6.23,21.76 13,38.5 20.33,50.25 10.84,17.26 23.85,25.9 39.03,25.9zm12.2 34.7l0 -34.7c10.03,0 18.64,-3.37 25.82,-10.1 7.19,-6.74 10.77,-16.32 10.77,-28.75 0,-18.65 -12.2,-35.57 -36.59,-50.77 -40.12,-24.86 -62.89,-39.88 -68.31,-45.06 -24.4,-23.49 -36.6,-54.22 -36.6,-92.21 0,-38.33 9.29,-68.81 27.85,-91.42 18.58,-22.62 42.9,-33.93 72.99,-33.93l0 31.59c-7.86,0 -14.36,4.15 -19.51,12.44 -5.15,8.28 -7.73,17.61 -7.73,27.97 0,18.65 12.33,34.53 37.01,47.65 37.94,20.03 60.85,33.67 68.71,40.93 24.67,23.48 37.01,56.8 37.01,99.97 0,39.71 -10.98,71.14 -32.94,94.28 -20.33,21.41 -46.5,32.11 -78.48,32.11zm8.13 -355.35l0 -31.59c9.49,0.34 20.74,3.02 33.75,8.03 13.01,5 20.33,7.51 21.96,7.51 2.98,0 6.17,-2.59 9.55,-7.77 3.39,-5.18 7.12,-7.77 11.19,-7.77 7.86,0 11.79,6.56 11.79,19.68l0 87.54c0,16.58 -4.07,24.87 -12.2,24.87 -6.51,0 -10.71,-3.8 -12.61,-11.4 -7.31,-29.35 -13.82,-49.38 -19.51,-60.09 -10.57,-19.34 -25.21,-29.01 -43.92,-29.01z"/>
 </g>
</svg>
