<?xml version="1.0" encoding="UTF-8"?>
<svg xmlns="http://www.w3.org/2000/svg" xml:space="preserve" version="1.1" viewBox="0 0 10000 10000">
 <g>
  <path style="fill:#ffffff" d="M3229.54 5332.18c217.93,0 349.15,-142.04 349.15,-328.8l0 -1643.99 2834.33 0 0 1643.99c0,430.61 677.77,472.61 677.77,-61.65l0 -1582.34c196.19,0 452.25,-22.44 636.69,20.55 72.76,151.7 81.64,968.61 105.73,1188.86l61.62 863.1c22.48,205.58 41.04,472.97 57.44,682.31l61.62 863.09c4.71,60.11 -2.48,120.06 4.17,180.77 9.78,89.45 13.98,237.97 29.39,340.5l69.89 1039.8c2.49,94.13 66.3,287.27 -61.23,287.27l-6120.5 0c-142.24,0 -41.85,-340.98 -41.08,-616.5l76.53 -1033.11c8.76,-64.76 2.58,-115.52 5.65,-179.29l210.97 -2933.03c23.6,-174.45 12.67,-550.58 76.54,-683.77 185.17,-43.16 458.54,-20.55 657.24,-20.55l0 1376.84c0,100.61 -99.16,595.95 308.08,595.95zm349.15 -2774.23c0,-401.45 189.25,-735.84 395.32,-940.2 362.01,-358.97 615.91,-436.64 1124.54,-436.64 489.27,0 1020.32,407.45 1188.77,824.46 115.98,287.13 125.7,376.78 125.7,696.22l-2834.33 0 0 -143.84zm-677.78 20.55l20.55 123.29c-302.29,0 -693.97,-36.94 -904.16,61.21 -83.58,39.03 -214.42,131.37 -270.12,202.36 -79.24,101.03 -125.13,190.58 -161.7,331.43l-239.87 3150.69c-19.98,147.6 -18.98,317.13 -26.2,466.99 -26.74,553.99 -123.2,1278.77 -123.2,1828.96 0,130.82 19.8,233.61 74.99,335.97 96.28,178.56 204.63,272.12 383.29,356.3 89.97,42.39 197.21,68.08 322.18,68.08l6038.36 0c235.47,0 404.18,-94.43 537.57,-201.94 336.64,-271.32 228.51,-694.32 221.96,-968.99 -3.26,-136.73 -7.93,-289.61 -23.17,-428.92 -28.64,-261.78 -45.06,-544.08 -58.63,-824.98 -18.11,-375.32 -122.27,-1335.41 -123.18,-1664.58l-85.19 -1250.51c-49.88,-456.15 -10.8,-859.4 -197.84,-1137.78 -272.81,-406.08 -701.25,-324.29 -1195.76,-324.29 0,-469.99 -108.63,-887.15 -340.57,-1241.57 -123.65,-188.94 -122.83,-159.53 -237.15,-297.02 -523.78,-629.96 -1624.08,-856.21 -2393.79,-468.69 -168.2,84.67 -330.99,165.55 -472.91,287.17 -28.05,24.01 -36.22,36.65 -62.88,60.38 -39.61,35.26 -43.13,30.24 -81.29,62.51 -132.98,112.45 -341.45,433.72 -423.64,603.63 -108.74,224.79 -177.65,544.18 -177.65,870.3z"/>
 </g>
</svg>
