<?xml version="1.0" encoding="UTF-8"?>
<svg xmlns="http://www.w3.org/2000/svg" xml:space="preserve" version="1.1" viewBox="0 0 10000 10000">
 <g>
  <path style="fill:#ccc" d="M3379.23 3076.26c0,722.11 90.18,1029.67 434.64,1611.42 49.76,84.04 95.13,149.89 149.52,220.69 120.44,156.76 253.47,274.43 253.47,506.46 0,306.59 -372.33,396.77 -601.39,489.7 -179.93,73 -699.09,353.21 -886.99,476.8 -430.11,282.9 -771.29,508.64 -771.29,1138.23 -186.35,-124.84 -531.26,-793.13 -631.89,-1043.83 -432.86,-1078.3 -355.34,-2080.96 75.18,-3118.44 134.41,-323.92 428.99,-765.14 688.57,-1026.1 53,-53.3 65.6,-90.66 116.26,-137.04 336.83,-308.31 732.7,-617.76 1157.13,-791.2 565.89,-231.24 995.44,-353.47 1653.1,-353.47 2803.95,0 4672.04,2872.6 3656.83,5412.32 -84.88,212.33 -172.61,390.06 -282.94,574.43 -77.25,129.07 -266.7,430.93 -373.98,502.82 29.61,-127.2 -1.42,-322.86 -40.96,-446.25 -183.96,-574.15 -1069.95,-946.22 -1581.69,-1145.98 -288.34,-112.54 -598.07,-205.22 -598.07,-531.99 0,-199.97 130.73,-376.09 222.61,-498.36 412.16,-548.5 615.03,-1021.2 615.03,-1781.76 0,-923.07 -605.2,-1656.5 -1616.83,-1656.5 -434.69,0 -879.77,149.93 -1173.38,443.65 -108.1,108.15 -260.73,334.11 -318.62,480.26 -74.41,187.8 -144.31,423.08 -144.31,674.14zm-2883.03 1929.32c0,751.81 214.7,1483.5 486.77,2026.99 34.23,68.41 65.34,116.42 104.31,187.98 282.88,519.5 839.11,1138.29 1337.35,1468.37 286.5,189.8 396.68,264.02 720.5,409.51 1178.94,529.67 2527.54,549.09 3688.58,6.22 313.84,-146.75 413.26,-193.71 722.17,-407.84 118,-81.8 213.65,-154.43 318.86,-246.16 58.89,-51.35 87.86,-68.44 145.65,-127.12 296.47,-301.03 382.01,-357.73 657.3,-745.57 159.23,-224.35 290.25,-455.15 409.47,-720.67 314.7,-700.84 488.57,-1581.39 373.29,-2361.9 -75.02,-507.79 -148.54,-860.46 -367.07,-1328.25 -33.36,-71.41 -50.61,-124.84 -84.13,-188.67 -218.52,-415.95 -504.88,-818.08 -837.03,-1150.4 -43.26,-43.27 -92.19,-79.93 -142.15,-130.64 -715.6,-726.44 -1979.55,-1193.63 -3034.02,-1193.63 -684.86,0 -1364.22,181.35 -1837.65,402.7 -70.89,33.15 -124.56,52.26 -188.48,84.28 -68.37,34.25 -116.37,65.37 -187.9,104.35 -221.82,120.9 -633.84,413.32 -810.3,592.49 -53.19,54 -105.14,93.74 -151.83,140.45 -43.24,43.27 -79.89,92.22 -130.58,142.19 -733.51,723.22 -1193.11,1995.2 -1193.11,3035.32z"/>
 </g>
</svg>
